<svg width="159" height="159" viewBox="0 0 159 159" fill="none" xmlns="http://www.w3.org/2000/svg">
<mask id="mask0_129_240" style="mask-type:alpha" maskUnits="userSpaceOnUse" x="0" y="0" width="159" height="159">
<rect x="0.539062" y="158.557" width="158.217" height="158.217" transform="rotate(-90 0.539062 158.557)" fill="#FBC5FF"/>
</mask>
<g mask="url(#mask0_129_240)">
<rect x="0.539062" y="158.557" width="158.217" height="158.217" transform="rotate(-90 0.539062 158.557)" fill="#EA94FF"/>
<path opacity="0.5" d="M382.364 93.5104C380.543 94.957 379.014 96.6712 377.864 98.5811C377.104 99.8209 376.51 101.145 376.087 102.531C373.454 100.889 370.246 99.9138 366.764 99.9138C363.999 99.9138 361.399 100.527 359.123 101.608C355.297 97.9271 349.771 95.611 343.623 95.611C335.958 95.611 329.262 99.1992 325.631 104.551C323.246 103.32 320.471 102.613 317.501 102.613C314.531 102.613 311.756 103.32 309.384 104.551C305.744 99.1992 299.044 95.611 291.393 95.611C285.239 95.611 279.708 97.9271 275.883 101.608C273.617 100.527 271.017 99.9138 268.242 99.9138C264.763 99.9138 261.542 100.889 258.919 102.538C256.514 94.5446 248.156 88.6403 238.216 88.6403C228.275 88.6403 219.92 94.5446 217.512 102.538C214.889 100.889 211.671 99.9138 208.189 99.9138C205.424 99.9138 202.824 100.527 200.548 101.608C196.723 97.9271 191.196 95.611 185.048 95.611C177.384 95.611 170.687 99.1992 167.057 104.551C164.672 103.32 161.897 102.613 158.927 102.613C155.957 102.613 153.182 103.32 150.81 104.551C147.169 99.1992 140.47 95.611 132.819 95.611C126.661 95.611 121.134 97.9271 117.308 101.608C115.042 100.527 112.442 99.9138 109.667 99.9138C106.188 99.9138 102.967 100.889 100.344 102.538V102.531C99.9216 101.145 99.327 99.8209 98.5671 98.5811C97.4175 96.6712 95.8912 94.9558 94.0677 93.5104C90.252 90.487 85.2009 88.6416 79.641 88.6416C74.0811 88.6416 69.0299 90.4858 65.2143 93.5104C63.394 94.957 61.8644 96.6712 60.7148 98.5811C59.955 99.8209 59.3604 101.145 58.9375 102.531C56.3046 100.889 53.0968 99.9138 49.6148 99.9138C46.8498 99.9138 44.2498 100.527 41.9737 101.608C38.1481 97.9271 32.6212 95.611 26.4733 95.611C18.809 95.611 12.1127 99.1992 8.48209 104.551C6.09691 103.32 3.3219 102.613 0.35199 102.613C-2.61792 102.613 -5.3929 103.32 -7.76486 104.551C-11.4054 99.1992 -18.105 95.611 -25.7561 95.611C-31.914 95.611 -37.4408 97.9271 -41.2664 101.608C-43.5326 100.527 -46.1325 99.9138 -48.9075 99.9138C-52.3862 99.9138 -55.6072 100.889 -58.2302 102.538C-60.6352 94.5446 -68.9932 88.6403 -78.9337 88.6403C-88.8741 88.6403 -97.2289 94.5446 -99.6372 102.538C-102.26 100.889 -105.478 99.9138 -108.96 99.9138C-111.725 99.9138 -114.325 100.527 -116.601 101.608C-120.427 97.9271 -125.953 95.611 -132.101 95.611C-139.766 95.611 -146.462 99.1992 -150.093 104.551C-152.478 103.32 -155.253 102.613 -158.223 102.613C-161.193 102.613 -163.968 103.32 -166.34 104.551C-169.98 99.1992 -176.68 95.611 -184.331 95.611C-190.489 95.611 -196.015 97.9271 -199.841 101.608C-202.107 100.527 -204.707 99.9138 -207.482 99.9138C-210.961 99.9138 -214.182 100.889 -216.805 102.538V102.531C-217.228 101.145 -217.822 99.8209 -218.582 98.5811C-219.732 96.6712 -221.258 94.9558 -223.082 93.5104C-226.884 90.487 -231.935 88.6416 -237.495 88.6416V105.116C-233.884 105.116 -230.482 105.896 -227.502 107.27C-225.715 108.095 -224.066 109.135 -222.626 110.35C-220.73 111.948 -219.167 113.84 -218.064 115.953C-217.542 116.929 -217.122 117.949 -216.795 119.005C-214.162 117.363 -210.954 116.388 -207.472 116.388C-204.697 116.388 -202.097 117.001 -199.831 118.079C-197.978 116.299 -195.735 114.84 -193.198 113.808C-190.508 112.703 -187.496 112.085 -184.321 112.085C-181.146 112.085 -178.133 112.703 -175.444 113.808C-171.638 115.365 -168.464 117.892 -166.33 121.022C-163.958 119.794 -161.183 119.087 -158.213 119.087C-155.243 119.087 -152.468 119.794 -150.083 121.022C-147.958 117.893 -144.784 115.365 -140.978 113.808C-138.279 112.703 -135.266 112.085 -132.091 112.085C-128.917 112.085 -125.904 112.703 -123.225 113.808C-120.688 114.84 -118.444 116.299 -116.591 118.079C-114.315 117.002 -111.715 116.388 -108.95 116.388C-105.471 116.388 -102.25 117.363 -99.6272 119.014C-98.0977 113.918 -94.1433 109.675 -88.9171 107.266C-85.924 105.892 -82.5213 105.116 -78.9238 105.116C-75.3262 105.116 -71.9235 105.892 -68.9305 107.266C-63.7075 109.676 -59.7498 113.918 -58.2203 119.014C-55.5973 117.364 -52.3796 116.388 -48.8976 116.388C-46.1226 116.388 -43.5227 117.001 -41.2565 118.079C-39.4032 116.299 -37.16 114.84 -34.6229 113.808C-31.9338 112.703 -28.9209 112.085 -25.7462 112.085C-22.5715 112.085 -19.5586 112.703 -16.8695 113.808C-13.0638 115.365 -9.88907 117.892 -7.75496 121.022C-5.383 119.794 -2.60802 119.087 0.361893 119.087C3.3318 119.087 6.10681 119.794 8.49199 121.022C10.6162 117.893 13.7909 115.365 17.5966 113.808C20.2957 112.703 23.3085 112.085 26.4832 112.085C29.658 112.085 32.6708 112.703 35.35 113.808C37.8871 114.84 40.1303 116.299 41.9836 118.079C44.2597 117.002 46.8596 116.388 49.6247 116.388C53.1034 116.388 56.3112 117.363 58.9474 119.005C59.2711 117.949 59.694 116.928 60.216 115.953C61.3227 113.84 62.882 111.947 64.7782 110.35C66.2186 109.135 67.8671 108.095 69.6543 107.27C72.6341 105.896 76.0368 105.116 79.6476 105.116C83.2584 105.116 86.6611 105.896 89.6409 107.27C91.4281 108.095 93.0766 109.135 94.5169 110.35C96.4132 111.948 97.9758 113.84 99.0792 115.953C99.6011 116.929 100.021 117.949 100.348 119.005C102.981 117.363 106.188 116.388 109.67 116.388C112.445 116.388 115.045 117.001 117.312 118.079C119.165 116.299 121.408 114.84 123.945 113.808C126.634 112.703 129.647 112.085 132.822 112.085C135.997 112.085 139.009 112.703 141.699 113.808C145.504 115.365 148.679 117.892 150.813 121.022C153.185 119.794 155.96 119.087 158.93 119.087C161.9 119.087 164.675 119.794 167.06 121.022C169.184 117.893 172.359 115.365 176.165 113.808C178.864 112.703 181.877 112.085 185.051 112.085C188.226 112.085 191.239 112.703 193.918 113.808C196.455 114.84 198.698 116.299 200.552 118.079C202.828 117.002 205.428 116.388 208.193 116.388C211.671 116.388 214.892 117.363 217.515 119.014C219.045 113.918 222.999 109.675 228.226 107.266C231.219 105.892 234.621 105.116 238.219 105.116C241.816 105.116 245.222 105.892 248.212 107.266C253.435 109.676 257.393 113.918 258.922 119.014C261.545 117.364 264.763 116.388 268.245 116.388C271.02 116.388 273.62 117.001 275.886 118.079C277.74 116.299 279.983 114.84 282.52 113.808C285.209 112.703 288.222 112.085 291.396 112.085C294.571 112.085 297.584 112.703 300.273 113.808C304.079 115.365 307.254 117.892 309.388 121.022C311.763 119.794 314.535 119.087 317.505 119.087C320.474 119.087 323.25 119.794 325.635 121.022C327.759 117.893 330.934 115.365 334.739 113.808C337.438 112.703 340.451 112.085 343.626 112.085C346.801 112.085 349.814 112.703 352.493 113.808C355.03 114.84 357.273 116.299 359.126 118.079C361.402 117.002 364.002 116.388 366.767 116.388C370.246 116.388 373.454 117.363 376.09 119.005C376.414 117.949 376.837 116.928 377.359 115.953C378.465 113.84 380.025 111.947 381.921 110.35C383.361 109.135 385.01 108.095 386.797 107.27C389.777 105.896 393.183 105.116 396.79 105.116V88.6416C391.23 88.6416 386.179 90.4858 382.364 93.5104Z" fill="#FBC5FF"/>
<path opacity="0.5" d="M382.364 133.057C380.543 134.504 379.014 136.218 377.864 138.128C377.104 139.367 376.51 140.692 376.087 142.077C373.454 140.435 370.246 139.46 366.764 139.46C363.999 139.46 361.399 140.073 359.123 141.155C355.297 137.474 349.771 135.158 343.623 135.158C335.958 135.158 329.262 138.746 325.631 144.098C323.246 142.866 320.471 142.159 317.501 142.159C314.531 142.159 311.756 142.866 309.384 144.098C305.744 138.746 299.044 135.158 291.393 135.158C285.239 135.158 279.708 137.474 275.883 141.155C273.617 140.073 271.017 139.46 268.242 139.46C264.763 139.46 261.542 140.435 258.919 142.085C256.514 134.091 248.156 128.187 238.216 128.187C228.275 128.187 219.92 134.091 217.512 142.085C214.889 140.435 211.671 139.46 208.189 139.46C205.424 139.46 202.824 140.073 200.548 141.155C196.723 137.474 191.196 135.158 185.048 135.158C177.384 135.158 170.687 138.746 167.057 144.098C164.672 142.866 161.897 142.159 158.927 142.159C155.957 142.159 153.182 142.866 150.81 144.098C147.169 138.746 140.47 135.158 132.819 135.158C126.661 135.158 121.134 137.474 117.308 141.155C115.042 140.073 112.442 139.46 109.667 139.46C106.188 139.46 102.967 140.435 100.344 142.085V142.077C99.9216 140.692 99.327 139.367 98.5671 138.128C97.4175 136.218 95.8912 134.502 94.0677 133.057C90.252 130.034 85.2009 128.188 79.641 128.188C74.0811 128.188 69.0299 130.032 65.2143 133.057C63.394 134.504 61.8644 136.218 60.7148 138.128C59.955 139.367 59.3604 140.692 58.9375 142.077C56.3046 140.435 53.0968 139.46 49.6148 139.46C46.8498 139.46 44.2498 140.073 41.9737 141.155C38.1481 137.474 32.6212 135.158 26.4733 135.158C18.809 135.158 12.1127 138.746 8.48209 144.098C6.09691 142.866 3.3219 142.159 0.35199 142.159C-2.61792 142.159 -5.3929 142.866 -7.76486 144.098C-11.4054 138.746 -18.105 135.158 -25.7561 135.158C-31.914 135.158 -37.4408 137.474 -41.2664 141.155C-43.5326 140.073 -46.1325 139.46 -48.9075 139.46C-52.3862 139.46 -55.6072 140.435 -58.2302 142.085C-60.6352 134.091 -68.9932 128.187 -78.9337 128.187C-88.8741 128.187 -97.2289 134.091 -99.6372 142.085C-102.26 140.435 -105.478 139.46 -108.96 139.46C-111.725 139.46 -114.325 140.073 -116.601 141.155C-120.427 137.474 -125.953 135.158 -132.101 135.158C-139.766 135.158 -146.462 138.746 -150.093 144.098C-152.478 142.866 -155.253 142.159 -158.223 142.159C-161.193 142.159 -163.968 142.866 -166.34 144.098C-169.98 138.746 -176.68 135.158 -184.331 135.158C-190.489 135.158 -196.015 137.474 -199.841 141.155C-202.107 140.073 -204.707 139.46 -207.482 139.46C-210.961 139.46 -214.182 140.435 -216.805 142.085V142.077C-217.228 140.692 -217.822 139.367 -218.582 138.128C-219.732 136.218 -221.258 134.502 -223.082 133.057C-226.884 130.034 -231.935 128.188 -237.495 128.188V144.662C-233.884 144.662 -230.482 145.443 -227.502 146.816C-225.715 147.641 -224.066 148.682 -222.626 149.897C-220.73 151.494 -219.167 153.387 -218.064 155.5C-217.542 156.476 -217.122 157.495 -216.795 158.552C-214.162 156.909 -210.954 155.935 -207.472 155.935C-204.697 155.935 -202.097 156.548 -199.831 157.625C-197.978 155.845 -195.735 154.386 -193.198 153.355C-190.508 152.25 -187.496 151.632 -184.321 151.632C-181.146 151.632 -178.133 152.25 -175.444 153.355C-171.638 154.912 -168.464 157.438 -166.33 160.568C-163.958 159.341 -161.183 158.634 -158.213 158.634C-155.243 158.634 -152.468 159.341 -150.083 160.568C-147.958 157.44 -144.784 154.912 -140.978 153.355C-138.279 152.25 -135.266 151.632 -132.091 151.632C-128.917 151.632 -125.904 152.25 -123.225 153.355C-120.688 154.386 -118.444 155.845 -116.591 157.625C-114.315 156.549 -111.715 155.935 -108.95 155.935C-105.471 155.935 -102.25 156.909 -99.6272 158.56C-98.0977 153.465 -94.1433 149.222 -88.9171 146.813C-85.924 145.439 -82.5213 144.662 -78.9238 144.662C-75.3262 144.662 -71.9235 145.439 -68.9305 146.813C-63.7075 149.223 -59.7498 153.465 -58.2203 158.56C-55.5973 156.911 -52.3796 155.935 -48.8976 155.935C-46.1226 155.935 -43.5227 156.548 -41.2565 157.625C-39.4032 155.845 -37.16 154.386 -34.6229 153.355C-31.9338 152.25 -28.9209 151.632 -25.7462 151.632C-22.5715 151.632 -19.5586 152.25 -16.8695 153.355C-13.0638 154.912 -9.88907 157.438 -7.75496 160.568C-5.383 159.341 -2.60802 158.634 0.361893 158.634C3.3318 158.634 6.10681 159.341 8.49199 160.568C10.6162 157.44 13.7909 154.912 17.5966 153.355C20.2957 152.25 23.3085 151.632 26.4832 151.632C29.658 151.632 32.6708 152.25 35.35 153.355C37.8871 154.386 40.1303 155.845 41.9836 157.625C44.2597 156.549 46.8596 155.935 49.6247 155.935C53.1034 155.935 56.3112 156.909 58.9474 158.552C59.2711 157.495 59.694 156.475 60.216 155.5C61.3227 153.387 62.882 151.493 64.7782 149.897C66.2186 148.682 67.8671 147.641 69.6543 146.816C72.6341 145.443 76.0368 144.662 79.6476 144.662C83.2584 144.662 86.6611 145.443 89.6409 146.816C91.4281 147.641 93.0766 148.682 94.5169 149.897C96.4132 151.494 97.9758 153.387 99.0792 155.5C99.6011 156.476 100.021 157.495 100.348 158.552C102.981 156.909 106.188 155.935 109.67 155.935C112.445 155.935 115.045 156.548 117.312 157.625C119.165 155.845 121.408 154.386 123.945 153.355C126.634 152.25 129.647 151.632 132.822 151.632C135.997 151.632 139.009 152.25 141.699 153.355C145.504 154.912 148.679 157.438 150.813 160.568C153.185 159.341 155.96 158.634 158.93 158.634C161.9 158.634 164.675 159.341 167.06 160.568C169.184 157.44 172.359 154.912 176.165 153.355C178.864 152.25 181.877 151.632 185.051 151.632C188.226 151.632 191.239 152.25 193.918 153.355C196.455 154.386 198.698 155.845 200.552 157.625C202.828 156.549 205.428 155.935 208.193 155.935C211.671 155.935 214.892 156.909 217.515 158.56C219.045 153.465 222.999 149.222 228.226 146.813C231.219 145.439 234.621 144.662 238.219 144.662C241.816 144.662 245.222 145.439 248.212 146.813C253.435 149.223 257.393 153.465 258.922 158.56C261.545 156.911 264.763 155.935 268.245 155.935C271.02 155.935 273.62 156.548 275.886 157.625C277.74 155.845 279.983 154.386 282.52 153.355C285.209 152.25 288.222 151.632 291.396 151.632C294.571 151.632 297.584 152.25 300.273 153.355C304.079 154.912 307.254 157.438 309.388 160.568C311.763 159.341 314.535 158.634 317.505 158.634C320.474 158.634 323.25 159.341 325.635 160.568C327.759 157.44 330.934 154.912 334.739 153.355C337.438 152.25 340.451 151.632 343.626 151.632C346.801 151.632 349.814 152.25 352.493 153.355C355.03 154.386 357.273 155.845 359.126 157.625C361.402 156.549 364.002 155.935 366.767 155.935C370.246 155.935 373.454 156.909 376.09 158.552C376.414 157.495 376.837 156.475 377.359 155.5C378.465 153.387 380.025 151.493 381.921 149.897C383.361 148.682 385.01 147.641 386.797 146.816C389.777 145.443 393.183 144.662 396.79 144.662V128.188C391.23 128.188 386.179 130.032 382.364 133.057Z" fill="#FBC5FF"/>
<path opacity="0.5" d="M382.364 53.9638C380.543 55.4105 379.014 57.1247 377.864 59.0345C377.104 60.2744 376.51 61.5984 376.087 62.9844C373.454 61.342 370.246 60.3673 366.764 60.3673C363.999 60.3673 361.399 60.9803 359.123 62.0616C355.297 58.3806 349.771 56.0644 343.623 56.0644C335.958 56.0644 329.262 59.6526 325.631 65.0045C323.246 63.7733 320.471 63.0661 317.501 63.0661C314.531 63.0661 311.756 63.7733 309.384 65.0045C305.744 59.6526 299.044 56.0644 291.393 56.0644C285.239 56.0644 279.708 58.3806 275.883 62.0616C273.617 60.9803 271.017 60.3673 268.242 60.3673C264.763 60.3673 261.542 61.342 258.919 62.9918C256.514 54.998 248.156 49.0938 238.216 49.0938C228.275 49.0938 219.92 54.998 217.512 62.9918C214.889 61.342 211.671 60.3673 208.189 60.3673C205.424 60.3673 202.824 60.9803 200.548 62.0616C196.723 58.3806 191.196 56.0644 185.048 56.0644C177.384 56.0644 170.687 59.6526 167.057 65.0045C164.672 63.7733 161.897 63.0661 158.927 63.0661C155.957 63.0661 153.182 63.7733 150.81 65.0045C147.169 59.6526 140.47 56.0644 132.819 56.0644C126.661 56.0644 121.134 58.3806 117.308 62.0616C115.042 60.9803 112.442 60.3673 109.667 60.3673C106.188 60.3673 102.967 61.342 100.344 62.9918V62.9844C99.9216 61.5984 99.327 60.2744 98.5671 59.0345C97.4175 57.1247 95.8912 55.4092 94.0677 53.9638C90.252 50.9405 85.2009 49.095 79.641 49.095C74.0811 49.095 69.0299 50.9392 65.2143 53.9638C63.394 55.4105 61.8644 57.1247 60.7148 59.0345C59.955 60.2744 59.3604 61.5984 58.9375 62.9844C56.3046 61.342 53.0968 60.3673 49.6148 60.3673C46.8498 60.3673 44.2498 60.9803 41.9737 62.0616C38.1481 58.3806 32.6212 56.0644 26.4733 56.0644C18.809 56.0644 12.1127 59.6526 8.48209 65.0045C6.09691 63.7733 3.3219 63.0661 0.35199 63.0661C-2.61792 63.0661 -5.3929 63.7733 -7.76486 65.0045C-11.4054 59.6526 -18.105 56.0644 -25.7561 56.0644C-31.914 56.0644 -37.4408 58.3806 -41.2664 62.0616C-43.5326 60.9803 -46.1325 60.3673 -48.9075 60.3673C-52.3862 60.3673 -55.6072 61.342 -58.2302 62.9918C-60.6352 54.998 -68.9932 49.0938 -78.9337 49.0938C-88.8741 49.0938 -97.2289 54.998 -99.6372 62.9918C-102.26 61.342 -105.478 60.3673 -108.96 60.3673C-111.725 60.3673 -114.325 60.9803 -116.601 62.0616C-120.427 58.3806 -125.953 56.0644 -132.101 56.0644C-139.766 56.0644 -146.462 59.6526 -150.093 65.0045C-152.478 63.7733 -155.253 63.0661 -158.223 63.0661C-161.193 63.0661 -163.968 63.7733 -166.34 65.0045C-169.98 59.6526 -176.68 56.0644 -184.331 56.0644C-190.489 56.0644 -196.015 58.3806 -199.841 62.0616C-202.107 60.9803 -204.707 60.3673 -207.482 60.3673C-210.961 60.3673 -214.182 61.342 -216.805 62.9918V62.9844C-217.228 61.5984 -217.822 60.2744 -218.582 59.0345C-219.732 57.1247 -221.258 55.4092 -223.082 53.9638C-226.884 50.9405 -231.935 49.095 -237.495 49.095V65.5693C-233.884 65.5693 -230.482 66.3496 -227.502 67.7231C-225.715 68.548 -224.066 69.5884 -222.626 70.8035C-220.73 72.4012 -219.167 74.2938 -218.064 76.4068C-217.542 77.3828 -217.122 78.4021 -216.795 79.4586C-214.162 77.8163 -210.954 76.8415 -207.472 76.8415C-204.697 76.8415 -202.097 77.4546 -199.831 78.5322C-197.978 76.7523 -195.735 75.2933 -193.198 74.2616C-190.508 73.1568 -187.496 72.5387 -184.321 72.5387C-181.146 72.5387 -178.133 73.1568 -175.444 74.2616C-171.638 75.8185 -168.464 78.3452 -166.33 81.475C-163.958 80.2476 -161.183 79.5404 -158.213 79.5404C-155.243 79.5404 -152.468 80.2476 -150.083 81.475C-147.958 78.3464 -144.784 75.8185 -140.978 74.2616C-138.279 73.1568 -135.266 72.5387 -132.091 72.5387C-128.917 72.5387 -125.904 73.1568 -123.225 74.2616C-120.688 75.2933 -118.444 76.7523 -116.591 78.5322C-114.315 77.4559 -111.715 76.8415 -108.95 76.8415C-105.471 76.8415 -102.25 77.8163 -99.6272 79.4673C-98.0977 74.3718 -94.1433 70.1285 -88.9171 67.7194C-85.924 66.3458 -82.5213 65.5693 -78.9238 65.5693C-75.3262 65.5693 -71.9235 66.3458 -68.9305 67.7194C-63.7075 70.1297 -59.7498 74.3718 -58.2203 79.4673C-55.5973 77.8175 -52.3796 76.8415 -48.8976 76.8415C-46.1226 76.8415 -43.5227 77.4546 -41.2565 78.5322C-39.4032 76.7523 -37.16 75.2933 -34.6229 74.2616C-31.9338 73.1568 -28.9209 72.5387 -25.7462 72.5387C-22.5715 72.5387 -19.5586 73.1568 -16.8695 74.2616C-13.0638 75.8185 -9.88907 78.3452 -7.75496 81.475C-5.383 80.2476 -2.60802 79.5404 0.361893 79.5404C3.3318 79.5404 6.10681 80.2476 8.49199 81.475C10.6162 78.3464 13.7909 75.8185 17.5966 74.2616C20.2957 73.1568 23.3085 72.5387 26.4832 72.5387C29.658 72.5387 32.6708 73.1568 35.35 74.2616C37.8871 75.2933 40.1303 76.7523 41.9836 78.5322C44.2597 77.4559 46.8596 76.8415 49.6247 76.8415C53.1034 76.8415 56.3112 77.8163 58.9474 79.4586C59.2711 78.4021 59.694 77.3815 60.216 76.4068C61.3227 74.2938 62.882 72.4 64.7782 70.8035C66.2186 69.5884 67.8671 68.548 69.6543 67.7231C72.6341 66.3496 76.0368 65.5693 79.6476 65.5693C83.2584 65.5693 86.6611 66.3496 89.6409 67.7231C91.4281 68.548 93.0766 69.5884 94.5169 70.8035C96.4132 72.4012 97.9758 74.2938 99.0792 76.4068C99.6011 77.3828 100.021 78.4021 100.348 79.4586C102.981 77.8163 106.188 76.8415 109.67 76.8415C112.445 76.8415 115.045 77.4546 117.312 78.5322C119.165 76.7523 121.408 75.2933 123.945 74.2616C126.634 73.1568 129.647 72.5387 132.822 72.5387C135.997 72.5387 139.009 73.1568 141.699 74.2616C145.504 75.8185 148.679 78.3452 150.813 81.475C153.185 80.2476 155.96 79.5404 158.93 79.5404C161.9 79.5404 164.675 80.2476 167.06 81.475C169.184 78.3464 172.359 75.8185 176.165 74.2616C178.864 73.1568 181.877 72.5387 185.051 72.5387C188.226 72.5387 191.239 73.1568 193.918 74.2616C196.455 75.2933 198.698 76.7523 200.552 78.5322C202.828 77.4559 205.428 76.8415 208.193 76.8415C211.671 76.8415 214.892 77.8163 217.515 79.4673C219.045 74.3718 222.999 70.1285 228.226 67.7194C231.219 66.3458 234.621 65.5693 238.219 65.5693C241.816 65.5693 245.222 66.3458 248.212 67.7194C253.435 70.1297 257.393 74.3718 258.922 79.4673C261.545 77.8175 264.763 76.8415 268.245 76.8415C271.02 76.8415 273.62 77.4546 275.886 78.5322C277.74 76.7523 279.983 75.2933 282.52 74.2616C285.209 73.1568 288.222 72.5387 291.396 72.5387C294.571 72.5387 297.584 73.1568 300.273 74.2616C304.079 75.8185 307.254 78.3452 309.388 81.475C311.763 80.2476 314.535 79.5404 317.505 79.5404C320.474 79.5404 323.25 80.2476 325.635 81.475C327.759 78.3464 330.934 75.8185 334.739 74.2616C337.438 73.1568 340.451 72.5387 343.626 72.5387C346.801 72.5387 349.814 73.1568 352.493 74.2616C355.03 75.2933 357.273 76.7523 359.126 78.5322C361.402 77.4559 364.002 76.8415 366.767 76.8415C370.246 76.8415 373.454 77.8163 376.09 79.4586C376.414 78.4021 376.837 77.3815 377.359 76.4068C378.465 74.2938 380.025 72.4 381.921 70.8035C383.361 69.5884 385.01 68.548 386.797 67.7231C389.777 66.3496 393.183 65.5693 396.79 65.5693V49.095C391.23 49.095 386.179 50.9392 382.364 53.9638Z" fill="#FBC5FF"/>
<path opacity="0.5" d="M382.364 14.4173C380.543 15.8639 379.014 17.5781 377.864 19.488C377.104 20.7278 376.51 22.0518 376.087 23.4378C373.454 21.7954 370.246 20.8207 366.764 20.8207C363.999 20.8207 361.399 21.4338 359.123 22.5151C355.297 18.834 349.771 16.5179 343.623 16.5179C335.958 16.5179 329.262 20.106 325.631 25.4579C323.246 24.2268 320.471 23.5195 317.501 23.5195C314.531 23.5195 311.756 24.2268 309.384 25.4579C305.744 20.106 299.044 16.5179 291.393 16.5179C285.239 16.5179 279.708 18.834 275.883 22.5151C273.617 21.4338 271.017 20.8207 268.242 20.8207C264.763 20.8207 261.542 21.7954 258.919 23.4452C256.514 15.4515 248.156 9.54718 238.216 9.54718C228.275 9.54718 219.92 15.4515 217.512 23.4452C214.889 21.7954 211.671 20.8207 208.189 20.8207C205.424 20.8207 202.824 21.4338 200.548 22.5151C196.723 18.834 191.196 16.5179 185.048 16.5179C177.384 16.5179 170.687 20.106 167.057 25.4579C164.672 24.2268 161.897 23.5195 158.927 23.5195C155.957 23.5195 153.182 24.2268 150.81 25.4579C147.169 20.106 140.47 16.5179 132.819 16.5179C126.661 16.5179 121.134 18.834 117.308 22.5151C115.042 21.4338 112.442 20.8207 109.667 20.8207C106.188 20.8207 102.967 21.7954 100.344 23.4452V23.4378C99.9216 22.0518 99.327 20.7278 98.5671 19.488C97.4175 17.5781 95.8912 15.8627 94.0677 14.4173C90.252 11.3939 85.2009 9.54842 79.641 9.54842C74.0811 9.54842 69.0299 11.3927 65.2143 14.4173C63.394 15.8639 61.8644 17.5781 60.7148 19.488C59.955 20.7278 59.3604 22.0518 58.9375 23.4378C56.3046 21.7954 53.0968 20.8207 49.6148 20.8207C46.8498 20.8207 44.2498 21.4338 41.9737 22.5151C38.1481 18.834 32.6212 16.5179 26.4733 16.5179C18.809 16.5179 12.1127 20.106 8.48209 25.4579C6.09691 24.2268 3.3219 23.5195 0.35199 23.5195C-2.61792 23.5195 -5.3929 24.2268 -7.76486 25.4579C-11.4054 20.106 -18.105 16.5179 -25.7561 16.5179C-31.914 16.5179 -37.4408 18.834 -41.2664 22.5151C-43.5326 21.4338 -46.1325 20.8207 -48.9075 20.8207C-52.3862 20.8207 -55.6072 21.7954 -58.2302 23.4452C-60.6352 15.4515 -68.9932 9.54718 -78.9337 9.54718C-88.8741 9.54718 -97.2289 15.4515 -99.6372 23.4452C-102.26 21.7954 -105.478 20.8207 -108.96 20.8207C-111.725 20.8207 -114.325 21.4338 -116.601 22.5151C-120.427 18.834 -125.953 16.5179 -132.101 16.5179C-139.766 16.5179 -146.462 20.106 -150.093 25.4579C-152.478 24.2268 -155.253 23.5195 -158.223 23.5195C-161.193 23.5195 -163.968 24.2268 -166.34 25.4579C-169.98 20.106 -176.68 16.5179 -184.331 16.5179C-190.489 16.5179 -196.015 18.834 -199.841 22.5151C-202.107 21.4338 -204.707 20.8207 -207.482 20.8207C-210.961 20.8207 -214.182 21.7954 -216.805 23.4452V23.4378C-217.228 22.0518 -217.822 20.7278 -218.582 19.488C-219.732 17.5781 -221.258 15.8627 -223.082 14.4173C-226.884 11.3939 -231.935 9.54842 -237.495 9.54842V26.0227C-233.884 26.0227 -230.482 26.803 -227.502 28.1766C-225.715 29.0015 -224.066 30.0419 -222.626 31.2569C-220.73 32.8547 -219.167 34.7472 -218.064 36.8602C-217.542 37.8362 -217.122 38.8556 -216.795 39.9121C-214.162 38.2697 -210.954 37.295 -207.472 37.295C-204.697 37.295 -202.097 37.9081 -199.831 38.9856C-197.978 37.2058 -195.735 35.7467 -193.198 34.715C-190.508 33.6102 -187.496 32.9922 -184.321 32.9922C-181.146 32.9922 -178.133 33.6102 -175.444 34.715C-171.638 36.2719 -168.464 38.7986 -166.33 41.9285C-163.958 40.701 -161.183 39.9938 -158.213 39.9938C-155.243 39.9938 -152.468 40.701 -150.083 41.9285C-147.958 38.7998 -144.784 36.2719 -140.978 34.715C-138.279 33.6102 -135.266 32.9922 -132.091 32.9922C-128.917 32.9922 -125.904 33.6102 -123.225 34.715C-120.688 35.7467 -118.444 37.2058 -116.591 38.9856C-114.315 37.9093 -111.715 37.295 -108.95 37.295C-105.471 37.295 -102.25 38.2697 -99.6272 39.9207C-98.0977 34.8252 -94.1433 30.5819 -88.9171 28.1729C-85.924 26.7993 -82.5213 26.0227 -78.9238 26.0227C-75.3262 26.0227 -71.9235 26.7993 -68.9305 28.1729C-63.7075 30.5831 -59.7498 34.8252 -58.2203 39.9207C-55.5973 38.271 -52.3796 37.295 -48.8976 37.295C-46.1226 37.295 -43.5227 37.9081 -41.2565 38.9856C-39.4032 37.2058 -37.16 35.7467 -34.6229 34.715C-31.9338 33.6102 -28.9209 32.9922 -25.7462 32.9922C-22.5715 32.9922 -19.5586 33.6102 -16.8695 34.715C-13.0638 36.2719 -9.88907 38.7986 -7.75496 41.9285C-5.383 40.701 -2.60802 39.9938 0.361893 39.9938C3.3318 39.9938 6.10681 40.701 8.49199 41.9285C10.6162 38.7998 13.7909 36.2719 17.5966 34.715C20.2957 33.6102 23.3085 32.9922 26.4832 32.9922C29.658 32.9922 32.6708 33.6102 35.35 34.715C37.8871 35.7467 40.1303 37.2058 41.9836 38.9856C44.2597 37.9093 46.8596 37.295 49.6247 37.295C53.1034 37.295 56.3112 38.2697 58.9474 39.9121C59.2711 38.8556 59.694 37.835 60.216 36.8602C61.3227 34.7472 62.882 32.8534 64.7782 31.2569C66.2186 30.0419 67.8671 29.0015 69.6543 28.1766C72.6341 26.803 76.0368 26.0227 79.6476 26.0227C83.2584 26.0227 86.6611 26.803 89.6409 28.1766C91.4281 29.0015 93.0766 30.0419 94.5169 31.2569C96.4132 32.8547 97.9758 34.7472 99.0792 36.8602C99.6011 37.8362 100.021 38.8556 100.348 39.9121C102.981 38.2697 106.188 37.295 109.67 37.295C112.445 37.295 115.045 37.9081 117.312 38.9856C119.165 37.2058 121.408 35.7467 123.945 34.715C126.634 33.6102 129.647 32.9922 132.822 32.9922C135.997 32.9922 139.009 33.6102 141.699 34.715C145.504 36.2719 148.679 38.7986 150.813 41.9285C153.185 40.701 155.96 39.9938 158.93 39.9938C161.9 39.9938 164.675 40.701 167.06 41.9285C169.184 38.7998 172.359 36.2719 176.165 34.715C178.864 33.6102 181.877 32.9922 185.051 32.9922C188.226 32.9922 191.239 33.6102 193.918 34.715C196.455 35.7467 198.698 37.2058 200.552 38.9856C202.828 37.9093 205.428 37.295 208.193 37.295C211.671 37.295 214.892 38.2697 217.515 39.9207C219.045 34.8252 222.999 30.5819 228.226 28.1729C231.219 26.7993 234.621 26.0227 238.219 26.0227C241.816 26.0227 245.222 26.7993 248.212 28.1729C253.435 30.5831 257.393 34.8252 258.922 39.9207C261.545 38.271 264.763 37.295 268.245 37.295C271.02 37.295 273.62 37.9081 275.886 38.9856C277.74 37.2058 279.983 35.7467 282.52 34.715C285.209 33.6102 288.222 32.9922 291.396 32.9922C294.571 32.9922 297.584 33.6102 300.273 34.715C304.079 36.2719 307.254 38.7986 309.388 41.9285C311.763 40.701 314.535 39.9938 317.505 39.9938C320.474 39.9938 323.25 40.701 325.635 41.9285C327.759 38.7998 330.934 36.2719 334.739 34.715C337.438 33.6102 340.451 32.9922 343.626 32.9922C346.801 32.9922 349.814 33.6102 352.493 34.715C355.03 35.7467 357.273 37.2058 359.126 38.9856C361.402 37.9093 364.002 37.295 366.767 37.295C370.246 37.295 373.454 38.2697 376.09 39.9121C376.414 38.8556 376.837 37.835 377.359 36.8602C378.465 34.7472 380.025 32.8534 381.921 31.2569C383.361 30.0419 385.01 29.0015 386.797 28.1766C389.777 26.803 393.183 26.0227 396.79 26.0227V9.54842C391.23 9.54842 386.179 11.3927 382.364 14.4173Z" fill="#FBC5FF"/>
<path opacity="0.5" d="M382.364 -25.1293C380.543 -23.6827 379.014 -21.9685 377.864 -20.0586C377.104 -18.8188 376.51 -17.4947 376.087 -16.1088C373.454 -17.7511 370.246 -18.7259 366.764 -18.7259C363.999 -18.7259 361.399 -18.1128 359.123 -17.0315C355.297 -20.7126 349.771 -23.0287 343.623 -23.0287C335.958 -23.0287 329.262 -19.4405 325.631 -14.0887C323.246 -15.3198 320.471 -16.027 317.501 -16.027C314.531 -16.027 311.756 -15.3198 309.384 -14.0887C305.744 -19.4405 299.044 -23.0287 291.393 -23.0287C285.239 -23.0287 279.708 -20.7126 275.883 -17.0315C273.617 -18.1128 271.017 -18.7259 268.242 -18.7259C264.763 -18.7259 261.542 -17.7511 258.919 -16.1013C256.514 -24.0951 248.156 -29.9994 238.216 -29.9994C228.275 -29.9994 219.92 -24.0951 217.512 -16.1013C214.889 -17.7511 211.671 -18.7259 208.189 -18.7259C205.424 -18.7259 202.824 -18.1128 200.548 -17.0315C196.723 -20.7126 191.196 -23.0287 185.048 -23.0287C177.384 -23.0287 170.687 -19.4405 167.057 -14.0887C164.672 -15.3198 161.897 -16.027 158.927 -16.027C155.957 -16.027 153.182 -15.3198 150.81 -14.0887C147.169 -19.4405 140.47 -23.0287 132.819 -23.0287C126.661 -23.0287 121.134 -20.7126 117.308 -17.0315C115.042 -18.1128 112.442 -18.7259 109.667 -18.7259C106.188 -18.7259 102.967 -17.7511 100.344 -16.1013V-16.1088C99.9216 -17.4947 99.327 -18.8188 98.5671 -20.0586C97.4175 -21.9685 95.8912 -23.6839 94.0677 -25.1293C90.252 -28.1527 85.2009 -29.9982 79.641 -29.9982C74.0811 -29.9982 69.0299 -28.1539 65.2143 -25.1293C63.394 -23.6827 61.8644 -21.9685 60.7148 -20.0586C59.955 -18.8188 59.3604 -17.4947 58.9375 -16.1088C56.3046 -17.7511 53.0968 -18.7259 49.6148 -18.7259C46.8498 -18.7259 44.2498 -18.1128 41.9737 -17.0315C38.1481 -20.7126 32.6212 -23.0287 26.4733 -23.0287C18.809 -23.0287 12.1127 -19.4405 8.48209 -14.0887C6.09691 -15.3198 3.3219 -16.027 0.35199 -16.027C-2.61792 -16.027 -5.3929 -15.3198 -7.76486 -14.0887C-11.4054 -19.4405 -18.105 -23.0287 -25.7561 -23.0287C-31.914 -23.0287 -37.4408 -20.7126 -41.2664 -17.0315C-43.5326 -18.1128 -46.1325 -18.7259 -48.9075 -18.7259C-52.3862 -18.7259 -55.6072 -17.7511 -58.2302 -16.1013C-60.6352 -24.0951 -68.9932 -29.9994 -78.9337 -29.9994C-88.8741 -29.9994 -97.2289 -24.0951 -99.6372 -16.1013C-102.26 -17.7511 -105.478 -18.7259 -108.96 -18.7259C-111.725 -18.7259 -114.325 -18.1128 -116.601 -17.0315C-120.427 -20.7126 -125.953 -23.0287 -132.101 -23.0287C-139.766 -23.0287 -146.462 -19.4405 -150.093 -14.0887C-152.478 -15.3198 -155.253 -16.027 -158.223 -16.027C-161.193 -16.027 -163.968 -15.3198 -166.34 -14.0887C-169.98 -19.4405 -176.68 -23.0287 -184.331 -23.0287C-190.489 -23.0287 -196.015 -20.7126 -199.841 -17.0315C-202.107 -18.1128 -204.707 -18.7259 -207.482 -18.7259C-210.961 -18.7259 -214.182 -17.7511 -216.805 -16.1013V-16.1088C-217.228 -17.4947 -217.822 -18.8188 -218.582 -20.0586C-219.732 -21.9685 -221.258 -23.6839 -223.082 -25.1293C-226.884 -28.1527 -231.935 -29.9982 -237.495 -29.9982V-13.5239C-233.884 -13.5239 -230.482 -12.7436 -227.502 -11.37C-225.715 -10.5451 -224.066 -9.50471 -222.626 -8.28966C-220.73 -6.6919 -219.167 -4.79936 -218.064 -2.68635C-217.542 -1.71036 -217.122 -0.69101 -216.795 0.365494C-214.162 -1.27686 -210.954 -2.25161 -207.472 -2.25161C-204.697 -2.25161 -202.097 -1.63852 -199.831 -0.560961C-197.978 -2.34079 -195.735 -3.79983 -193.198 -4.83156C-190.508 -5.93637 -187.496 -6.55442 -184.321 -6.55442C-181.146 -6.55442 -178.133 -5.93637 -175.444 -4.83156C-171.638 -3.27468 -168.464 -0.747984 -166.33 2.38189C-163.958 1.15447 -161.183 0.447239 -158.213 0.447239C-155.243 0.447239 -152.468 1.15447 -150.083 2.38189C-147.958 -0.746746 -144.784 -3.27468 -140.978 -4.83156C-138.279 -5.93637 -135.266 -6.55442 -132.091 -6.55442C-128.917 -6.55442 -125.904 -5.93637 -123.225 -4.83156C-120.688 -3.79983 -118.444 -2.34079 -116.591 -0.560961C-114.315 -1.63728 -111.715 -2.25161 -108.95 -2.25161C-105.471 -2.25161 -102.25 -1.27686 -99.6272 0.374163C-98.0977 -4.72133 -94.1433 -8.96469 -88.9171 -11.3737C-85.924 -12.7473 -82.5213 -13.5239 -78.9238 -13.5239C-75.3262 -13.5239 -71.9235 -12.7473 -68.9305 -11.3737C-63.7075 -8.96345 -59.7498 -4.72133 -58.2203 0.374163C-55.5973 -1.27562 -52.3796 -2.25161 -48.8976 -2.25161C-46.1226 -2.25161 -43.5227 -1.63852 -41.2565 -0.560961C-39.4032 -2.34079 -37.16 -3.79983 -34.6229 -4.83156C-31.9338 -5.93637 -28.9209 -6.55442 -25.7462 -6.55442C-22.5715 -6.55442 -19.5586 -5.93637 -16.8695 -4.83156C-13.0638 -3.27468 -9.88907 -0.747984 -7.75496 2.38189C-5.383 1.15447 -2.60802 0.447239 0.361893 0.447239C3.3318 0.447239 6.10681 1.15447 8.49199 2.38189C10.6162 -0.746746 13.7909 -3.27468 17.5966 -4.83156C20.2957 -5.93637 23.3085 -6.55442 26.4832 -6.55442C29.658 -6.55442 32.6708 -5.93637 35.35 -4.83156C37.8871 -3.79983 40.1303 -2.34079 41.9836 -0.560961C44.2597 -1.63728 46.8596 -2.25161 49.6247 -2.25161C53.1034 -2.25161 56.3112 -1.27686 58.9474 0.365494C59.2711 -0.69101 59.694 -1.7116 60.216 -2.68635C61.3227 -4.79936 62.882 -6.69314 64.7782 -8.28966C66.2186 -9.50471 67.8671 -10.5451 69.6543 -11.37C72.6341 -12.7436 76.0368 -13.5239 79.6476 -13.5239C83.2584 -13.5239 86.6611 -12.7436 89.6409 -11.37C91.4281 -10.5451 93.0766 -9.50471 94.5169 -8.28966C96.4132 -6.6919 97.9758 -4.79936 99.0792 -2.68635C99.6011 -1.71036 100.021 -0.69101 100.348 0.365494C102.981 -1.27686 106.188 -2.25161 109.67 -2.25161C112.445 -2.25161 115.045 -1.63852 117.312 -0.560961C119.165 -2.34079 121.408 -3.79983 123.945 -4.83156C126.634 -5.93637 129.647 -6.55442 132.822 -6.55442C135.997 -6.55442 139.009 -5.93637 141.699 -4.83156C145.504 -3.27468 148.679 -0.747984 150.813 2.38189C153.185 1.15447 155.96 0.447239 158.93 0.447239C161.9 0.447239 164.675 1.15447 167.06 2.38189C169.184 -0.746746 172.359 -3.27468 176.165 -4.83156C178.864 -5.93637 181.877 -6.55442 185.051 -6.55442C188.226 -6.55442 191.239 -5.93637 193.918 -4.83156C196.455 -3.79983 198.698 -2.34079 200.552 -0.560961C202.828 -1.63728 205.428 -2.25161 208.193 -2.25161C211.671 -2.25161 214.892 -1.27686 217.515 0.374163C219.045 -4.72133 222.999 -8.96469 228.226 -11.3737C231.219 -12.7473 234.621 -13.5239 238.219 -13.5239C241.816 -13.5239 245.222 -12.7473 248.212 -11.3737C253.435 -8.96345 257.393 -4.72133 258.922 0.374163C261.545 -1.27562 264.763 -2.25161 268.245 -2.25161C271.02 -2.25161 273.62 -1.63852 275.886 -0.560961C277.74 -2.34079 279.983 -3.79983 282.52 -4.83156C285.209 -5.93637 288.222 -6.55442 291.396 -6.55442C294.571 -6.55442 297.584 -5.93637 300.273 -4.83156C304.079 -3.27468 307.254 -0.747984 309.388 2.38189C311.763 1.15447 314.535 0.447239 317.505 0.447239C320.474 0.447239 323.25 1.15447 325.635 2.38189C327.759 -0.746746 330.934 -3.27468 334.739 -4.83156C337.438 -5.93637 340.451 -6.55442 343.626 -6.55442C346.801 -6.55442 349.814 -5.93637 352.493 -4.83156C355.03 -3.79983 357.273 -2.34079 359.126 -0.560961C361.402 -1.63728 364.002 -2.25161 366.767 -2.25161C370.246 -2.25161 373.454 -1.27686 376.09 0.365494C376.414 -0.69101 376.837 -1.7116 377.359 -2.68635C378.465 -4.79936 380.025 -6.69314 381.921 -8.28966C383.361 -9.50471 385.01 -10.5451 386.797 -11.37C389.777 -12.7436 393.183 -13.5239 396.79 -13.5239V-29.9982C391.23 -29.9982 386.179 -28.1539 382.364 -25.1293Z" fill="#FBC5FF"/>
</g>
</svg>
