<?xml version="1.0" encoding="UTF-8" standalone="no"?>
<!DOCTYPE svg PUBLIC "-//W3C//DTD SVG 1.1//EN" "http://www.w3.org/Graphics/SVG/1.1/DTD/svg11.dtd">
<svg xmlns="http://www.w3.org/2000/svg" version="1.1" viewBox="0.00 0.00 500.00 500.00" width="500.00px" height="500.00px">
<path fill="#0c443e" d="
  M 381.75 373.86
  Q 370.90 380.11 356.75 381.47
  Q 342.97 382.81 332.14 380.14
  C 331.26 379.92 329.91 380.17 329.09 380.55
  C 323.95 382.92 319.40 384.53 313.62 385.82
  Q 306.84 387.33 299.27 388.95
  Q 286.75 391.63 269.45 391.11
  Q 263.89 390.94 259.34 387.47
  Q 258.57 386.88 257.60 386.94
  Q 240.51 387.99 223.56 386.47
  C 215.84 385.78 207.62 385.54 199.84 384.07
  Q 194.74 383.11 189.77 381.91
  Q 187.46 381.35 185.17 381.84
  C 177.37 383.52 169.40 384.91 161.48 385.22
  Q 146.65 385.80 139.46 373.80
  Q 137.84 371.10 136.27 368.47
  Q 135.64 366.26 135.08 365.43
  Q 128.49 355.52 122.69 344.99
  Q 120.99 341.90 120.98 338.95
  Q 120.97 328.98 128.16 324.03
  Q 131.11 322.00 136.68 321.52
  Q 140.94 321.16 147.76 323.61
  Q 148.44 323.86 149.00 323.40
  L 155.98 317.67
  Q 158.39 315.70 155.31 315.27
  C 145.10 313.83 138.15 304.77 138.38 294.74
  C 138.51 289.42 139.97 284.67 142.78 280.04
  Q 147.39 272.43 152.85 266.61
  A 0.96 0.95 36.8 0 0 152.63 265.13
  Q 143.34 259.64 148.84 250.77
  Q 149.15 250.25 149.02 249.66
  C 148.69 248.21 148.11 246.80 148.07 245.29
  Q 147.80 236.19 151.80 228.34
  A 2.82 2.80 -37.9 0 0 152.04 226.48
  Q 150.81 220.97 150.41 215.49
  Q 150.10 211.27 151.06 204.62
  Q 151.78 199.71 153.59 194.03
  Q 155.81 187.12 157.66 183.29
  Q 166.92 164.12 185.39 149.49
  Q 187.03 148.19 187.60 146.64
  C 188.87 143.17 189.84 139.57 191.25 136.17
  Q 194.64 128.04 198.07 120.55
  Q 200.63 114.96 206.14 107.69
  C 208.96 103.96 213.68 104.21 217.00 107.06
  C 221.59 111.00 226.39 114.83 230.31 119.51
  Q 233.25 123.02 236.14 126.77
  A 1.86 1.84 65.1 0 0 237.97 127.45
  Q 239.45 127.15 241.01 127.06
  Q 256.36 126.27 270.98 129.58
  Q 278.31 131.25 285.24 134.32
  Q 285.76 134.55 286.22 134.20
  C 295.79 126.90 305.50 120.49 316.61 116.48
  C 317.94 116.00 320.77 115.56 322.09 116.08
  Q 325.20 117.29 326.91 121.79
  Q 333.64 139.49 334.05 157.51
  Q 334.25 165.80 333.85 175.27
  Q 333.82 176.01 334.25 176.63
  C 338.04 182.04 341.67 188.75 343.34 195.34
  Q 344.08 198.24 344.70 200.94
  Q 347.16 211.68 345.62 222.53
  A 1.68 1.67 -57.4 0 0 345.86 223.64
  Q 347.83 226.78 350.01 229.86
  Q 358.09 241.28 362.30 251.92
  Q 364.56 257.63 366.81 265.19
  Q 369.01 272.58 370.08 278.20
  Q 376.25 310.66 364.52 342.05
  Q 364.18 342.95 365.08 342.61
  Q 366.60 342.03 368.15 341.38
  C 376.60 337.84 386.00 341.29 389.49 350.08
  Q 392.74 358.23 388.58 365.57
  Q 385.93 370.24 381.75 373.86
  Z"
/>
<path fill="#b1deb9" d="
  M 136.27 368.47
  Q 137.84 371.10 139.46 373.80
  Q 146.65 385.80 161.48 385.22
  C 169.40 384.91 177.37 383.52 185.17 381.84
  Q 187.46 381.35 189.77 381.91
  Q 194.74 383.11 199.84 384.07
  C 207.62 385.54 215.84 385.78 223.56 386.47
  Q 240.51 387.99 257.60 386.94
  Q 258.57 386.88 259.34 387.47
  Q 263.89 390.94 269.45 391.11
  Q 286.75 391.63 299.27 388.95
  Q 306.84 387.33 313.62 385.82
  C 319.40 384.53 323.95 382.92 329.09 380.55
  C 329.91 380.17 331.26 379.92 332.14 380.14
  Q 342.97 382.81 356.75 381.47
  Q 370.90 380.11 381.75 373.86
  Q 387.66 377.59 384.71 381.67
  Q 383.42 383.46 379.49 384.69
  Q 364.65 389.32 349.26 391.56
  Q 333.14 393.91 316.95 395.64
  Q 307.18 396.68 297.02 397.24
  Q 271.59 398.63 261.20 398.72
  Q 239.79 398.91 220.23 397.84
  Q 214.04 397.50 207.90 397.14
  Q 201.50 396.77 195.60 396.18
  Q 187.78 395.40 178.78 394.59
  Q 171.90 393.96 164.25 392.94
  C 159.91 392.36 155.59 391.48 151.27 390.97
  Q 144.28 390.14 138.47 388.72
  Q 131.43 387.01 124.09 384.57
  Q 120.11 383.25 118.49 379.64
  Q 118.28 379.16 118.45 378.66
  Q 119.52 375.53 121.75 374.52
  Q 125.90 372.64 129.97 370.75
  Q 130.68 370.42 133.16 369.96
  Q 134.80 369.66 136.27 368.47
  Z"
/>
<g fill="#ffc4a3">
<path d="
  M 247.87 137.76
  L 254.22 138.10
  Q 254.16 138.39 254.19 138.67
  Q 254.24 139.21 254.06 139.73
  L 248.79 155.03
  Q 247.30 159.35 250.69 156.29
  L 268.50 140.21
  Q 276.68 141.89 284.98 146.34
  Q 286.15 146.96 287.48 146.81
  Q 288.98 148.41 291.14 149.45
  A 0.98 0.98 0.0 0 0 292.42 149.03
  Q 293.01 147.92 293.45 147.73
  Q 297.45 149.36 300.93 151.65
  Q 303.81 153.54 306.87 155.56
  C 303.84 157.36 304.08 160.23 306.44 162.28
  C 314.17 169.01 320.85 175.61 326.04 184.56
  C 331.82 194.51 336.04 204.87 335.46 216.60
  Q 334.75 231.16 323.96 240.28
  C 322.39 241.60 322.26 244.50 323.17 246.04
  C 327.69 253.74 337.75 240.80 340.35 236.78
  A 0.56 0.56 0.0 0 1 341.30 236.79
  Q 350.84 252.06 356.15 268.24
  C 363.39 290.33 363.11 317.15 354.02 338.65
  C 351.12 345.51 346.43 351.41 341.93 357.41
  Q 339.93 360.07 334.09 364.06
  C 316.75 375.93 294.49 380.66 274.11 380.83
  Q 270.44 380.86 267.12 379.73
  C 261.97 377.96 260.58 371.97 257.93 367.87
  Q 251.27 357.58 245.22 346.94
  Q 245.18 340.49 250.84 338.82
  Q 252.17 338.42 254.20 338.64
  Q 255.79 338.80 257.59 338.94
  L 266.26 349.03
  Q 268.90 352.10 272.49 350.24
  Q 273.13 349.91 273.63 349.39
  Q 276.68 346.26 274.04 342.77
  L 269.67 336.99
  A 1.27 1.25 45.7 0 1 269.68 335.45
  Q 278.55 324.17 292.05 322.27
  C 299.08 321.29 296.54 311.85 290.11 312.82
  Q 276.78 314.82 268.30 321.44
  Q 267.38 319.52 266.69 320.38
  Q 269.69 318.21 269.63 315.24
  C 269.53 310.85 266.64 310.14 262.75 310.45
  Q 252.65 311.26 242.27 309.87
  Q 249.36 299.20 244.42 288.33
  Q 243.74 286.84 242.03 284.57
  Q 240.72 282.84 239.45 280.91
  Q 252.63 280.01 263.73 275.66
  Q 268.07 273.96 267.11 269.29
  Q 268.76 268.39 273.29 266.86
  Q 277.18 265.55 282.36 261.72
  C 297.09 250.85 296.48 233.91 285.59 220.67
  Q 283.68 218.35 281.62 215.95
  C 275.97 209.38 268.88 203.66 261.62 198.35
  Q 249.75 189.70 239.08 182.28
  Q 229.33 175.50 218.27 176.51
  Q 209.83 177.28 202.04 180.28
  Q 195.20 182.92 188.05 185.93
  Q 177.64 190.33 167.64 198.19
  Q 165.20 200.11 162.47 202.11
  C 163.78 194.80 168.14 184.39 172.71 178.44
  Q 175.40 174.94 178.11 171.21
  A 0.29 0.29 0.0 0 1 178.62 171.28
  C 179.72 174.25 183.65 174.45 185.44 172.03
  Q 188.61 167.77 194.27 168.63
  C 199.82 169.47 198.24 177.24 202.55 177.33
  C 208.91 177.47 206.65 170.32 204.57 167.29
  Q 198.20 158.00 187.39 161.55
  Q 186.80 161.74 186.32 162.14
  Q 185.92 162.48 185.41 162.56
  Q 184.70 162.66 185.19 162.14
  C 188.36 158.71 192.80 156.61 196.17 153.81
  C 202.27 148.72 209.73 144.98 217.17 142.30
  Q 218.07 145.00 218.79 147.71
  C 219.54 150.59 220.65 153.13 221.84 155.54
  Q 223.12 158.14 223.75 155.31
  L 227.22 139.55
  L 235.07 138.34
  Q 233.83 148.24 234.21 158.14
  A 0.79 0.79 0.0 0 0 234.58 158.77
  Q 235.17 159.12 235.56 158.71
  C 238.63 155.52 239.32 152.04 241.40 148.45
  Q 244.54 143.04 247.87 137.76
  Z"
/>
<path d="
  M 173.96 309.81
  Q 173.14 321.18 173.56 326.75
  Q 174.07 333.57 177.23 342.99
  Q 180.09 351.53 185.62 358.41
  Q 188.17 361.59 193.56 365.90
  Q 197.80 369.30 202.08 372.81
  C 197.55 372.03 193.13 370.58 188.61 370.19
  Q 187.70 370.12 186.79 370.30
  Q 173.58 373.02 161.56 374.30
  C 154.73 375.02 151.96 372.14 148.21 366.49
  Q 141.12 355.83 138.73 351.52
  Q 136.19 346.94 133.79 342.84
  Q 133.67 334.91 140.25 334.03
  Q 141.36 333.88 143.13 334.55
  Q 144.66 335.12 146.11 335.11
  Q 150.11 339.75 154.88 345.49
  C 156.70 347.67 158.93 347.76 161.14 346.05
  Q 164.63 343.35 161.86 339.30
  Q 159.41 335.71 156.55 331.91
  A 1.40 1.40 0.0 0 1 156.64 330.12
  Q 161.80 324.49 167.52 322.51
  C 171.51 321.12 171.29 317.05 168.65 314.36
  Q 168.00 313.70 168.77 313.19
  L 173.96 309.81
  Z"
/>
<path d="
  M 357.34 356.13
  C 362.07 354.63 366.58 352.78 371.09 350.71
  C 374.80 349.00 379.04 351.48 379.90 355.19
  C 381.19 360.73 377.24 364.16 372.59 366.13
  C 364.34 369.60 354.30 370.83 344.88 370.81
  Q 343.16 370.80 344.47 369.69
  Q 351.75 363.50 356.54 356.72
  Q 356.84 356.29 357.34 356.13
  Z"
/>
</g>
<g fill="#fffffd">
<path d="
  M 318.44 131.41
  Q 304.72 136.80 293.45 147.73
  Q 293.01 147.92 292.42 149.03
  A 0.98 0.98 0.0 0 1 291.14 149.45
  Q 288.98 148.41 287.48 146.81
  Q 301.56 134.32 315.25 128.83
  Q 317.23 128.04 318.44 131.41
  Z"
/>
<path d="
  M 247.87 137.76
  Q 244.54 143.04 241.40 148.45
  C 239.32 152.04 238.63 155.52 235.56 158.71
  Q 235.17 159.12 234.58 158.77
  A 0.79 0.79 0.0 0 1 234.21 158.14
  Q 233.83 148.24 235.07 138.34
  L 247.87 137.76
  Z"
/>
<path d="
  M 268.50 140.21
  L 250.69 156.29
  Q 247.30 159.35 248.79 155.03
  L 254.06 139.73
  Q 254.24 139.21 254.19 138.67
  Q 254.16 138.39 254.22 138.10
  Q 261.35 138.26 268.50 140.21
  Z"
/>
<path d="
  M 227.22 139.55
  L 223.75 155.31
  Q 223.12 158.14 221.84 155.54
  C 220.65 153.13 219.54 150.59 218.79 147.71
  Q 218.07 145.00 217.17 142.30
  L 227.22 139.55
  Z"
/>
<path d="
  M 267.11 269.29
  C 265.87 266.76 263.67 265.27 260.87 266.11
  C 244.50 270.98 227.79 271.05 210.86 269.71
  A 0.39 0.39 0.0 0 1 210.51 269.24
  L 212.02 262.11
  A 1.10 1.06 -11.1 0 1 212.51 261.41
  L 213.81 260.60
  A 1.55 1.54 77.7 0 0 214.53 259.47
  C 214.80 257.44 217.59 256.16 218.57 254.09
  Q 221.81 247.20 215.90 242.21
  Q 215.56 241.92 215.56 241.48
  Q 215.56 224.44 201.07 214.96
  Q 192.92 209.62 184.19 209.31
  Q 170.75 208.83 161.56 217.05
  A 0.29 0.29 0.0 0 1 161.07 216.85
  Q 160.46 209.26 162.47 202.11
  Q 165.20 200.11 167.64 198.19
  Q 177.64 190.33 188.05 185.93
  Q 195.20 182.92 202.04 180.28
  Q 209.83 177.28 218.27 176.51
  Q 229.33 175.50 239.08 182.28
  Q 249.75 189.70 261.62 198.35
  C 268.88 203.66 275.97 209.38 281.62 215.95
  Q 283.68 218.35 285.59 220.67
  C 296.48 233.91 297.09 250.85 282.36 261.72
  Q 277.18 265.55 273.29 266.86
  Q 268.76 268.39 267.11 269.29
  Z"
/>
<path d="
  M 202.84 231.03
  Q 200.28 229.41 197.94 227.69
  Q 195.07 225.56 193.28 225.14
  C 186.87 223.65 180.05 223.78 174.24 226.12
  Q 167.45 228.86 163.69 235.47
  Q 159.85 242.22 161.00 250.51
  Q 161.29 250.86 161.13 252.74
  Q 158.40 255.12 154.47 256.54
  Q 155.00 253.74 157.54 252.41
  A 0.79 0.79 0.0 0 0 157.94 251.48
  Q 155.51 243.41 158.27 236.24
  Q 164.44 220.23 181.02 219.12
  Q 195.33 218.16 202.84 231.03
  Z"
/>
<path d="
  M 203.58 268.70
  Q 200.56 269.53 198.29 273.07
  Q 197.93 273.62 198.33 274.14
  L 200.56 276.98
  A 0.72 0.72 0.0 0 1 199.93 278.14
  Q 198.02 277.97 196.80 276.24
  Q 196.46 275.77 196.16 276.26
  Q 194.70 278.64 192.42 280.66
  Q 192.08 280.96 192.43 281.25
  L 197.33 285.33
  L 196.61 290.08
  L 193.16 293.04
  A 1.10 1.09 44.1 0 0 193.19 294.73
  Q 195.10 296.24 196.42 298.58
  L 194.67 306.59
  Q 190.77 308.76 189.00 314.62
  L 187.43 310.53
  L 190.72 306.86
  Q 191.11 306.42 190.74 305.96
  Q 187.56 301.93 184.04 302.65
  L 181.61 296.82
  Q 181.42 296.35 181.61 295.88
  Q 183.81 290.52 182.10 284.48
  Q 183.16 285.11 183.28 285.69
  A 1.02 0.99 -32.7 0 0 185.06 286.05
  L 188.58 281.57
  Q 188.73 281.36 188.55 281.19
  L 184.50 277.27
  A 0.35 0.34 44.3 0 0 184.03 277.27
  Q 181.56 279.64 181.59 282.73
  L 179.23 279.25
  Q 179.59 278.76 180.26 278.73
  Q 180.81 278.71 180.93 278.18
  Q 181.10 277.41 181.77 276.97
  A 0.91 0.90 49.1 0 0 181.87 275.53
  Q 179.10 273.12 176.27 271.69
  Q 175.82 271.46 175.79 270.97
  L 175.65 268.83
  L 178.40 268.32
  L 183.30 273.31
  Q 183.68 273.69 184.03 273.28
  L 187.65 269.03
  Q 188.04 268.57 187.73 268.05
  L 187.14 267.09
  L 191.07 266.35
  Q 192.65 269.83 196.14 271.90
  Q 196.73 272.25 197.03 271.64
  Q 198.00 269.64 200.06 268.30
  Q 200.55 267.98 200.43 267.41
  Q 200.21 266.31 199.23 265.54
  Q 198.86 265.25 199.12 264.87
  Q 199.23 264.71 199.42 264.66
  Q 199.76 264.56 200.09 264.66
  Q 201.76 265.18 202.59 264.44
  Q 205.51 261.77 203.58 268.70
  Z"
/>
<path d="
  M 177.14 276.25
  L 174.10 274.25
  C 175.88 271.87 178.63 273.61 177.14 276.25
  Z"
/>
<path d="
  M 149.31 297.19
  C 146.50 284.73 159.28 275.80 170.10 282.04
  C 173.83 284.19 175.49 289.41 174.20 293.46
  Q 172.19 299.74 167.25 302.64
  C 160.45 306.62 151.24 305.74 149.31 297.19
  Z"
/>
<path d="
  M 239.45 280.91
  Q 240.72 282.84 242.03 284.57
  Q 243.74 286.84 244.42 288.33
  Q 249.36 299.20 242.27 309.87
  Q 227.36 307.94 214.11 300.42
  Q 210.15 298.17 207.90 294.12
  C 205.78 290.32 206.38 284.43 210.31 282.05
  C 213.27 280.26 216.75 280.29 220.25 280.55
  Q 230.08 281.28 239.45 280.91
  Z"
/>
<path d="
  M 266.69 320.38
  Q 267.38 319.52 268.30 321.44
  L 261.56 327.99
  Q 261.20 328.34 260.79 328.04
  C 254.06 323.09 243.06 323.43 237.10 330.27
  Q 230.69 337.62 233.11 346.17
  C 234.37 350.64 237.47 354.46 239.57 358.81
  Q 240.80 361.35 242.44 363.84
  Q 246.53 370.06 250.07 376.22
  Q 250.34 376.69 249.80 376.70
  Q 225.75 377.29 202.08 372.81
  Q 197.80 369.30 193.56 365.90
  Q 188.17 361.59 185.62 358.41
  Q 180.09 351.53 177.23 342.99
  Q 174.07 333.57 173.56 326.75
  Q 173.14 321.18 173.96 309.81
  L 176.89 306.60
  A 0.32 0.32 0.0 0 1 177.43 306.74
  Q 177.98 309.04 179.05 311.23
  Q 183.24 319.76 189.20 330.58
  C 190.57 333.08 193.89 333.18 195.65 331.04
  C 197.58 328.69 197.47 324.44 198.20 321.39
  Q 200.16 313.22 201.73 305.29
  A 0.61 0.60 26.0 0 1 202.72 304.95
  Q 214.24 314.84 229.00 318.59
  Q 247.80 323.35 266.69 320.38
  Z"
/>
<path d="
  M 146.11 335.11
  Q 144.66 335.12 143.13 334.55
  Q 141.36 333.88 140.25 334.03
  Q 133.67 334.91 133.79 342.84
  C 129.93 338.37 131.23 332.64 137.24 331.47
  Q 141.49 330.64 146.11 335.11
  Z"
/>
<path d="
  M 257.59 338.94
  Q 255.79 338.80 254.20 338.64
  Q 252.17 338.42 250.84 338.82
  Q 245.18 340.49 245.22 346.94
  Q 243.53 344.36 243.03 343.25
  C 241.73 340.38 244.36 336.97 246.76 335.70
  C 250.42 333.77 254.90 336.07 257.59 338.94
  Z"
/>
</g>
<path fill="#b1deb9" d="
  M 202.84 231.03
  Q 206.54 237.16 206.55 244.83
  A 1.07 1.06 4.1 0 0 207.47 245.88
  C 210.14 246.25 213.64 248.11 211.93 251.34
  C 209.96 255.06 199.90 255.78 195.97 256.50
  Q 181.36 259.16 166.82 260.96
  C 164.03 261.30 161.18 261.15 158.51 260.67
  Q 155.11 260.06 154.47 256.54
  Q 158.40 255.12 161.13 252.74
  C 164.75 260.70 175.27 250.75 167.58 247.96
  Q 164.07 246.69 161.00 250.51
  Q 159.85 242.22 163.69 235.47
  Q 167.45 228.86 174.24 226.12
  C 180.05 223.78 186.87 223.65 193.28 225.14
  Q 195.07 225.56 197.94 227.69
  Q 200.28 229.41 202.84 231.03
  Z"
/>
<g fill="#ff9b88">
<path d="
  M 202.31 137.12
  Q 201.77 137.37 202.01 136.83
  Q 206.20 127.36 211.23 118.40
  Q 211.95 117.11 213.21 117.89
  Q 215.21 119.13 216.64 120.97
  Q 219.63 124.83 222.71 128.91
  A 0.42 0.41 63.8 0 1 222.49 129.56
  Q 213.10 132.16 202.31 137.12
  Z"
/>
<path d="
  M 318.44 131.41
  C 322.17 141.84 322.94 152.94 322.85 163.97
  A 0.22 0.22 0.0 0 1 322.47 164.13
  C 319.18 160.89 314.45 156.17 310.00 155.10
  Q 308.53 154.75 306.87 155.56
  Q 303.81 153.54 300.93 151.65
  Q 297.45 149.36 293.45 147.73
  Q 304.72 136.80 318.44 131.41
  Z"
/>
</g>
<g fill="#fab07b">
<path d="
  M 202.59 264.44
  Q 201.76 265.18 200.09 264.66
  Q 199.76 264.56 199.42 264.66
  Q 199.23 264.71 199.12 264.87
  Q 198.86 265.25 199.23 265.54
  Q 200.21 266.31 200.43 267.41
  Q 200.55 267.98 200.06 268.30
  Q 198.00 269.64 197.03 271.64
  Q 196.73 272.25 196.14 271.90
  Q 192.65 269.83 191.07 266.35
  L 202.59 264.44
  Z"
/>
<path d="
  M 187.14 267.09
  L 187.73 268.05
  Q 188.04 268.57 187.65 269.03
  L 184.03 273.28
  Q 183.68 273.69 183.30 273.31
  L 178.40 268.32
  L 187.14 267.09
  Z"
/>
<path d="
  M 175.65 268.83
  L 175.79 270.97
  Q 175.82 271.46 176.27 271.69
  Q 179.10 273.12 181.87 275.53
  A 0.91 0.90 49.1 0 1 181.77 276.97
  Q 181.10 277.41 180.93 278.18
  Q 180.81 278.71 180.26 278.73
  Q 179.59 278.76 179.23 279.25
  L 177.14 276.25
  C 178.63 273.61 175.88 271.87 174.10 274.25
  Q 170.62 272.04 166.06 272.06
  A 0.97 0.96 85.6 0 1 165.10 271.23
  L 165.05 270.90
  A 0.54 0.53 82.0 0 1 165.50 270.29
  L 175.65 268.83
  Z"
/>
<path d="
  M 203.58 268.70
  L 202.47 276.74
  Q 202.41 277.22 202.05 277.54
  C 199.11 280.22 197.76 281.51 197.33 285.33
  L 192.43 281.25
  Q 192.08 280.96 192.42 280.66
  Q 194.70 278.64 196.16 276.26
  Q 196.46 275.77 196.80 276.24
  Q 198.02 277.97 199.93 278.14
  A 0.72 0.72 0.0 0 0 200.56 276.98
  L 198.33 274.14
  Q 197.93 273.62 198.29 273.07
  Q 200.56 269.53 203.58 268.70
  Z"
/>
<path d="
  M 182.10 284.48
  L 181.59 282.73
  Q 181.56 279.64 184.03 277.27
  A 0.35 0.34 44.3 0 1 184.50 277.27
  L 188.55 281.19
  Q 188.73 281.36 188.58 281.57
  L 185.06 286.05
  A 1.02 0.99 -32.7 0 1 183.28 285.69
  Q 183.16 285.11 182.10 284.48
  Z"
/>
<path d="
  M 196.61 290.08
  Q 197.52 294.81 196.42 298.58
  Q 195.10 296.24 193.19 294.73
  A 1.10 1.09 44.1 0 1 193.16 293.04
  L 196.61 290.08
  Z"
/>
<path d="
  M 187.43 310.53
  L 184.04 302.65
  Q 187.56 301.93 190.74 305.96
  Q 191.11 306.42 190.72 306.86
  L 187.43 310.53
  Z"
/>
<path d="
  M 194.67 306.59
  L 191.80 319.98
  A 0.19 0.18 -51.2 0 1 191.45 320.02
  L 189.00 314.62
  Q 190.77 308.76 194.67 306.59
  Z"
/>
</g>
<path fill="#08443a" d="
  M 161.13 252.74
  Q 161.29 250.86 161.00 250.51
  Q 164.07 246.69 167.58 247.96
  C 175.27 250.75 164.75 260.70 161.13 252.74
  Z"
/>
<circle fill="#0c443e" cx="200.96" cy="246.26" r="3.92"/>
<circle fill="#fffffd" cx="192.02" cy="229.85" r="3.04"/>
<g fill="#fab07b">
<path d="
  M 194.86 274.49
  L 191.10 279.56
  A 0.35 0.35 0.0 0 1 190.58 279.61
  L 185.91 275.37
  A 0.35 0.35 0.0 0 1 185.86 274.91
  L 189.62 269.84
  A 0.35 0.35 0.0 0 1 190.14 269.79
  L 194.81 274.03
  A 0.35 0.35 0.0 0 1 194.86 274.49
  Z"
/>
<path d="
  M 195.15 287.36
  L 191.13 292.39
  A 0.59 0.59 0.0 0 1 190.29 292.47
  L 186.00 288.78
  A 0.59 0.59 0.0 0 1 185.92 287.97
  L 189.94 282.93
  A 0.59 0.59 0.0 0 1 190.78 282.85
  L 195.07 286.55
  A 0.59 0.59 0.0 0 1 195.15 287.36
  Z"
/>
<path d="
  M 183.33 292.04
  Q 183.25 291.19 183.66 290.54
  A 0.70 0.70 0.0 0 1 184.75 290.42
  L 188.55 294.28
  Q 189.21 294.95 188.57 295.64
  L 185.34 299.12
  Q 184.66 299.84 184.29 298.93
  Q 183.81 297.79 183.07 296.86
  Q 182.76 296.46 182.77 295.96
  Q 182.83 294.47 183.23 293.10
  Q 183.38 292.58 183.33 292.04
  Z"
/>
<path d="
  M 190.43 296.82
  A 0.88 0.88 0.0 0 1 191.66 296.66
  L 194.40 298.78
  A 2.46 2.24 -52.2 0 1 194.66 302.10
  L 194.30 302.56
  A 2.46 2.24 -52.2 0 1 191.02 303.13
  L 188.29 301.01
  A 0.88 0.88 0.0 0 1 188.13 299.77
  L 190.43 296.82
  Z"
/>
</g>
<g fill="#08443a">
<path d="
  M 262.22 183.77
  C 258.74 184.75 257.13 190.97 252.61 188.19
  C 249.30 186.15 252.07 181.98 254.00 180.03
  Q 256.05 177.95 258.75 177.07
  C 268.13 174.03 278.54 177.13 281.47 187.34
  C 282.31 190.28 282.25 195.84 277.28 194.47
  C 275.00 193.84 274.50 190.61 273.42 188.73
  Q 269.42 181.74 262.22 183.77
  Z"
/>
<path d="
  M 224.18 191.39
  A 0.28 0.28 0.0 0 0 223.87 191.69
  C 224.37 198.05 230.71 203.55 236.63 198.55
  Q 237.85 197.52 238.26 195.94
  C 239.63 190.68 246.12 195.06 244.34 200.18
  C 242.35 205.92 236.30 208.69 230.39 208.00
  Q 229.71 207.92 229.56 208.59
  C 228.43 213.87 228.16 217.58 222.19 219.71
  C 218.33 221.08 216.03 220.31 212.63 218.88
  C 207.29 216.62 205.92 210.13 207.75 205.03
  Q 208.08 204.09 207.10 203.89
  Q 202.50 202.96 198.90 198.29
  C 197.08 195.92 196.97 192.61 197.60 189.72
  C 198.39 186.06 204.11 186.67 204.65 190.37
  C 204.84 191.70 204.70 193.41 205.56 194.49
  C 209.75 199.77 216.00 195.58 218.31 191.02
  A 0.73 0.73 0.0 0 0 218.01 190.05
  Q 217.18 189.60 216.41 189.05
  C 213.83 187.18 213.02 183.35 215.88 181.44
  C 218.17 179.91 225.46 182.04 227.76 182.74
  C 230.33 183.52 231.23 186.11 229.81 188.38
  Q 227.69 191.78 224.18 191.39
  Z"
/>
</g>
<path fill="#ff9b88" d="
  M 221.91 211.33
  C 220.94 213.63 218.27 214.91 216.01 213.55
  C 213.02 211.77 213.06 208.89 213.74 205.92
  C 214.33 203.34 216.93 202.34 218.47 200.37
  Q 219.00 199.69 219.38 200.46
  Q 220.74 203.20 222.73 205.48
  Q 223.15 205.96 223.09 206.60
  Q 222.87 209.07 221.91 211.33
  Z"
/>
</svg>
