<?xml version="1.0" encoding="UTF-8" standalone="no"?>
<svg
   width="340.96454"
   height="834.62048"
   viewBox="0 0 340.96454 834.62048"
   fill="none"
   version="1.1"
   id="svg3"
   sodipodi:docname="deco_flower3.svg"
   xml:space="preserve"
   inkscape:version="1.4.2 (f4327f4, 2025-05-13)"
   xmlns:inkscape="http://www.inkscape.org/namespaces/inkscape"
   xmlns:sodipodi="http://sodipodi.sourceforge.net/DTD/sodipodi-0.dtd"
   xmlns="http://www.w3.org/2000/svg"
   xmlns:svg="http://www.w3.org/2000/svg"><defs
     id="defs3" /><sodipodi:namedview
     id="namedview3"
     pagecolor="#ffffff"
     bordercolor="#000000"
     borderopacity="0.25"
     inkscape:showpageshadow="2"
     inkscape:pageopacity="0.0"
     inkscape:pagecheckerboard="0"
     inkscape:deskcolor="#d1d1d1"
     inkscape:zoom="0.95616114"
     inkscape:cx="141.18959"
     inkscape:cy="375.98265"
     inkscape:window-width="1920"
     inkscape:window-height="1009"
     inkscape:window-x="-8"
     inkscape:window-y="-8"
     inkscape:window-maximized="1"
     inkscape:current-layer="svg3" /><path
     d="m 366.79178,76.578493 c -9.439,-35.203 -43.505,-57.242 -77.275,-50.803 -3.596,-4.902 -7.923,-9.228 -12.799,-12.921 -15.964,-11.98110048 -36.735,-15.8262005 -56.983,-10.5246005 -20.904,5.5286 -37.892,20.1316005 -45.451,39.2016005 -2.044,5.232 -3.338,10.593 -3.934,16.1 -32.5315,10.319 -51.2005,44.364997 -42.7874,79.016997 4.3069,17.709 16.3004,34.498 35.2424,43.134 0.053,11.343 3.292,22.452 9.815,32.648 15.928,24.878 48.193,37.505 76.684,30.045 10.408,-2.725 21.007,-8.503 29.455,-17.868 10.966,3.19 22.625,3.357 34.424,0.268 27.771,-7.271 48.928,-31.813 51.436,-59.661 1.149,-12.64 -1.453,-24.682 -7.452,-35.396 11.848,-16.15 14.183,-36.035997 9.622,-53.243997 z m -60.086,49.748997 c 43.332,19.778 25.966,60.688 -1.547,67.892 -13.395,3.507 -29.215,-0.978 -41.561,-19.75 0.685,22.59 -9.541,34.004 -22.318,37.35 -27.153,7.109 -65.833,-22.458 -35.094,-59.172 -57.054,12.755 -62.043,-55.500997 -24.586,-65.308997 7.831,-2.05 17.428,-1.56 28.843,2.714 -19.109,-29.668 -3.119,-51.655 17.323,-57.063 19.679,-5.152 43.519,5.149 44.048,38.918 7.027,-8.064 14.421,-12.623 21.585,-14.499 37.558,-9.834 69.424,53.623997 13.309,68.915997 z"
     fill="#432db6"
     id="path1" /><path
     d="m 293.39678,57.409493 c -7.162,1.875 -14.556,6.432 -21.586,14.498 -0.529,-33.768 -24.366,-44.07 -44.048,-38.917 -20.442,5.407 -36.429,27.394 -17.323,57.062 -11.414,-4.274 -21.011,-4.764 -28.843,-2.713 -37.457,9.807 -32.467,78.062997 24.587,65.307997 -30.742,36.715 7.941,66.282 35.093,59.172 12.778,-3.345 23.004,-14.759 22.318,-37.349 12.347,18.772 28.167,23.256 41.561,19.749 27.514,-7.204 44.881,-48.116 1.548,-67.891 56.115,-15.293 24.249,-78.749997 -13.309,-68.915997 z m -36.209,88.161997 c -12.985,3.4 -26.172,-4.287 -29.543,-17.163 -3.372,-12.875 4.372,-25.988 17.354,-29.386997 12.983,-3.399 26.171,4.284997 29.53,17.110997 3.358,12.827 -4.411,26.053 -17.341,29.439 z"
     fill="#fbc5ff"
     id="path2" /><path
     d="m 274.52878,116.13249 c 3.372,12.876 -4.41,26.053 -17.341,29.439 -12.93,3.385 -26.172,-4.288 -29.543,-17.163 -3.371,-12.875 4.373,-25.988 17.355,-29.386997 12.982,-3.399 26.171,4.284997 29.529,17.110997 z"
     fill="#432db6"
     id="path3" /><g
     style="fill:none"
     id="g3"
     transform="translate(56.61749,465.24704)"><path
       d="m 182.338,34.1273 c 0.395,-1.7557 1.028,-7.7841 -7.372,-11.3614 -0.27,-0.1148 -0.549,-0.2338 -0.843,-0.3472 0.829,-6.621 -1.927,-11.0005 -5.808,-12.65361 -1.137,-0.48408 -2.358,-0.71766 -3.602,-0.70941 -1.244,0.00866 -2.511,0.25898 -3.749,0.76173 -2.096,0.85959 -4.023,2.36359 -5.717,4.47039 -0.169,-0.0837 -0.342,-0.1574 -0.506,-0.2272 -6.84,-2.9128 -11.568,-0.4949 -13.712,2.7487 -1.955,2.9344 -2.434,7.5858 0.803,12.9722 -3.625,3.8612 -4.088,7.4084 -3.938,9.4876 0.255,3.4635 2.355,6.3617 5.63,7.7566 2.514,1.0708 5.517,1.1815 8.775,0.3706 1.66,2.9171 3.812,5.0012 6.335,6.0759 3.237,1.3785 6.764,0.8993 9.425,-1.2877 1.627,-1.3343 3.9,-4.1333 4.186,-9.5078 5.367,-1.2983 9.173,-4.3836 10.093,-8.5494 z m -21.227,13.5295 c -1.985,-0.8451 -4.093,-3.6436 -5.27,-8.4963 -4.348,2.488 -7.846,2.899 -9.841,2.0497 -2.552,-1.0872 -2.657,-4.2351 1.027,-7.7273 0.266,-0.2528 0.561,-0.5168 0.879,-0.782 0.779,-0.6532 1.698,-1.315 2.763,-1.9725 -7.697,-7.5262 -5.708,-13.9616 1.594,-10.852 1.484,0.6318 3.193,1.6687 5.093,3.1654 0.343,-0.8047 0.703,-1.544 1.068,-2.2133 0.173,-0.3268 0.362,-0.6359 0.542,-0.9255 0.171,-0.2937 0.357,-0.5697 0.548,-0.8316 1.109,-1.589 2.273,-2.639 3.367,-3.2038 0.187,-0.0919 0.361,-0.1786 0.545,-0.2374 0.886,-0.3441 1.708,-0.3491 2.411,-0.0495 0.704,0.2996 1.279,0.8992 1.655,1.7809 0.156,0.353 0.273,0.7461 0.36,1.1841 0.128,0.6613 0.168,1.4226 0.118,2.2606 -0.033,0.5585 -0.109,1.167 -0.232,1.8016 -0.127,0.6446 -0.299,1.3156 -0.515,2.0369 -0.225,0.7171 -0.496,1.4602 -0.821,2.2494 2.568,0.4639 4.574,1.0433 6.087,1.6873 2.052,0.8739 3.185,1.872 3.596,2.8594 0.038,0.0964 0.072,0.2026 0.097,0.3048 0.435,1.6511 -1.104,3.2625 -3.751,4.2652 -1.86,0.7077 -4.26,1.1053 -6.923,1.025 1.661,8.3108 -1.219,11.9742 -4.398,10.6204 z"
       fill="#8873e8"
       id="path1-6" /><path
       d="m 172.432,36.0121 c -1.861,0.7077 -4.261,1.1053 -6.924,1.025 1.661,8.3108 -1.219,11.9741 -4.397,10.6203 -1.985,-0.8451 -4.093,-3.6436 -5.27,-8.4963 -4.349,2.488 -7.846,2.899 -9.841,2.0497 -2.552,-1.0871 -2.657,-4.2351 1.027,-7.7273 0.27,-0.2626 0.561,-0.5168 0.879,-0.782 0.779,-0.6532 1.698,-1.315 2.763,-1.9725 -7.697,-7.5262 -5.708,-13.9616 1.594,-10.852 1.483,0.6318 3.193,1.6687 5.093,3.1654 l 0.01,0.0041 c 0.342,-0.8046 0.689,-1.5387 1.058,-2.2174 0.183,-0.3226 0.358,-0.6261 0.542,-0.9255 0.181,-0.2895 0.367,-0.5656 0.548,-0.8316 1.109,-1.589 2.273,-2.639 3.367,-3.2038 0.187,-0.0919 0.37,-0.1744 0.545,-0.2374 0.886,-0.3441 1.708,-0.3491 2.411,-0.0495 0.704,0.2996 1.279,0.8992 1.654,1.7809 0.157,0.353 0.274,0.7461 0.361,1.1841 0.128,0.6613 0.168,1.4226 0.118,2.2606 -0.033,0.5585 -0.109,1.167 -0.232,1.8016 -0.127,0.6446 -0.299,1.3156 -0.515,2.0369 -0.225,0.7171 -0.496,1.4602 -0.821,2.2494 2.568,0.4639 4.574,1.0433 6.087,1.6873 2.052,0.8739 3.185,1.872 3.596,2.8594 0.038,0.0964 0.072,0.2026 0.097,0.3049 0.435,1.651 -1.105,3.2624 -3.751,4.2652 z"
       fill="#b9f5ff"
       id="path2-1" /><path
       d="m 300.148,263.567 c 0.014,-7.866 -3.018,-34.189 -42.26,-41.464 -1.259,-0.234 -2.565,-0.476 -3.924,-0.68 -2.762,-29.037 -18.683,-45.103 -36.817,-48.465 -5.31,-0.985 -10.741,-0.82 -16.04,0.398 -5.299,1.22 -10.469,3.493 -15.274,6.815 -8.126,5.661 -14.915,13.91 -20.139,24.51 -0.802,-0.196 -1.611,-0.346 -2.376,-0.488 -31.952,-5.924 -49.826,8.888 -55.889,24.766 -5.552,14.38 -3.171,34.68 15.76,54.585 -11.792,19.92 -10.397,35.496 -7.78,44.224 4.381,14.536 16.097,24.904 31.398,27.741 11.746,2.178 24.662,-0.205 37.794,-6.763 9.856,10.868 21.016,17.714 32.805,19.9 15.121,2.803 29.714,-2.595 38.989,-14.457 5.671,-7.239 12.708,-21.344 8.817,-44.546 21.665,-10.644 34.97,-27.427 34.936,-46.076 z m -77.705,77.912 c -9.272,-1.719 -20.927,-11.655 -30.564,-31.24 -16.187,14.75 -30.72,19.83 -40.037,18.103 -11.925,-2.211 -15.366,-15.543 -2.969,-33.946 0.897,-1.332 1.903,-2.738 3.007,-4.172 2.702,-3.528 5.994,-7.225 9.913,-11.044 -39.996,-24.792 -37.628,-54.141 -3.517,-47.817 6.93,1.285 15.21,4.084 24.741,8.662 0.697,-3.759 1.531,-7.256 2.452,-10.458 0.428,-1.56 0.939,-3.058 1.433,-4.465 0.449,-1.415 0.98,-2.77 1.546,-4.069 3.22,-7.834 7.19,-13.421 11.319,-16.871 0.711,-0.57 1.369,-1.105 2.101,-1.531 3.454,-2.311 6.953,-3.114 10.24,-2.504 3.287,0.609 6.31,2.621 8.751,6.025 1.005,1.357 1.878,2.923 2.664,4.709 1.175,2.7 2.069,5.911 2.655,9.533 0.389,2.414 0.641,5.084 0.721,7.908 0.073,2.871 -0.023,5.897 -0.258,9.18 -0.281,3.274 -0.731,6.702 -1.365,10.378 11.396,-0.462 20.509,0.102 27.573,1.411 9.586,1.778 15.373,4.958 18.062,8.781 0.256,0.375 0.503,0.795 0.707,1.208 3.424,6.631 -1.612,14.97 -11.948,21.765 -7.266,4.789 -17.128,8.767 -28.566,10.956 14.992,33.88 6.188,52.249 -8.663,49.495 z"
       fill="#8873e8"
       id="path3-4" /><path
       d="m 259.673,281.029 c -7.267,4.789 -17.128,8.767 -28.566,10.957 14.992,33.879 6.187,52.248 -8.663,49.495 -9.271,-1.719 -20.927,-11.654 -30.564,-31.24 -16.187,14.75 -30.72,19.83 -40.037,18.103 -11.925,-2.211 -15.365,-15.543 -2.969,-33.945 0.906,-1.378 1.903,-2.739 3.007,-4.173 2.702,-3.527 5.994,-7.225 9.914,-11.043 -39.997,-24.793 -37.629,-54.142 -3.517,-47.818 6.929,1.285 15.209,4.084 24.74,8.663 l 0.045,0.008 c 0.697,-3.759 1.478,-7.221 2.407,-10.467 0.474,-1.551 0.931,-3.012 1.433,-4.465 0.494,-1.407 1.026,-2.761 1.546,-4.069 3.22,-7.834 7.19,-13.421 11.319,-16.871 0.712,-0.57 1.415,-1.096 2.101,-1.531 3.454,-2.311 6.953,-3.114 10.24,-2.504 3.287,0.609 6.31,2.621 8.751,6.025 1.005,1.358 1.878,2.923 2.664,4.71 1.175,2.7 2.069,5.91 2.656,9.532 0.389,2.415 0.64,5.084 0.72,7.908 0.073,2.871 -0.023,5.897 -0.258,9.18 -0.281,3.274 -0.731,6.702 -1.365,10.378 11.396,-0.462 20.509,0.102 27.573,1.412 9.586,1.777 15.373,4.958 18.062,8.78 0.256,0.375 0.503,0.796 0.707,1.208 3.425,6.631 -1.612,14.97 -11.948,21.765 z"
       fill="#b9f5ff"
       id="path4" /><path
       d="M 128.848,87.9661 C 126.489,83.7659 116.952,70.6381 93.8322,78.564 93.09,78.8184 92.321,79.082 91.5344,79.3818 81.3247,64.7249 67.9988,60.9459 57.3151,64.6085 c -3.1285,1.0725 -5.9759,2.7941 -8.4359,5.0381 -2.4596,2.2451 -4.533,5.013 -6.0965,8.231 -2.6309,5.4641 -3.7701,11.9065 -3.3674,19.1319 -0.4869,0.1368 -0.9635,0.3002 -1.4144,0.4548 -18.8248,6.4537 -23.902,19.7317 -22.359,30.0257 1.3648,9.34 8.7429,19.452 24.8289,24.373 -0.2962,14.173 5.1344,22.061 9.1561,25.929 6.7101,6.435 16.0789,8.441 25.0939,5.35 6.9201,-2.372 13.0925,-7.529 18.1237,-14.978 8.5265,2.831 16.5395,3.125 23.4855,0.744 8.909,-3.054 15.068,-10.324 16.446,-19.441 0.847,-5.568 0.357,-15.209 -8.699,-26.414 8.353,-12.195 10.4,-25.1501 4.771,-35.0869 z m -18.006,64.9359 c -5.462,1.873 -14.6679,0.08 -25.7008,-7.467 -4.1961,12.738 -10.4195,19.82 -15.9087,21.702 -7.0261,2.408 -12.8721,-3.668 -11.7969,-17.213 0.078,-0.981 0.191,-2.034 0.3488,-3.131 0.3798,-2.694 1.023,-5.657 1.9649,-8.873 -28.7931,-1.19 -36.3599,-17.557 -16.2627,-24.447 4.0828,-1.399 9.3411,-2.397 15.8023,-2.823 -0.7593,-2.215 -1.3663,-4.331 -1.8386,-6.316 -0.2407,-0.961 -0.419,-1.914 -0.5788,-2.813 -0.1866,-0.89 -0.3107,-1.772 -0.3995,-2.6352 -0.6396,-5.1474 -0.2035,-9.3219 0.9612,-12.4045 0.2079,-0.518 0.3977,-1.001 0.6597,-1.4485 1.147,-2.2721 2.7722,-3.7529 4.7087,-4.4168 1.9365,-0.6639 4.1541,-0.5004 6.4806,0.5809 0.9441,0.4218 1.8812,0.9941 2.8378,1.7104 1.439,1.0868 2.8817,2.53 4.2844,4.2857 0.9339,1.1708 1.8713,2.5187 2.7637,4.0013 0.9027,1.5091 1.7617,3.1524 2.6244,4.9739 0.8348,1.8311 1.6265,3.795 2.3941,5.9468 5.9395,-3.6755 10.97,-6.1167 15.1321,-7.5435 5.6473,-1.9362 9.6913,-1.9807 12.2753,-0.7507 0.25,0.1229 0.508,0.2728 0.741,0.4315 3.821,2.5065 3.644,8.4697 0.175,15.2037 -2.435,4.741 -6.498,9.83 -11.94,14.439 18.19,13.56 19.02,26.007 10.271,29.006 z"
       fill="#8873e8"
       id="path5" /><path
       d="m 112.513,109.458 c -2.434,4.74 -6.497,9.829 -11.94,14.438 18.19,13.561 19.021,26.007 10.271,29.007 -5.462,1.872 -14.6683,0.08 -25.7011,-7.467 -4.1961,12.737 -10.4195,19.82 -15.9087,21.701 -7.0261,2.409 -12.8722,-3.667 -11.7969,-17.212 0.0687,-1.008 0.191,-2.034 0.3488,-3.131 0.3797,-2.694 1.023,-5.657 1.9649,-8.873 -28.7931,-1.19 -36.3599,-17.557 -16.2627,-24.447 4.0828,-1.4 9.341,-2.398 15.8023,-2.823 l 0.0267,-0.009 c -0.7592,-2.215 -1.3841,-4.296 -1.8654,-6.308 -0.2139,-0.969 -0.4097,-1.886 -0.5787,-2.812 -0.1598,-0.899 -0.2839,-1.7815 -0.3996,-2.6354 -0.6395,-5.1474 -0.2034,-9.3219 0.9613,-12.4045 0.2078,-0.5181 0.4245,-1.0103 0.6597,-1.4486 1.1469,-2.272 2.7722,-3.7529 4.7087,-4.4168 1.9365,-0.6638 4.1541,-0.5003 6.4806,0.5809 0.9441,0.4219 1.8812,0.9942 2.8377,1.7105 1.4391,1.0868 2.8818,2.53 4.2844,4.2857 0.934,1.1708 1.8713,2.5187 2.7637,4.0012 0.9028,1.5091 1.7618,3.1525 2.6245,4.974 0.8348,1.8311 1.6265,3.7949 2.3941,5.947 5.9395,-3.6758 10.97,-6.1169 15.132,-7.5438 5.6477,-1.9361 9.6907,-1.9806 12.2757,-0.7506 0.249,0.1229 0.508,0.2728 0.74,0.4314 3.822,2.5065 3.645,8.47 0.176,15.204 z"
       fill="#b9f5ff"
       id="path6" /></g></svg>
