<svg width="232" height="381" viewBox="0 0 232 381" fill="none" xmlns="http://www.w3.org/2000/svg">
<path d="M182.338 34.1273C182.733 32.3716 183.366 26.3432 174.966 22.7659C174.696 22.6511 174.417 22.5321 174.123 22.4187C174.952 15.7977 172.196 11.4182 168.315 9.76509C167.178 9.28101 165.957 9.04743 164.713 9.05568C163.469 9.06434 162.202 9.31466 160.964 9.81741C158.868 10.677 156.941 12.181 155.247 14.2878C155.078 14.2041 154.905 14.1304 154.741 14.0606C147.901 11.1478 143.173 13.5657 141.029 16.8093C139.074 19.7437 138.595 24.3951 141.832 29.7815C138.207 33.6427 137.744 37.1899 137.894 39.2691C138.149 42.7326 140.249 45.6308 143.524 47.0257C146.038 48.0965 149.041 48.2072 152.299 47.3963C153.959 50.3134 156.111 52.3975 158.634 53.4722C161.871 54.8507 165.398 54.3715 168.059 52.1845C169.686 50.8502 171.959 48.0512 172.245 42.6767C177.612 41.3784 181.418 38.2931 182.338 34.1273ZM161.111 47.6568C159.126 46.8117 157.018 44.0132 155.841 39.1605C151.493 41.6485 147.995 42.0595 146 41.2102C143.448 40.123 143.343 36.9751 147.027 33.4829C147.293 33.2301 147.588 32.9661 147.906 32.7009C148.685 32.0477 149.604 31.3859 150.669 30.7284C142.972 23.2022 144.961 16.7668 152.263 19.8764C153.747 20.5082 155.456 21.5451 157.356 23.0418C157.699 22.2371 158.059 21.4978 158.424 20.8285C158.597 20.5017 158.786 20.1926 158.966 19.903C159.137 19.6093 159.323 19.3333 159.514 19.0714C160.623 17.4824 161.787 16.4324 162.881 15.8676C163.068 15.7757 163.242 15.689 163.426 15.6302C164.312 15.2861 165.134 15.2811 165.837 15.5807C166.541 15.8803 167.116 16.4799 167.492 17.3616C167.648 17.7146 167.765 18.1077 167.852 18.5457C167.98 19.207 168.02 19.9683 167.97 20.8063C167.937 21.3648 167.861 21.9733 167.738 22.6079C167.611 23.2525 167.439 23.9235 167.223 24.6448C166.998 25.3619 166.727 26.105 166.402 26.8942C168.97 27.3581 170.976 27.9375 172.489 28.5815C174.541 29.4554 175.674 30.4535 176.085 31.4409C176.123 31.5373 176.157 31.6435 176.182 31.7457C176.617 33.3968 175.078 35.0082 172.431 36.0109C170.571 36.7186 168.171 37.1162 165.508 37.0359C167.169 45.3467 164.289 49.0101 161.11 47.6563L161.111 47.6568Z" fill="#8873E8"/>
<path d="M172.432 36.0121C170.571 36.7198 168.171 37.1174 165.508 37.0371C167.169 45.3479 164.289 49.0112 161.111 47.6574C159.126 46.8123 157.018 44.0138 155.841 39.1611C151.492 41.6491 147.995 42.0601 146 41.2108C143.448 40.1237 143.343 36.9757 147.027 33.4835C147.297 33.2209 147.588 32.9667 147.906 32.7015C148.685 32.0483 149.604 31.3865 150.669 30.729C142.972 23.2028 144.961 16.7674 152.263 19.877C153.746 20.5088 155.456 21.5457 157.356 23.0424L157.366 23.0465C157.708 22.2419 158.055 21.5078 158.424 20.8291C158.607 20.5065 158.782 20.203 158.966 19.9036C159.147 19.6141 159.333 19.338 159.514 19.072C160.623 17.483 161.787 16.433 162.881 15.8682C163.068 15.7763 163.251 15.6938 163.426 15.6308C164.312 15.2867 165.134 15.2817 165.837 15.5813C166.541 15.8809 167.116 16.4805 167.491 17.3622C167.648 17.7152 167.765 18.1083 167.852 18.5463C167.98 19.2076 168.02 19.9689 167.97 20.8069C167.937 21.3654 167.861 21.9739 167.738 22.6085C167.611 23.2531 167.439 23.9241 167.223 24.6454C166.998 25.3625 166.727 26.1056 166.402 26.8948C168.97 27.3587 170.976 27.9381 172.489 28.5821C174.541 29.456 175.674 30.4541 176.085 31.4415C176.123 31.5379 176.157 31.6441 176.182 31.7464C176.617 33.3974 175.077 35.0088 172.431 36.0116L172.432 36.0121Z" fill="#B9F5FF"/>
<path d="M300.148 263.567C300.162 255.701 297.13 229.378 257.888 222.103C256.629 221.869 255.323 221.627 253.964 221.423C251.202 192.386 235.281 176.32 217.147 172.958C211.837 171.973 206.406 172.138 201.107 173.356C195.808 174.576 190.638 176.849 185.833 180.171C177.707 185.832 170.918 194.081 165.694 204.681C164.892 204.485 164.083 204.335 163.318 204.193C131.366 198.269 113.492 213.081 107.429 228.959C101.877 243.339 104.258 263.639 123.189 283.544C111.397 303.464 112.792 319.04 115.409 327.768C119.79 342.304 131.506 352.672 146.807 355.509C158.553 357.687 171.469 355.304 184.601 348.746C194.457 359.614 205.617 366.46 217.406 368.646C232.527 371.449 247.12 366.051 256.395 354.189C262.066 346.95 269.103 332.845 265.212 309.643C286.877 298.999 300.182 282.216 300.148 263.567ZM222.443 341.479C213.171 339.76 201.516 329.824 191.879 310.239C175.692 324.989 161.159 330.069 151.842 328.342C139.917 326.131 136.476 312.799 148.873 294.396C149.77 293.064 150.776 291.658 151.88 290.224C154.582 286.696 157.874 282.999 161.793 279.18C121.797 254.388 124.165 225.039 158.276 231.363C165.206 232.648 173.486 235.447 183.017 240.025C183.714 236.266 184.548 232.769 185.469 229.567C185.897 228.007 186.408 226.509 186.902 225.102C187.351 223.687 187.882 222.332 188.448 221.033C191.668 213.199 195.638 207.612 199.767 204.162C200.478 203.592 201.136 203.057 201.868 202.631C205.322 200.32 208.821 199.517 212.108 200.127C215.395 200.736 218.418 202.748 220.859 206.152C221.864 207.509 222.737 209.075 223.523 210.861C224.698 213.561 225.592 216.772 226.178 220.394C226.567 222.808 226.819 225.478 226.899 228.302C226.972 231.173 226.876 234.199 226.641 237.482C226.36 240.756 225.91 244.184 225.276 247.86C236.672 247.398 245.785 247.962 252.849 249.271C262.435 251.049 268.222 254.229 270.911 258.052C271.167 258.427 271.414 258.847 271.618 259.26C275.042 265.891 270.006 274.23 259.67 281.025C252.404 285.814 242.542 289.792 231.104 291.981C246.096 325.861 237.292 344.23 222.441 341.476L222.443 341.479Z" fill="#8873E8"/>
<path d="M259.673 281.029C252.406 285.818 242.545 289.796 231.107 291.986C246.099 325.865 237.294 344.234 222.444 341.481C213.173 339.762 201.517 329.827 191.88 310.241C175.693 324.991 161.16 330.071 151.843 328.344C139.918 326.133 136.478 312.801 148.874 294.399C149.78 293.021 150.777 291.66 151.881 290.226C154.583 286.699 157.875 283.001 161.795 279.183C121.798 254.39 124.166 225.041 158.278 231.365C165.207 232.65 173.487 235.449 183.018 240.028L183.063 240.036C183.76 236.277 184.541 232.815 185.47 229.569C185.944 228.018 186.401 226.557 186.903 225.104C187.397 223.697 187.929 222.343 188.449 221.035C191.669 213.201 195.639 207.614 199.768 204.164C200.48 203.594 201.183 203.068 201.869 202.633C205.323 200.322 208.822 199.519 212.109 200.129C215.396 200.738 218.419 202.75 220.86 206.154C221.865 207.512 222.738 209.077 223.524 210.864C224.699 213.564 225.593 216.774 226.18 220.396C226.569 222.811 226.82 225.48 226.9 228.304C226.973 231.175 226.877 234.201 226.642 237.484C226.361 240.758 225.911 244.186 225.277 247.862C236.673 247.4 245.786 247.964 252.85 249.274C262.436 251.051 268.223 254.232 270.912 258.054C271.168 258.429 271.415 258.85 271.619 259.262C275.044 265.893 270.007 274.232 259.671 281.027L259.673 281.029Z" fill="#B9F5FF"/>
<path d="M128.848 87.9661C126.489 83.7659 116.952 70.6381 93.8322 78.564C93.09 78.8184 92.321 79.082 91.5344 79.3818C81.3247 64.7249 67.9988 60.9459 57.3151 64.6085C54.1866 65.681 51.3392 67.4026 48.8792 69.6466C46.4196 71.8917 44.3462 74.6596 42.7827 77.8776C40.1518 83.3417 39.0126 89.7841 39.4153 97.0095C38.9284 97.1463 38.4518 97.3097 38.0009 97.4643C19.1761 103.918 14.0989 117.196 15.6419 127.49C17.0067 136.83 24.3848 146.942 40.4708 151.863C40.1746 166.036 45.6052 173.924 49.6269 177.792C56.337 184.227 65.7058 186.233 74.7208 183.142C81.6409 180.77 87.8133 175.613 92.8445 168.164C101.371 170.995 109.384 171.289 116.33 168.908C125.239 165.854 131.398 158.584 132.776 149.467C133.623 143.899 133.133 134.258 124.077 123.053C132.43 110.858 134.477 97.9029 128.848 87.9661ZM110.842 152.902C105.38 154.775 96.1741 152.982 85.1412 145.435C80.9451 158.173 74.7217 165.255 69.2325 167.137C62.2064 169.545 56.3604 163.469 57.4356 149.924C57.5136 148.943 57.6266 147.89 57.7844 146.793C58.1642 144.099 58.8074 141.136 59.7493 137.92C30.9562 136.73 23.3894 120.363 43.4866 113.473C47.5694 112.074 52.8277 111.076 59.2889 110.65C58.5296 108.435 57.9226 106.319 57.4503 104.334C57.2096 103.373 57.0313 102.42 56.8715 101.521C56.6849 100.631 56.5608 99.749 56.472 98.8858C55.8324 93.7384 56.2685 89.5639 57.4332 86.4813C57.6411 85.9633 57.8309 85.4803 58.0929 85.0328C59.2399 82.7607 60.8651 81.2799 62.8016 80.616C64.7381 79.9521 66.9557 80.1156 69.2822 81.1969C70.2263 81.6187 71.1634 82.191 72.12 82.9073C73.559 83.9941 75.0017 85.4373 76.4044 87.193C77.3383 88.3638 78.2757 89.7117 79.1681 91.1943C80.0708 92.7034 80.9298 94.3467 81.7925 96.1682C82.6273 97.9993 83.419 99.9632 84.1866 102.115C90.1261 98.4395 95.1566 95.9983 99.3187 94.5715C104.966 92.6353 109.01 92.5908 111.594 93.8208C111.844 93.9437 112.102 94.0936 112.335 94.2523C116.156 96.7588 115.979 102.722 112.51 109.456C110.075 114.197 106.012 119.286 100.57 123.895C118.76 137.455 119.59 149.902 110.841 152.901L110.842 152.902Z" fill="#8873E8"/>
<path d="M112.513 109.458C110.079 114.198 106.016 119.287 100.573 123.896C118.763 137.457 119.594 149.903 110.844 152.903C105.382 154.775 96.1757 152.983 85.1429 145.436C80.9468 158.173 74.7234 165.256 69.2342 167.137C62.2081 169.546 56.362 163.47 57.4373 149.925C57.506 148.917 57.6283 147.891 57.7861 146.794C58.1658 144.1 58.8091 141.137 59.751 137.921C30.9579 136.731 23.3911 120.364 43.4883 113.474C47.5711 112.074 52.8293 111.076 59.2906 110.651L59.3173 110.642C58.5581 108.427 57.9332 106.346 57.4519 104.334C57.238 103.365 57.0422 102.448 56.8732 101.522C56.7134 100.623 56.5893 99.7405 56.4736 98.8866C55.8341 93.7392 56.2702 89.5647 57.4349 86.4821C57.6427 85.964 57.8594 85.4718 58.0946 85.0335C59.2415 82.7615 60.8668 81.2806 62.8033 80.6167C64.7398 79.9529 66.9574 80.1164 69.2839 81.1976C70.228 81.6195 71.1651 82.1918 72.1216 82.9081C73.5607 83.9949 75.0034 85.4381 76.406 87.1938C77.34 88.3646 78.2773 89.7125 79.1697 91.195C80.0725 92.7041 80.9315 94.3475 81.7942 96.169C82.629 98.0001 83.4207 99.9639 84.1883 102.116C90.1278 98.4402 95.1583 95.9991 99.3203 94.5722C104.968 92.6361 109.011 92.5916 111.596 93.8216C111.845 93.9445 112.104 94.0944 112.336 94.253C116.158 96.7595 115.981 102.723 112.512 109.457L112.513 109.458Z" fill="#B9F5FF"/>
</svg>
