<svg width="230" height="344" viewBox="0 0 230 344" fill="none" xmlns="http://www.w3.org/2000/svg">
<path d="M192.291 203.086C204.637 163.829 185.543 122.184 149.47 107.849C149.015 100.999 147.515 94.2556 145.108 87.7824C137.163 66.6917 119.706 50.4385 97.2035 43.2159C73.9386 35.8117 48.9028 39.4264 30.1425 53.0115C25.0246 56.7569 20.5423 61.079 16.6364 65.9644C-20.6096 56.076 -59.0311 77.1934 -72.0205 115.304C-78.652 134.785 -77.4031 158.049 -64.5926 177.757C-71.4177 188.596 -75.066 201.141 -75.0315 214.809C-74.9376 248.163 -51.8546 279.749 -20.1904 289.913C-8.62347 293.625 4.97552 294.545 18.6996 290.745C27.2136 300.43 38.219 307.657 51.3317 311.866C82.1943 321.772 117.226 311.217 136.494 286.207C145.251 274.863 150.072 261.813 150.85 247.971C171.927 239.766 186.205 222.238 192.29 203.08L192.291 203.086ZM104.895 214.059C134.187 259.165 92.8466 287.611 62.2696 277.797C47.3832 273.019 35.0308 259.158 34.6478 233.791C21.6079 255.727 4.94741 260.402 -9.25251 255.844C-39.4287 246.158 -58.3552 194.545 -6.81764 178.202C-68.9011 155.77 -32.2813 87.7224 9.34643 101.084C18.0498 103.877 26.8956 110.161 35.1788 121.151C34.958 81.3058 63.5179 70.0521 86.2692 77.2915C108.14 84.3114 124.606 108.575 104.642 141.065C116.224 137.644 126.031 137.782 133.993 140.338C175.734 153.735 167.626 233.502 104.899 214.057L104.895 214.059Z" fill="#432DB6"/>
<path d="M133.991 140.337C126.031 137.782 116.225 137.641 104.639 141.064C124.604 108.575 108.14 84.3114 86.2664 77.2906C63.5151 70.0512 34.9579 81.3058 35.176 121.151C26.8928 110.16 18.047 103.876 9.34367 101.083C-32.2841 87.7215 -68.9039 155.77 -6.82041 178.201C-58.3606 194.543 -39.4314 246.157 -9.25528 255.843C4.94465 260.401 21.6052 255.726 34.6451 233.79C35.028 259.157 47.3805 273.018 62.2668 277.796C92.8438 287.61 134.188 259.163 104.893 214.058C167.62 233.503 175.728 153.736 133.987 140.338L133.991 140.337ZM46.0574 202.376C31.6269 197.744 23.7237 182.428 28.3165 168.119C32.9093 153.809 48.2342 146.012 62.6621 150.643C77.09 155.273 84.9966 170.588 80.4213 184.843C75.8461 199.097 60.4276 206.988 46.0574 202.376Z" fill="#FBC5FF"/>
<path d="M80.421 184.843C75.8283 199.152 60.4273 206.988 46.0571 202.376C31.6869 197.763 23.7234 182.428 28.3162 168.119C32.909 153.81 48.2339 146.012 62.6618 150.643C77.0896 155.274 84.9963 170.588 80.421 184.843Z" fill="#432DB6"/>
</svg>
