<svg width="202" height="523" viewBox="0 0 202 523" fill="none" xmlns="http://www.w3.org/2000/svg">
<g filter="url(#filter0_d_2035_808)">
<path d="M148.722 180.51C162.552 152.004 152.763 118.161 126.978 103.211C127.409 97.9455 127.033 92.6434 125.938 87.4458C122.291 70.4997 110.869 56.1722 94.5888 48.1555C77.7503 39.9152 58.3172 39.8658 42.5226 48.1094C38.2094 50.3882 34.3137 53.1772 30.7921 56.4596C3.61166 44.7635 -27.976 56.5417 -42.1652 84.1031C-49.412 98.1929 -51.0996 116.044 -43.5993 132.482C-50.0137 139.97 -54.2077 149.113 -55.7305 159.523C-59.4393 184.927 -45.4797 211.557 -22.5716 222.838C-14.2033 226.959 -3.97447 229.181 6.88441 227.823C12.256 236.15 19.7994 242.883 29.286 247.555C51.614 258.55 79.4287 254.434 96.9042 237.55C104.843 229.892 109.986 220.497 112.146 210.045C129.091 206.157 141.927 194.41 148.722 180.505L148.722 180.51ZM81.071 179.084C98.2158 216.703 63.5797 233.735 41.4582 222.841C30.6884 217.538 22.8735 205.603 25.4574 186.247C13.0631 201.488 -0.126183 203.183 -10.3994 198.124C-32.2308 187.374 -40.7625 145.961 0.250263 139.286C-44.3812 115.261 -8.84369 67.551 21.2727 82.3813C27.5693 85.4819 33.5785 91.2561 38.6268 100.55C42.975 70.1896 65.9515 64.8176 82.4185 72.8749C98.2414 80.6667 108.003 100.982 89.1511 123.484C98.3398 122.175 105.776 123.378 111.536 126.214C141.734 141.085 126.533 200.907 81.0739 179.084L81.071 179.084Z" fill="#8873E8"/>
<path d="M111.533 126.213C105.775 123.378 98.3398 122.173 89.1483 123.483C108.001 100.982 98.2406 80.6669 82.4157 72.8742C65.9487 64.8168 42.9741 70.1898 38.6241 100.549C33.5757 91.2554 27.5665 85.4812 21.2699 82.3806C-8.84648 67.5503 -44.384 115.26 0.247479 139.285C-40.7672 145.96 -32.2336 187.373 -10.4022 198.124C-0.128967 203.183 13.0603 201.488 25.4546 186.246C22.8707 205.602 30.6857 217.537 41.4554 222.84C63.5769 233.734 98.2158 216.702 81.0683 179.084C126.527 200.907 141.728 141.085 111.53 126.214L111.533 126.213ZM37.6866 163.607C27.2466 158.466 22.9773 145.92 28.0888 135.54C33.2003 125.16 45.7287 120.938 56.1667 126.078C66.6048 131.218 70.877 143.763 65.785 154.103C60.6929 164.444 48.083 168.726 37.6866 163.607Z" fill="#B9F5FF"/>
<path d="M65.7846 154.103C60.6731 164.483 48.0827 168.726 37.6863 163.606C27.2899 158.487 22.977 145.92 28.0885 135.54C33.2 125.16 45.7283 120.938 56.1664 126.078C66.6045 131.218 70.8767 143.763 65.7846 154.103Z" fill="#8873E8"/>
<path d="M169.989 319.979C176.461 315.648 178.584 307.254 174.969 300.882C175.714 299.818 176.293 298.647 176.705 297.408C178.035 293.361 177.39 288.904 174.931 285.182C172.382 281.345 168.265 278.922 163.891 278.711C162.694 278.659 161.521 278.767 160.367 279.026C156.052 273.172 147.889 271.75 141.458 275.836C138.172 277.926 135.599 281.503 135.15 285.921C132.86 286.714 130.835 288.133 129.221 290.152C125.281 295.081 124.937 302.463 128.397 307.7C129.661 309.612 131.555 311.353 134.027 312.413C134.133 314.846 134.898 317.211 136.331 319.379C139.703 324.483 146.114 327.061 151.917 325.648C154.552 325.009 156.809 323.654 158.564 321.705C162.641 322.983 166.822 322.084 169.989 319.978L169.989 319.979ZM155.814 311.28C154.782 321.389 145.321 320.703 141.98 315.647C140.354 313.185 140.177 309.683 143.127 305.898C138.606 307.593 135.598 306.316 134.046 303.967C130.749 298.977 134.079 289.133 143.608 292.807C137.121 282.171 150.582 276.46 155.13 283.344C156.081 284.783 156.639 286.754 156.557 289.352C161.247 283.451 166.788 285.163 169.281 288.916C171.671 292.533 171.221 298.054 164.429 300.488C166.541 301.351 167.969 302.529 168.839 303.845C173.399 310.748 162.75 321.552 155.815 311.281L155.814 311.28Z" fill="#8873E8"/>
<path d="M168.838 303.845C167.969 302.529 166.541 301.35 164.428 300.487C171.22 298.054 171.671 292.533 169.281 288.916C166.788 285.163 161.247 283.451 156.556 289.352C156.639 286.754 156.08 284.783 155.13 283.344C150.581 276.46 137.121 282.171 143.607 292.806C134.078 289.132 130.749 298.977 134.046 303.967C135.597 306.315 138.606 307.592 143.127 305.897C140.176 309.683 140.353 313.185 141.98 315.646C145.32 320.703 154.783 321.388 155.814 311.28C162.749 321.551 173.398 310.747 168.837 303.845L168.838 303.845ZM148.531 302.612C146.955 300.226 147.606 297.035 149.979 295.467C152.351 293.9 155.533 294.559 157.109 296.945C158.686 299.331 158.035 302.522 155.672 304.084C153.308 305.645 150.102 304.989 148.531 302.612Z" fill="#B9F5FF"/>
<path d="M155.673 304.084C153.3 305.651 150.102 304.989 148.532 302.612C146.962 300.236 147.607 297.035 149.979 295.467C152.352 293.9 155.534 294.559 157.11 296.945C158.687 299.331 158.036 302.522 155.673 304.084Z" fill="#8873E8"/>
<path d="M97.9209 475.484C112.487 471.299 121.405 457.002 118.488 443.047C120.5 441.518 122.267 439.691 123.767 437.64C128.634 430.927 130.084 422.284 127.736 413.928C125.29 405.301 119.098 398.368 111.117 395.38C108.928 394.573 106.691 394.077 104.397 393.873C99.876 380.461 85.5911 372.98 71.2471 376.736C63.9164 378.658 57.0233 383.761 53.5684 391.683C48.8537 391.792 44.2591 393.22 40.0673 396.004C29.8399 402.801 24.8208 416.278 28.1247 428.037C29.3317 432.332 31.8089 436.683 35.7617 440.114C34.5141 444.687 34.5275 449.523 35.8957 454.393C39.116 465.853 49.4681 474.439 61.0616 475.265C66.3239 475.644 71.3112 474.472 75.7217 471.902C82.5195 476.691 90.8021 477.507 97.9226 475.483L97.9209 475.484ZM76.8134 450.949C68.9009 469.071 51.7721 462.184 48.5817 450.829C47.0284 445.301 48.7797 438.706 56.4949 433.442C47.1097 433.9 42.2924 429.746 40.8107 424.473C37.662 413.268 49.6769 396.999 65.157 409.465C59.4485 385.902 87.7853 383.308 92.1288 398.766C93.0369 401.998 92.9016 405.982 91.2064 410.749C103.402 402.596 112.656 409.058 115.049 417.494C117.331 425.615 113.219 435.581 99.186 436.06C102.588 438.913 104.536 441.944 105.366 444.9C109.722 460.4 83.571 474.103 76.8146 450.949L76.8134 450.949Z" fill="#8873E8"/>
<path d="M105.366 444.899C104.536 441.943 102.589 438.912 99.186 436.058C113.219 435.579 117.331 425.615 115.049 417.492C112.656 409.056 103.403 402.595 91.2064 410.747C92.9016 405.98 93.0369 401.997 92.1288 398.765C87.7853 383.306 59.4485 385.9 65.157 409.463C49.6766 396.996 37.662 413.266 40.8107 424.472C42.2923 429.745 47.1097 433.898 56.4949 433.44C48.7797 438.704 47.0284 445.3 48.5817 450.828C51.7721 462.182 68.9021 469.07 76.8134 450.947C83.5698 474.101 109.72 460.398 105.365 444.898L105.366 444.899ZM68.4618 430.56C66.956 425.202 70.0574 419.674 75.3854 418.177C80.7133 416.68 86.219 419.79 87.7244 425.148C89.2299 430.506 86.1297 436.034 80.8221 437.526C75.5145 439.017 69.9612 435.897 68.4618 430.56Z" fill="#B9F5FF"/>
<path d="M80.8219 437.525C75.494 439.022 69.961 435.896 68.4616 430.56C66.9621 425.224 70.0572 419.674 75.3852 418.176C80.7131 416.679 86.2188 419.79 87.7242 425.148C89.2297 430.505 86.1296 436.034 80.8219 437.525Z" fill="#8873E8"/>
</g>
<defs>
<filter id="filter0_d_2035_808" x="-56.3252" y="41.9509" width="237.708" height="440.567" filterUnits="userSpaceOnUse" color-interpolation-filters="sRGB">
<feFlood flood-opacity="0" result="BackgroundImageFix"/>
<feColorMatrix in="SourceAlpha" type="matrix" values="0 0 0 0 0 0 0 0 0 0 0 0 0 0 0 0 0 0 127 0" result="hardAlpha"/>
<feOffset dx="2" dy="4"/>
<feGaussianBlur stdDeviation="1"/>
<feColorMatrix type="matrix" values="0 0 0 0 0 0 0 0 0 0 0 0 0 0 0 0 0 0 0.25 0"/>
<feBlend mode="normal" in2="BackgroundImageFix" result="effect1_dropShadow_2035_808"/>
<feBlend mode="normal" in="SourceGraphic" in2="effect1_dropShadow_2035_808" result="shape"/>
</filter>
</defs>
</svg>
