<svg width="228" height="394" viewBox="0 0 228 394" fill="none" xmlns="http://www.w3.org/2000/svg">
<path d="M92.4239 197.391C97.3197 191.234 111.288 168.718 85.0456 138.648C84.2032 137.683 83.3303 136.683 82.392 135.679C98.257 111.202 95.7528 88.723 83.6264 74.8279C80.0753 70.7589 75.7162 67.5154 70.8062 65.1797C65.8947 62.8453 60.4311 61.4172 54.6011 61.0377C44.7169 60.4295 34.2733 62.6801 23.5968 67.7449C23.0897 67.093 22.5487 66.4732 22.0369 65.8867C0.669873 41.4033 -22.5382 41.9153 -37.1503 50.5963C-50.4315 58.4201 -61.1704 75.8117 -58.691 103.169C-80.3039 111.462 -88.8809 124.537 -92.2502 133.004C-97.8418 147.118 -95.0963 162.52 -84.8638 174.245C-77.0092 183.245 -65.4051 189.398 -51.0392 192.411C-50.0617 207.05 -45.5651 219.346 -37.6814 228.38C-27.5692 239.967 -12.7789 244.796 1.85679 241.258C10.7974 239.104 25.0718 232.419 36.4294 211.815C60.0202 216.925 80.8709 212.031 92.4239 197.391ZM-16.864 210.212C-23.0641 203.108 -26.0309 188.083 -21.4235 166.747C-43.2709 168.258 -57.8173 163.215 -64.0477 156.076C-72.0227 146.938 -66.4411 134.352 -45.297 127.624C-43.7663 127.137 -42.1047 126.659 -40.3487 126.221C-36.0407 125.134 -31.1642 124.279 -25.721 123.72C-41.6783 79.4506 -21.5971 57.9156 1.21411 84.0539C5.84832 89.364 10.6003 96.699 15.228 106.206C18.1084 103.692 20.9339 101.469 23.6447 99.5308C24.9484 98.5746 26.2794 97.7173 27.5402 96.9213C28.7707 96.0904 30.0284 95.3585 31.2787 94.6918C38.6672 90.5504 45.248 88.6355 50.6272 88.4954C51.5386 88.4902 52.3861 88.4794 53.2243 88.5995C57.3669 88.9326 60.6083 90.4767 62.8063 92.9953C65.0043 95.5139 66.1248 98.9678 65.9246 103.152C65.8691 104.84 65.5816 106.61 65.0884 108.498C64.3326 111.344 63.0402 114.415 61.2506 117.619C60.0563 119.753 58.5963 122.002 56.9051 124.265C55.18 126.561 53.225 128.873 51.0029 131.301C48.749 133.692 46.268 136.101 43.488 138.588C52.708 145.302 59.5014 151.403 64.2256 156.816C70.6359 164.161 73.1969 170.248 72.931 174.914C72.8988 175.366 72.8316 175.85 72.7352 176.299C71.3022 183.624 62.1764 187.033 49.8551 185.941C41.1858 185.183 30.9856 182.178 20.6602 176.792C11.3743 212.658 -6.93286 221.589 -16.8639 210.21L-16.864 210.212Z" fill="#8873E8"/>
<path d="M49.8546 185.947C41.1853 185.188 30.9851 182.184 20.6597 176.798C11.3738 212.663 -6.93334 221.595 -16.8643 210.215C-23.0644 203.111 -26.0312 188.086 -21.4238 166.75C-43.2712 168.26 -57.8176 163.218 -64.048 156.079C-72.023 146.941 -66.4414 134.355 -45.2973 127.627C-43.7316 127.109 -42.105 126.662 -40.349 126.224C-36.041 125.136 -31.1645 124.282 -25.7213 123.723C-41.6786 79.4533 -21.5974 57.9184 1.21382 84.0567C5.84803 89.3668 10.6 96.7018 15.2277 106.209L15.2581 106.244C18.1385 103.73 20.9 101.502 23.6444 99.5336C24.9785 98.6122 26.244 97.7507 27.54 96.924C28.8008 96.128 30.0585 95.3961 31.2784 94.6946C38.6669 90.5532 45.2477 88.6382 50.6269 88.4982C51.5383 88.493 52.4162 88.517 53.224 88.6023C57.3666 88.9354 60.608 90.4795 62.806 92.9981C65.004 95.5167 66.1245 98.9706 65.9243 103.155C65.8688 104.843 65.5813 106.613 65.0881 108.501C64.3323 111.347 63.0399 114.418 61.2503 117.622C60.056 119.756 58.596 122.004 56.9048 124.268C55.1797 126.564 53.2247 128.876 51.0026 131.304C48.7487 133.695 46.2677 136.103 43.4878 138.591C52.7077 145.305 59.5011 151.405 64.2253 156.819C70.6356 164.164 73.1966 170.25 72.9307 174.917C72.8985 175.369 72.8313 175.852 72.7349 176.302C71.3019 183.626 62.1761 187.036 49.8548 185.944L49.8546 185.947Z" fill="#B9F5FF"/>
<path d="M212.533 275.549C213.219 270.781 213.647 254.56 190.481 246.77C189.738 246.52 188.967 246.261 188.161 246.02C188.986 228.176 180.716 217.065 170.011 213.465C166.876 212.411 163.569 212.043 160.251 212.325C156.933 212.609 153.603 213.542 150.404 215.143C144.99 217.875 140.163 222.292 136.083 228.269C135.614 228.081 135.136 227.92 134.684 227.768C115.822 221.426 103.71 228.867 98.6662 237.972C94.0616 246.213 93.7576 258.726 103.522 272.425C94.6567 283.487 94.1621 293.051 94.9968 298.568C96.4015 307.759 102.612 315.054 111.645 318.091C118.579 320.423 126.616 320.09 135.142 317.245C140.183 324.682 146.359 329.795 153.319 332.135C162.246 335.137 171.558 333.12 178.203 326.727C182.265 322.825 187.746 314.88 187.385 300.477C201.437 295.889 210.949 286.859 212.533 275.549ZM158.712 316.097C153.239 314.256 147.027 307.229 142.871 294.524C131.786 302.074 122.537 303.903 117.037 302.053C109.997 299.686 109.059 291.306 118.16 281.216C118.819 280.486 119.549 279.719 120.342 278.945C122.284 277.039 124.598 275.08 127.304 273.103C105.188 254.627 109.151 237.036 129.288 243.808C133.379 245.183 138.158 247.593 143.543 251.19C144.289 248.971 145.096 246.923 145.93 245.06C146.324 244.152 146.763 243.287 147.184 242.477C147.577 241.657 148.016 240.881 148.471 240.143C151.098 235.67 153.986 232.624 156.787 230.888C157.267 230.604 157.712 230.336 158.192 230.141C160.485 229.037 162.676 228.851 164.617 229.504C166.557 230.156 168.217 231.636 169.404 233.911C169.896 234.82 170.291 235.845 170.613 236.995C171.093 238.734 171.359 240.757 171.402 243.004C171.43 244.501 171.353 246.141 171.159 247.86C170.956 249.607 170.637 251.434 170.212 253.404C169.759 255.365 169.191 257.405 168.49 259.579C175.44 260.28 180.917 261.406 185.087 262.809C190.746 264.712 193.981 267.138 195.282 269.688C195.405 269.937 195.518 270.213 195.606 270.481C197.112 274.796 193.34 279.419 186.488 282.648C181.67 284.926 175.349 286.489 168.225 286.832C174.398 308.664 167.478 319.043 158.711 316.095L158.712 316.097Z" fill="#8873E8"/>
<path d="M186.49 282.651C181.672 284.929 175.351 286.492 168.227 286.835C174.4 308.667 167.48 319.046 158.713 316.098C153.24 314.258 147.029 307.23 142.872 294.526C131.788 302.075 122.539 303.904 117.038 302.055C109.998 299.687 109.06 291.308 118.161 281.217C118.829 280.46 119.551 279.721 120.344 278.947C122.285 277.041 124.6 275.082 127.305 273.104C105.189 254.629 109.152 237.038 129.29 243.809C133.381 245.185 138.16 247.595 143.544 251.192L143.571 251.201C144.317 248.982 145.089 246.95 145.931 245.062C146.352 244.162 146.755 243.316 147.185 242.478C147.605 241.668 148.044 240.892 148.473 240.144C151.099 235.672 153.987 232.626 156.788 230.889C157.268 230.605 157.74 230.347 158.193 230.142C160.486 229.038 162.677 228.853 164.618 229.505C166.558 230.158 168.218 231.638 169.405 233.912C169.897 234.822 170.292 235.846 170.614 236.997C171.094 238.735 171.36 240.758 171.404 243.005C171.432 244.503 171.354 246.143 171.16 247.862C170.957 249.609 170.638 251.435 170.213 253.406C169.76 255.366 169.193 257.406 168.491 259.581C175.441 260.281 180.918 261.408 185.088 262.81C190.747 264.713 193.982 267.14 195.283 269.689C195.406 269.938 195.52 270.215 195.608 270.482C197.113 274.798 193.342 279.42 186.49 282.65L186.49 282.651Z" fill="#B9F5FF"/>
<path d="M86.1992 353.699C85.3311 352.123 81.8099 347.189 73.1487 350.077C72.8707 350.17 72.5826 350.266 72.2878 350.375C68.5201 344.868 63.5542 343.415 59.5519 344.749C58.3799 345.14 57.3108 345.774 56.3848 346.605C55.459 347.436 54.6758 348.463 54.0816 349.66C53.0817 351.693 52.6359 354.096 52.7636 356.796C52.5813 356.846 52.4027 356.905 52.2338 356.962C45.1816 359.313 43.2433 364.257 43.7873 368.107C44.2678 371.6 46.992 375.401 52.9854 377.29C52.8301 382.583 54.8339 385.546 56.324 387.004C58.8103 389.429 62.3037 390.208 65.6809 389.082C68.2733 388.217 70.5952 386.31 72.498 383.543C75.6743 384.628 78.6664 384.763 81.2684 383.895C84.6059 382.782 86.9295 380.086 87.4731 376.685C87.8068 374.608 87.6542 371.005 84.3064 366.791C87.4652 362.262 88.2707 357.429 86.1992 353.699ZM79.269 377.899C77.2227 378.581 73.7895 377.883 69.6919 375.029C68.0845 379.774 65.7375 382.4 63.6811 383.085C61.049 383.963 58.8843 381.675 59.3286 376.619C59.3608 376.253 59.4063 375.86 59.4687 375.45C59.619 374.445 59.8686 373.34 60.2306 372.142C49.4788 371.607 46.7038 365.469 54.2326 362.959C55.7621 362.449 57.7295 362.093 60.1444 361.954C59.8677 361.124 59.6476 360.332 59.4774 359.589C59.3905 359.229 59.3269 358.873 59.2701 358.536C59.2032 358.203 59.1596 357.873 59.1291 357.551C58.9064 355.626 59.0824 354.068 59.5272 352.92C59.6065 352.727 59.6789 352.547 59.7782 352.381C60.2137 351.536 60.8255 350.988 61.551 350.746C62.2764 350.504 63.1043 350.572 63.9699 350.983C64.3213 351.144 64.6695 351.361 65.0246 351.631C65.5587 352.042 66.0931 352.585 66.6115 353.246C66.9567 353.686 67.3026 354.192 67.6313 354.749C67.9638 355.315 68.2795 355.932 68.596 356.615C68.9021 357.302 69.1916 358.038 69.4716 358.844C71.7018 357.49 73.5886 356.594 75.1478 356.074C77.2636 355.368 78.7741 355.364 79.7357 355.832C79.8284 355.879 79.9244 355.935 80.0109 355.995C81.4306 356.944 81.3456 359.171 80.0286 361.675C79.1042 363.438 77.5705 365.327 75.5231 367.031C82.2751 372.154 82.5462 376.806 79.2685 377.899L79.269 377.899Z" fill="#8873E8"/>
<path d="M80.0304 361.676C79.106 363.439 77.5723 365.327 75.5249 367.032C82.2769 372.154 82.548 376.806 79.2703 377.899C77.2239 378.582 73.7907 377.883 69.6932 375.029C68.0857 379.774 65.7387 382.4 63.6823 383.086C61.0502 383.963 58.8855 381.675 59.3298 376.619C59.3586 376.243 59.4076 375.86 59.4699 375.451C59.6203 374.445 59.8699 373.341 60.2318 372.142C49.4801 371.607 46.705 365.47 54.2339 362.959C55.7634 362.449 57.7307 362.093 60.1456 361.954L60.1556 361.951C59.879 361.121 59.6521 360.342 59.4787 359.589C59.4018 359.226 59.3315 358.883 59.2713 358.537C59.2145 358.2 59.1709 357.87 59.1303 357.551C58.9076 355.626 59.0837 354.068 59.5284 352.92C59.6077 352.727 59.6902 352.544 59.7794 352.381C60.215 351.536 60.8267 350.988 61.5522 350.746C62.2777 350.504 63.1055 350.572 63.9712 350.984C64.3225 351.144 64.6708 351.361 65.0258 351.631C65.5599 352.042 66.0943 352.586 66.6128 353.246C66.958 353.686 67.3038 354.193 67.6325 354.749C67.965 355.316 68.2807 355.932 68.5972 356.615C68.9033 357.302 69.1929 358.038 69.4728 358.844C71.7031 357.49 73.5898 356.594 75.1491 356.074C77.2648 355.369 78.7754 355.365 79.7369 355.832C79.8296 355.879 79.9257 355.936 80.0121 355.996C81.4318 356.944 81.3469 359.171 80.0299 361.676L80.0304 361.676Z" fill="#B9F5FF"/>
</svg>
