<?xml version="1.0" encoding="UTF-8" standalone="no"?>
<svg
   width="1441"
   height="81"
   viewBox="0 0 1441 81"
   fill="none"
   version="1.1"
   id="svg3"
   sodipodi:docname="div_stars.svg"
   inkscape:version="1.4.2 (f4327f4, 2025-05-13)"
   xmlns:inkscape="http://www.inkscape.org/namespaces/inkscape"
   xmlns:sodipodi="http://sodipodi.sourceforge.net/DTD/sodipodi-0.dtd"
   xmlns="http://www.w3.org/2000/svg"
   xmlns:svg="http://www.w3.org/2000/svg">
  <sodipodi:namedview
     id="namedview3"
     pagecolor="#ffffff"
     bordercolor="#000000"
     borderopacity="0.25"
     inkscape:showpageshadow="2"
     inkscape:pageopacity="0.0"
     inkscape:pagecheckerboard="0"
     inkscape:deskcolor="#d1d1d1"
     inkscape:zoom="0.30811936"
     inkscape:cx="-652.34459"
     inkscape:cy="809.75113"
     inkscape:window-width="1920"
     inkscape:window-height="1009"
     inkscape:window-x="-8"
     inkscape:window-y="-8"
     inkscape:window-maximized="1"
     inkscape:current-layer="svg3" />
  <rect
     x="-22.145758"
     y="-2.9408686"
     width="1516.7397"
     height="95.630783"
     fill="#8873e8"
     id="rect1"
     style="stroke-width:1.09964" />
  <g
     filter="url(#filter0_d_2123_675)"
     id="g1"
     transform="matrix(0.93290758,0,0,1,50.489124,-3.2454977)">
    <path
       d="m 1182.34,53.2729 c -0.16,-1.7617 1.49,-2.8786 2.96,-2.5361 0.46,0.1071 0.9,0.3578 1.26,0.7744 l 2.15,2.4551 3.01,-1.2539 c 0.51,-0.2131 1.02,-0.2408 1.48,-0.1338 1.47,0.3434 2.45,2.0707 1.54,3.582 l -1.69,2.7657 2.15,2.4472 c 1.54,1.7552 -0.08,4.4197 -2.36,3.8887 l -3.19,-0.7422 -1.68,2.7656 c -0.61,0.9895 -1.67,1.3098 -2.62,1.0899 -0.94,-0.22 -1.76,-0.9792 -1.86,-2.1328 l -0.29,-3.2246 -3.18,-0.7422 c -2.28,-0.5314 -2.56,-3.6375 -0.4,-4.5322 l 3,-1.2481 z m 187.74,0 c -0.16,-1.7617 1.48,-2.8785 2.95,-2.5361 0.46,0.107 0.91,0.3578 1.27,0.7744 l 2.15,2.4551 3.01,-1.2539 c 0.51,-0.2131 1.02,-0.2408 1.48,-0.1338 1.47,0.3436 2.45,2.0708 1.53,3.582 l -1.68,2.7657 2.14,2.4472 c 1.55,1.7553 -0.08,4.4199 -2.36,3.8887 l -3.18,-0.7422 -1.68,2.7656 c -0.61,0.9896 -1.67,1.3099 -2.62,1.0899 -0.94,-0.22 -1.76,-0.9792 -1.86,-2.1328 l -0.29,-3.2246 -3.18,-0.7422 c -2.28,-0.5312 -2.56,-3.6375 -0.41,-4.5322 l 3.01,-1.2481 z M 48.2998,53.272 c -0.1583,-1.7617 1.4869,-2.8784 2.957,-2.5362 0.4596,0.1071 0.9089,0.3576 1.2696,0.7745 l 2.1484,2.455 3.0059,-1.2539 c 0.5136,-0.2131 1.0209,-0.2408 1.4804,-0.1338 1.474,0.3435 2.4535,2.0708 1.5371,3.5821 l -1.6836,2.7656 2.1436,2.4473 c 1.5413,1.7551 -0.0803,4.4193 -2.3603,3.8886 l -3.1846,-0.7422 -1.6826,2.7657 c -0.6042,0.9896 -1.6708,1.3098 -2.6153,1.0898 -0.9442,-0.2201 -1.7624,-0.9793 -1.8633,-2.1328 l -0.288,-3.2246 -3.1836,-0.7422 c -2.2803,-0.5312 -2.5568,-3.6374 -0.4043,-4.5322 l 3.0049,-1.2481 z m 187.7372,0 c -0.158,-1.7618 1.488,-2.8786 2.958,-2.5362 0.46,0.1071 0.908,0.3578 1.269,0.7745 l 2.148,2.455 3.006,-1.2539 c 0.513,-0.2131 1.021,-0.2407 1.48,-0.1338 1.475,0.3434 2.454,2.0707 1.538,3.5821 l -1.683,2.7656 2.143,2.4473 c 1.542,1.7552 -0.081,4.4197 -2.361,3.8886 l -3.183,-0.7422 -1.684,2.7657 c -0.604,0.9894 -1.67,1.3097 -2.614,1.0898 -0.945,-0.22 -1.764,-0.9792 -1.865,-2.1328 l -0.287,-3.2246 -3.184,-0.7422 c -2.28,-0.5314 -2.556,-3.6375 -0.404,-4.5322 l 3.005,-1.2481 z m 187.715,-10e-4 c -0.158,-1.7616 1.488,-2.8776 2.958,-2.5352 0.459,0.1071 0.908,0.3578 1.269,0.7745 l 2.148,2.455 3.006,-1.2539 c 0.513,-0.2131 1.021,-0.2417 1.48,-0.1347 1.474,0.3433 2.454,2.0716 1.537,3.583 l -1.682,2.7656 2.143,2.4473 c 1.542,1.7552 -0.081,4.4188 -2.361,3.8877 l -3.184,-0.7413 -1.683,2.7657 c -0.604,0.9893 -1.67,1.3088 -2.614,1.0888 -0.945,-0.22 -1.764,-0.979 -1.865,-2.1328 l -0.287,-3.2246 -3.184,-0.7412 c -2.28,-0.5314 -2.556,-3.6375 -0.404,-4.5322 l 3.005,-1.2481 z m 187.737,0 c -0.158,-1.7615 1.488,-2.8776 2.958,-2.5352 0.46,0.1071 0.909,0.3576 1.27,0.7745 l 2.147,2.455 3.007,-1.2539 c 0.514,-0.2131 1.021,-0.2418 1.481,-0.1347 1.474,0.3434 2.452,2.0716 1.536,3.583 l -1.683,2.7656 2.144,2.4473 c 1.541,1.7552 -0.081,4.4188 -2.362,3.8877 l -3.183,-0.7413 -1.683,2.7657 c -0.604,0.9895 -1.671,1.3088 -2.615,1.0888 -0.944,-0.2201 -1.763,-0.9791 -1.863,-2.1328 l -0.289,-3.2246 -3.183,-0.7412 c -2.28,-0.5312 -2.557,-3.6375 -0.404,-4.5322 l 3.004,-1.2481 z m 195.386,10e-4 c -0.158,-1.7616 1.487,-2.8783 2.957,-2.5362 0.46,0.1071 0.909,0.3577 1.27,0.7745 l 2.148,2.455 3.006,-1.2539 c 0.513,-0.2131 1.021,-0.2408 1.48,-0.1338 1.474,0.3434 2.454,2.0707 1.537,3.5821 l -1.683,2.7656 2.144,2.4473 c 1.542,1.7551 -0.081,4.4194 -2.361,3.8886 l -3.185,-0.7422 -1.682,2.7657 c -0.604,0.9894 -1.67,1.3096 -2.614,1.0898 -0.945,-0.22 -1.764,-0.9792 -1.865,-2.1328 l -0.288,-3.2246 -3.183,-0.7422 c -2.28,-0.5312 -2.557,-3.6374 -0.405,-4.5322 l 3.005,-1.2481 z m 187.737,0 c -0.158,-1.7618 1.488,-2.8786 2.958,-2.5362 0.46,0.1071 0.908,0.3578 1.269,0.7745 l 2.151,2.455 3,-1.2539 c 0.52,-0.2131 1.03,-0.2408 1.48,-0.1338 1.48,0.3437 2.46,2.0709 1.54,3.5821 l -1.68,2.7656 2.14,2.4473 c 1.54,1.7552 -0.08,4.4198 -2.36,3.8886 l -3.18,-0.7422 -1.69,2.7657 c -0.601,0.9894 -1.667,1.3098 -2.611,1.0898 -0.944,-0.22 -1.764,-0.9792 -1.864,-2.1328 l -0.287,-3.2246 -3.185,-0.7422 c -2.28,-0.5315 -2.556,-3.6376 -0.403,-4.5322 l 3.005,-1.2481 z M 1208,16.7632 c 2.4,-1.3803 5.57,-1.3962 8.03,0.8056 l 6.87,6.1426 8.06,-4.6533 c 5.78,-3.3331 12.39,2.5854 9.66,8.6338 l -3.82,8.4414 6.86,6.1514 c 3.76,3.3538 2.51,8.8763 -1.21,11.0254 -1.16,0.6717 -2.58,1.0238 -4.15,0.8593 l -9.24,-0.9209 -3.81,8.4561 c -0.65,1.4424 -1.65,2.4875 -2.81,3.1592 -3.73,2.1547 -9.13,0.4691 -10.17,-4.4561 l -1.88,-9.0234 -9.22,-0.9151 c -6.62,-0.649 -8.43,-9.3426 -2.66,-12.6757 l 8.06,-4.6543 -1.88,-9.0235 c -0.67,-3.2324 0.92,-5.972 3.31,-7.3525 z m 187.74,0 c 2.39,-1.3805 5.57,-1.3961 8.03,0.8056 l 6.87,6.1426 8.06,-4.6533 c 5.77,-3.3332 12.39,2.5854 9.66,8.6338 l -3.82,8.4414 6.86,6.1514 c 3.76,3.3537 2.51,8.8761 -1.21,11.0254 -1.17,0.6717 -2.59,1.0238 -4.15,0.8593 l -9.24,-0.9209 -3.81,8.4561 c -0.65,1.4423 -1.65,2.4874 -2.81,3.1592 -3.74,2.1547 -9.13,0.4691 -10.17,-4.4561 l -1.88,-9.0234 -9.22,-0.9151 c -6.62,-0.6487 -8.43,-9.3425 -2.66,-12.6757 l 8.06,-4.6543 -1.88,-9.0235 c -0.67,-3.2324 0.92,-5.972 3.31,-7.3525 z M 73.9658,16.7622 c 2.3912,-1.3805 5.5708,-1.3964 8.0254,0.8057 l 6.8721,6.1425 8.0615,-4.6533 c 5.7732,-3.3329 12.3912,2.5854 9.6582,8.6338 l -3.816,8.4414 6.858,6.1514 c 3.757,3.3538 2.508,8.8762 -1.214,11.0254 -1.163,0.6717 -2.584,1.0247 -4.144,0.8603 l -9.2426,-0.9218 -3.8086,8.456 c -0.6527,1.4423 -1.653,2.4875 -2.8164,3.1592 -3.7321,2.1548 -9.1292,0.4691 -10.165,-4.4561 l -1.8838,-9.0234 -9.2188,-0.915 c -6.6193,-0.6488 -8.431,-9.3425 -2.6582,-12.6758 l 8.0616,-4.6543 -1.8838,-9.0235 c -0.6698,-3.2323 0.9234,-5.972 3.3144,-7.3525 z m 187.7372,0 c 2.391,-1.3803 5.57,-1.3962 8.025,0.8057 l 6.873,6.1425 8.06,-4.6533 c 5.773,-3.3331 12.392,2.5854 9.659,8.6338 l -3.817,8.4414 6.858,6.1514 c 3.758,3.3539 2.509,8.8763 -1.214,11.0254 -1.163,0.6717 -2.583,1.0248 -4.144,0.8603 l -9.242,-0.9218 -3.808,8.456 c -0.653,1.4425 -1.654,2.4874 -2.817,3.1592 -3.732,2.1547 -9.129,0.4691 -10.165,-4.4561 l -1.883,-9.0234 -9.22,-0.915 c -6.619,-0.6492 -8.43,-9.3427 -2.657,-12.6758 l 8.06,-4.6543 -1.882,-9.0235 c -0.67,-3.2324 0.923,-5.972 3.314,-7.3525 z m 187.716,0 c 2.391,-1.3803 5.57,-1.3962 8.024,0.8057 l 6.873,6.1425 8.061,-4.6533 c 5.773,-3.3331 12.392,2.5854 9.659,8.6338 l -3.817,8.4414 6.858,6.1514 c 3.757,3.3539 2.509,8.8763 -1.214,11.0254 -1.163,0.6717 -2.583,1.0248 -4.144,0.8603 l -9.242,-0.9218 -3.808,8.456 c -0.653,1.4425 -1.654,2.4874 -2.817,3.1592 -3.733,2.1547 -9.13,0.469 -10.165,-4.4561 l -1.883,-9.0234 -9.22,-0.915 c -6.619,-0.6492 -8.43,-9.3427 -2.657,-12.6758 l 8.06,-4.6543 -1.883,-9.0235 c -0.669,-3.2324 0.924,-5.972 3.315,-7.3525 z m 187.737,0 c 2.391,-1.3805 5.571,-1.3964 8.026,0.8057 l 6.872,6.1425 8.061,-4.6533 c 5.773,-3.3328 12.391,2.5855 9.658,8.6338 l -3.816,8.4414 6.857,6.1514 c 3.758,3.3538 2.51,8.8761 -1.212,11.0254 -1.164,0.6717 -2.585,1.0248 -4.146,0.8603 l -9.241,-0.9218 -3.809,8.456 c -0.652,1.4423 -1.653,2.4874 -2.816,3.1592 -3.732,2.1548 -9.129,0.4691 -10.165,-4.4561 l -1.884,-9.0234 -9.219,-0.915 c -6.619,-0.6488 -8.431,-9.3425 -2.658,-12.6758 l 8.062,-4.6543 -1.884,-9.0235 c -0.67,-3.2324 0.923,-5.972 3.314,-7.3525 z m 195.385,0 c 2.391,-1.3805 5.571,-1.3964 8.025,0.8057 l 6.872,6.1425 8.062,-4.6533 c 5.773,-3.3331 12.391,2.5854 9.658,8.6338 l -3.816,8.4414 6.858,6.1514 c 3.757,3.3538 2.508,8.8763 -1.214,11.0254 -1.163,0.6717 -2.583,1.0247 -4.144,0.8603 l -9.242,-0.9218 -3.809,8.456 c -0.653,1.4424 -1.653,2.4875 -2.816,3.1592 -3.733,2.1548 -9.13,0.4691 -10.165,-4.4561 l -1.884,-9.0234 -9.219,-0.915 c -6.619,-0.6489 -8.431,-9.3425 -2.658,-12.6758 l 8.061,-4.6543 -1.883,-9.0235 c -0.67,-3.2323 0.923,-5.972 3.314,-7.3525 z m 187.739,0 c 2.39,-1.3804 5.57,-1.3961 8.02,0.8057 l 6.88,6.1425 8.06,-4.6533 c 5.77,-3.3331 12.39,2.5854 9.66,8.6338 l -3.82,8.4414 6.86,6.1514 c 3.75,3.3539 2.51,8.8763 -1.22,11.0254 -1.16,0.6717 -2.58,1.0248 -4.14,0.8603 l -9.24,-0.9218 -3.81,8.456 c -0.65,1.4425 -1.65,2.4874 -2.82,3.1592 -3.73,2.1546 -9.13,0.469 -10.16,-4.4561 l -1.89,-9.0234 -9.21,-0.915 c -6.62,-0.6488 -8.44,-9.3426 -2.66,-12.6758 l 8.06,-4.6543 -1.89,-9.0235 c -0.66,-3.2324 0.93,-5.972 3.32,-7.3525 z M -10.1016,16.2495 c 3.73219,-2.1547 9.129283,-0.4691 10.1650766,4.4561 L 1.94727,29.728 11.166,30.644 c 6.6192,0.6491 8.4304,9.3427 2.6572,12.6758 l -8.0605,4.6543 1.88378,9.0235 c 0.66974,3.2323 -0.92436,5.972 -3.31543,7.3525 -2.39105,1.3803 -5.56994,1.3962 -8.02441,-0.8057 l -6.87304,-6.1425 -8.0606,4.6533 c -5.7731,3.3331 -12.3918,-2.5855 -9.6591,-8.6338 l 3.8173,-8.4414 -6.8583,-6.1514 c -3.7572,-3.3538 -2.5084,-8.8763 1.2138,-11.0254 1.1635,-0.6717 2.5838,-1.0248 4.1445,-0.8603 l 9.2422,0.9218 3.8086,-8.456 c 0.6528,-1.4424 1.653,-2.4875 2.8164,-3.1592 z m 187.7386,0 c 3.732,-2.1547 9.129,-0.4691 10.165,4.4561 l 1.884,9.0224 9.218,0.916 c 6.62,0.6488 8.431,9.3425 2.658,12.6758 l -8.061,4.6543 1.884,9.0235 c 0.67,3.2324 -0.924,5.972 -3.315,7.3525 -2.391,1.3805 -5.57,1.3964 -8.025,-0.8057 l -6.872,-6.1425 -8.062,4.6533 c -5.773,3.3328 -12.391,-2.5855 -9.658,-8.6338 l 3.817,-8.4414 -6.858,-6.1514 c -3.757,-3.3538 -2.509,-8.8761 1.213,-11.0254 1.164,-0.6717 2.585,-1.0248 4.146,-0.8603 l 9.241,0.9218 3.808,-8.456 c 0.653,-1.4423 1.653,-2.4874 2.817,-3.1592 z m 570.838,0 c 3.732,-2.1547 9.129,-0.4691 10.165,4.4561 l 1.883,9.0224 9.219,0.916 c 6.619,0.6489 8.431,9.3425 2.658,12.6758 l -8.061,4.6543 1.884,9.0235 c 0.669,3.2323 -0.924,5.972 -3.315,7.3525 -2.391,1.3805 -5.571,1.3964 -8.025,-0.8057 l -6.872,-6.1425 -8.062,4.6533 c -5.773,3.3331 -12.391,-2.5854 -9.658,-8.6338 l 3.816,-8.4414 -6.858,-6.1514 c -3.757,-3.3538 -2.508,-8.8762 1.214,-11.0254 1.163,-0.6717 2.584,-1.0247 4.144,-0.8603 l 9.243,0.9218 3.808,-8.456 c 0.653,-1.4424 1.653,-2.4875 2.817,-3.1592 z m 187.737,0 c 3.732,-2.1547 9.13,-0.4691 10.166,4.4561 l 1.883,9.0224 9.218,0.916 c 6.62,0.6488 8.432,9.3426 2.659,12.6758 l -8.061,4.6543 1.883,9.0235 c 0.67,3.2324 -0.923,5.972 -3.314,7.3525 -2.391,1.3804 -5.57,1.3961 -8.025,-0.8057 l -6.873,-6.1425 -8.06,4.6533 c -5.774,3.3331 -12.393,-2.5854 -9.66,-8.6338 l 3.817,-8.4414 -6.858,-6.1514 c -3.757,-3.3539 -2.508,-8.8763 1.214,-11.0254 1.164,-0.6717 2.584,-1.0248 4.145,-0.8603 l 9.242,0.9218 3.808,-8.456 c 0.652,-1.4423 1.653,-2.4874 2.816,-3.1592 z m 187.728,10e-4 c 3.73,-2.1548 9.13,-0.4691 10.16,4.456 l 1.89,9.0225 9.22,0.916 c 6.61,0.6488 8.43,9.3425 2.65,12.6758 l -8.06,4.6543 1.89,9.0234 c 0.67,3.2324 -0.93,5.9721 -3.32,7.3526 -2.39,1.3805 -5.57,1.3964 -8.02,-0.8057 l -6.88,-6.1426 -8.06,4.6534 c -5.77,3.3329 -12.39,-2.5855 -9.66,-8.6338 l 3.82,-8.4414 -6.86,-6.1514 c -3.75,-3.3538 -2.51,-8.8762 1.22,-11.0254 1.16,-0.6717 2.58,-1.0247 4.14,-0.8604 l 9.24,0.9219 3.81,-8.456 c 0.65,-1.4424 1.65,-2.4875 2.82,-3.1592 z m 187.73,0 c 3.74,-2.1547 9.13,-0.469 10.17,4.456 l 1.88,9.0225 9.22,0.916 c 6.62,0.6488 8.43,9.3426 2.66,12.6758 l -8.06,4.6543 1.88,9.0234 c 0.67,3.2325 -0.92,5.9721 -3.31,7.3526 -2.39,1.3803 -5.57,1.3961 -8.03,-0.8057 l -6.87,-6.1426 -8.06,4.6534 c -5.77,3.3331 -12.39,-2.5855 -9.66,-8.6338 l 3.82,-8.4414 -6.86,-6.1514 c -3.76,-3.3539 -2.51,-8.8763 1.21,-11.0254 1.17,-0.6717 2.59,-1.0248 4.15,-0.8604 l 9.24,0.9219 3.81,-8.456 c 0.65,-1.4426 1.65,-2.4875 2.81,-3.1592 z m -946.318,-0.002 c 3.732,-2.1547 9.129,-0.4689 10.165,4.4561 l 1.883,9.0234 9.219,0.9151 c 6.62,0.6487 8.432,9.3435 2.658,12.6767 l -8.061,4.6533 1.884,9.0235 c 0.67,3.2324 -0.924,5.972 -3.315,7.3525 -2.391,1.3805 -5.571,1.3965 -8.025,-0.8056 l -6.872,-6.1426 -8.062,4.6543 c -5.773,3.3326 -12.391,-2.5865 -9.658,-8.6348 l 3.816,-8.4414 -6.857,-6.1514 c -3.757,-3.3538 -2.509,-8.8762 1.213,-11.0254 1.163,-0.6717 2.584,-1.0238 4.145,-0.8593 l 9.242,0.9218 3.808,-8.456 c 0.653,-1.4425 1.653,-2.4884 2.817,-3.1602 z m 187.737,0 c 3.732,-2.1545 9.129,-0.4688 10.165,4.4561 l 1.884,9.0234 9.218,0.9151 c 6.62,0.649 8.431,9.3436 2.658,12.6767 l -8.061,4.6533 1.884,9.0235 c 0.67,3.2325 -0.924,5.972 -3.316,7.3525 -2.391,1.3805 -5.569,1.3964 -8.024,-0.8056 l -6.873,-6.1426 -8.061,4.6543 c -5.773,3.333 -12.392,-2.5864 -9.659,-8.6348 l 3.818,-8.4414 -6.859,-6.1514 c -3.757,-3.3539 -2.508,-8.8763 1.214,-11.0254 1.164,-0.6717 2.584,-1.0238 4.145,-0.8593 l 9.242,0.9218 3.807,-8.456 c 0.653,-1.4425 1.654,-2.4884 2.818,-3.1602 z m 527.721,22.7403 c 0.68,-3.4379 5.33,-3.9465 6.79,-0.75 l 2.03,4.4638 4.82,-0.5293 c 1.73,-0.1869 3.09,0.7876 3.69,2.1114 0.6,1.3239 0.45,2.9918 -0.83,4.167 l -3.57,3.292 2.03,4.4628 c 1.45,3.1965 -1.98,6.3662 -5.02,4.626 l -4.23,-2.4306 -3.57,3.2832 c -1.95,1.7995 -4.79,0.8646 -5.72,-1.1963 -0.3,-0.6442 -0.41,-1.4069 -0.24,-2.2168 l 0.95,-4.7998 -4.24,-2.4268 c -0.72,-0.4155 -1.22,-0.9927 -1.51,-1.6367 -0.94,-2.0665 0.21,-4.8117 2.85,-5.1045 l 4.83,-0.5283 z m 187.74,0 c 0.68,-3.4379 5.33,-3.9463 6.78,-0.75 l 2.04,4.4638 4.82,-0.5293 c 1.73,-0.1869 3.09,0.7875 3.69,2.1114 0.6,1.3239 0.45,2.9918 -0.83,4.167 l -3.57,3.292 2.03,4.4628 c 1.45,3.1966 -1.99,6.3665 -5.02,4.626 l -4.23,-2.4306 -3.58,3.2832 c -1.94,1.7995 -4.78,0.8645 -5.72,-1.1963 -0.29,-0.6441 -0.4,-1.4069 -0.24,-2.2168 l 0.96,-4.7998 -4.24,-2.4268 c -0.73,-0.4155 -1.22,-0.9926 -1.52,-1.6367 -0.94,-2.0664 0.22,-4.8115 2.86,-5.1045 l 4.82,-0.5283 z M 134.515,38.9868 c 0.676,-3.4376 5.328,-3.9455 6.782,-0.749 l 2.03,4.4629 4.827,-0.5283 c 1.729,-0.187 3.084,0.7874 3.687,2.1113 0.602,1.3239 0.449,2.9918 -0.83,4.167 l -3.571,3.291 2.032,4.4639 c 1.454,3.1964 -1.986,6.3654 -5.019,4.625 l -4.232,-2.4297 -3.575,3.2832 c -1.949,1.7992 -4.78,0.8642 -5.718,-1.1963 -0.293,-0.6442 -0.406,-1.4077 -0.24,-2.2178 l 0.953,-4.7988 -4.242,-2.4268 c -0.723,-0.4156 -1.22,-0.9935 -1.513,-1.6377 -0.94,-2.0663 0.218,-4.8107 2.853,-5.1035 l 4.827,-0.5283 z m 187.714,0 c 0.676,-3.4376 5.327,-3.9455 6.782,-0.749 l 2.03,4.4629 4.827,-0.5283 c 1.729,-0.187 3.084,0.7875 3.687,2.1113 0.602,1.3239 0.449,2.9918 -0.83,4.167 l -3.571,3.291 2.032,4.4639 c 1.453,3.1964 -1.987,6.3654 -5.019,4.625 l -4.232,-2.4297 -3.575,3.2832 c -1.949,1.7992 -4.781,0.8642 -5.718,-1.1963 -0.293,-0.6442 -0.406,-1.4077 -0.241,-2.2178 l 0.953,-4.7988 -4.241,-2.4268 c -0.723,-0.4156 -1.22,-0.9936 -1.513,-1.6377 -0.94,-2.0663 0.218,-4.8106 2.853,-5.1035 l 4.827,-0.5283 z m 187.738,0 c 0.677,-3.4375 5.327,-3.9453 6.781,-0.749 l 2.031,4.4629 4.826,-0.5283 c 1.729,-0.187 3.086,0.7873 3.688,2.1113 0.602,1.3239 0.449,2.9918 -0.83,4.167 l -3.57,3.291 2.03,4.4639 c 1.454,3.1965 -1.986,6.3654 -5.019,4.625 l -4.231,-2.4297 -3.574,3.2832 c -1.95,1.7995 -4.782,0.8644 -5.72,-1.1963 -0.293,-0.6442 -0.406,-1.4077 -0.24,-2.2178 l 0.953,-4.7988 -4.24,-2.4268 c -0.724,-0.4156 -1.221,-0.9934 -1.514,-1.6377 -0.94,-2.0664 0.218,-4.8107 2.853,-5.1035 l 4.827,-0.5283 z m 383.122,0 c 0.677,-3.4376 5.328,-3.9455 6.782,-0.749 l 2.03,4.4629 4.828,-0.5283 c 1.728,-0.187 3.084,0.7875 3.686,2.1113 0.602,1.3239 0.449,2.9918 -0.83,4.167 l -3.57,3.291 2.031,4.4639 c 1.454,3.1964 -1.986,6.3654 -5.019,4.625 l -4.232,-2.4297 -3.573,3.2832 c -1.95,1.7995 -4.782,0.8643 -5.72,-1.1963 -0.293,-0.6442 -0.406,-1.4077 -0.24,-2.2178 l 0.953,-4.7988 -4.24,-2.4268 c -0.724,-0.4156 -1.221,-0.9934 -1.514,-1.6377 -0.94,-2.0663 0.218,-4.8105 2.852,-5.1035 l 4.828,-0.5283 z m -195.371,0 c 0.677,-3.4377 5.327,-3.9455 6.781,-0.749 l 2.031,4.4629 4.827,-0.5293 c 1.729,-0.1868 3.085,0.7884 3.687,2.1123 0.602,1.3239 0.449,2.9919 -0.83,4.167 l -3.57,3.291 2.03,4.4629 c 1.454,3.1966 -1.986,6.3665 -5.019,4.626 l -4.231,-2.4297 -3.574,3.2832 c -1.95,1.7995 -4.782,0.8637 -5.72,-1.1973 -0.293,-0.6442 -0.406,-1.4068 -0.24,-2.2168 l 0.953,-4.7988 -4.24,-2.4268 c -0.724,-0.4156 -1.221,-0.9934 -1.514,-1.6377 -0.94,-2.0664 0.218,-4.8107 2.853,-5.1035 l 4.828,-0.5293 z m 758.572,0 c 0.68,-3.4378 5.33,-3.9455 6.79,-0.749 l 2.03,4.4629 4.82,-0.5293 c 1.73,-0.1869 3.09,0.7884 3.69,2.1123 0.6,1.3239 0.45,2.9919 -0.83,4.167 l -3.57,3.291 2.03,4.4629 c 1.45,3.1965 -1.98,6.3662 -5.02,4.626 l -4.23,-2.4297 -3.57,3.2832 c -1.95,1.7994 -4.79,0.8636 -5.72,-1.1973 -0.3,-0.6442 -0.41,-1.4068 -0.24,-2.2168 l 0.95,-4.7988 -4.24,-2.4268 c -0.72,-0.4156 -1.22,-0.9935 -1.51,-1.6377 -0.95,-2.0664 0.21,-4.8107 2.85,-5.1035 l 4.83,-0.5293 z M 1173.94,22.772 c 1.95,-1.7996 4.78,-0.8646 5.72,1.1963 0.29,0.6441 0.4,1.4068 0.24,2.2168 l -0.95,4.7998 4.24,2.4267 c 0.72,0.4156 1.22,0.9927 1.51,1.6367 0.94,2.0665 -0.22,4.8117 -2.85,5.1045 l -4.83,0.5284 -0.95,4.7871 c -0.68,3.4377 -5.33,3.9461 -6.78,0.75 l -2.03,-4.4639 -4.83,0.5293 c -1.73,0.1868 -3.08,-0.7876 -3.69,-2.1113 -0.6,-1.3239 -0.44,-2.9919 0.83,-4.167 l 3.57,-3.292 -2.03,-4.4629 c -1.45,-3.1966 1.99,-6.3665 5.02,-4.626 l 4.23,2.4307 z m 187.74,0 c 1.95,-1.7996 4.78,-0.8645 5.72,1.1963 0.29,0.6441 0.4,1.4068 0.24,2.2168 l -0.96,4.7998 4.24,2.4267 c 0.73,0.4155 1.22,0.9927 1.52,1.6367 0.94,2.0664 -0.22,4.8116 -2.86,5.1045 l -4.82,0.5284 -0.95,4.7871 c -0.68,3.4378 -5.33,3.9463 -6.78,0.75 l -2.03,-4.4639 -4.83,0.5293 c -1.73,0.1869 -3.09,-0.7876 -3.69,-2.1113 -0.6,-1.324 -0.45,-2.9919 0.83,-4.167 l 3.57,-3.292 -2.03,-4.4629 c -1.45,-3.1965 1.99,-6.3664 5.02,-4.626 l 4.23,2.4307 z M 39.8994,22.771 c 1.9496,-1.7994 4.7821,-0.8637 5.7197,1.1973 0.293,0.6441 0.4048,1.4069 0.2393,2.2168 l -0.9522,4.7988 4.2403,2.4267 c 0.723,0.4156 1.2206,0.9936 1.5137,1.6377 0.9398,2.0664 -0.2186,4.8108 -2.8536,5.1036 l -4.8271,0.5283 -0.9483,4.7881 c -0.6768,3.4376 -5.3279,3.9455 -6.7822,0.749 l -2.0302,-4.4629 -4.8272,0.5283 c -1.7289,0.187 -3.0841,-0.7874 -3.6865,-2.1113 -0.6024,-1.324 -0.4494,-2.9918 0.8301,-4.167 l 3.5703,-3.291 -2.0303,-4.4639 c -1.4542,-3.1965 1.985,-6.3655 5.0176,-4.625 l 4.2324,2.4297 z m 187.7376,0 c 1.949,-1.7996 4.782,-0.8637 5.719,1.1973 0.293,0.6441 0.406,1.4069 0.241,2.2168 l -0.953,4.7988 4.24,2.4267 c 0.723,0.4156 1.22,0.9935 1.513,1.6377 0.94,2.0665 -0.218,4.8108 -2.853,5.1036 l -4.827,0.5283 -0.948,4.7881 c -0.677,3.4375 -5.327,3.9453 -6.782,0.749 l -2.031,-4.4629 -4.827,0.5283 c -1.729,0.1868 -3.084,-0.7875 -3.687,-2.1113 -0.602,-1.3239 -0.449,-2.9919 0.83,-4.167 l 3.571,-3.291 -2.031,-4.4639 c -1.454,-3.1965 1.987,-6.3654 5.019,-4.625 l 4.231,2.4297 z m 187.715,0 c 1.949,-1.7996 4.782,-0.8647 5.719,1.1963 0.293,0.6442 0.406,1.4068 0.241,2.2168 l -0.954,4.7998 4.241,2.4258 c 0.723,0.4155 1.22,0.9935 1.513,1.6377 0.94,2.0664 -0.218,4.8107 -2.853,5.1035 l -4.826,0.5293 -0.95,4.7871 c -0.676,3.4377 -5.326,3.946 -6.781,0.75 l -2.031,-4.4639 -4.827,0.5293 c -1.729,0.1868 -3.084,-0.7885 -3.687,-2.1123 -0.602,-1.3237 -0.449,-2.991 0.83,-4.166 l 3.571,-3.292 -2.031,-4.4629 c -1.454,-3.1966 1.986,-6.3665 5.019,-4.626 l 4.231,2.4307 z m 187.738,0 c 1.949,-1.7996 4.781,-0.8646 5.719,1.1963 0.293,0.6442 0.405,1.4068 0.24,2.2168 l -0.953,4.7998 4.241,2.4258 c 0.723,0.4155 1.22,0.9936 1.513,1.6377 0.94,2.0664 -0.218,4.8106 -2.853,5.1035 l -4.827,0.5293 -0.948,4.7871 c -0.677,3.4378 -5.328,3.9462 -6.783,0.75 l -2.03,-4.4639 -4.827,0.5293 c -1.729,0.187 -3.084,-0.7883 -3.686,-2.1123 -0.603,-1.3239 -0.45,-2.9909 0.83,-4.166 l 3.57,-3.292 -2.031,-4.4629 c -1.455,-3.1965 1.986,-6.3664 5.018,-4.626 l 4.233,2.4307 z m 195.385,0 c 1.949,-1.7995 4.782,-0.8637 5.719,1.1973 0.293,0.6441 0.406,1.4069 0.241,2.2168 l -0.954,4.7988 4.241,2.4267 c 0.723,0.4156 1.22,0.9936 1.513,1.6377 0.94,2.0664 -0.218,4.8108 -2.853,5.1036 l -4.827,0.5283 -0.949,4.7881 c -0.676,3.4375 -5.327,3.9455 -6.782,0.749 l -2.03,-4.4629 -4.827,0.5283 c -1.729,0.1869 -3.084,-0.7874 -3.687,-2.1113 -0.602,-1.324 -0.449,-2.9918 0.83,-4.167 l 3.571,-3.291 -2.031,-4.4639 c -1.454,-3.1965 1.985,-6.3654 5.018,-4.625 l 4.232,2.4297 z m 187.738,0 c 1.949,-1.7996 4.782,-0.8637 5.72,1.1973 0.293,0.6441 0.405,1.4068 0.24,2.2168 l -0.953,4.7988 4.24,2.4267 c 0.723,0.4156 1.221,0.9935 1.514,1.6377 0.94,2.0663 -0.218,4.8105 -2.853,5.1036 l -4.827,0.5283 -0.949,4.7881 c -0.677,3.4375 -5.327,3.9453 -6.782,0.749 l -2.031,-4.4629 -4.826,0.5283 c -1.729,0.187 -3.085,-0.7874 -3.687,-2.1113 -0.603,-1.324 -0.449,-2.9919 0.831,-4.167 l 3.569,-3.291 -2.03,-4.4639 c -1.454,-3.1965 1.986,-6.3654 5.018,-4.625 l 4.233,2.4297 z m 271.267,-4.3623 c 0.6,-0.9896 1.67,-1.3089 2.62,-1.0889 0.94,0.2201 1.76,0.9792 1.86,2.1328 l 0.29,3.2237 3.18,0.7422 c 2.28,0.5311 2.56,3.6374 0.4,4.5322 l -3,1.248 0.28,3.2237 c 0.16,1.7615 -1.49,2.8775 -2.96,2.5351 -0.46,-0.107 -0.9,-0.3577 -1.26,-0.7744 l -2.15,-2.4551 -3.01,1.2539 c -0.51,0.2132 -1.02,0.2418 -1.48,0.1348 -1.47,-0.3434 -2.45,-2.0717 -1.54,-3.583 l 1.69,-2.7656 -2.15,-2.4473 c -1.54,-1.7552 0.08,-4.4189 2.36,-3.8877 l 3.19,0.7412 z M 123.443,18.4077 c 0.605,-0.9894 1.67,-1.3088 2.615,-1.0889 0.944,0.22 1.763,0.9791 1.864,2.1329 l 0.288,3.2246 3.184,0.7412 c 2.28,0.5312 2.556,3.6373 0.404,4.5322 l -3.005,1.2481 0.281,3.2236 c 0.158,1.7614 -1.487,2.8773 -2.957,2.5351 -0.459,-0.107 -0.909,-0.3575 -1.269,-0.7744 l -2.149,-2.455 -3.006,1.2539 c -0.513,0.2131 -1.021,0.2417 -1.48,0.1347 -1.474,-0.3434 -2.454,-2.0716 -1.537,-3.583 l 1.683,-2.7656 -2.144,-2.4473 c -1.541,-1.7552 0.081,-4.4187 2.361,-3.8877 l 3.184,0.7412 z m 187.737,0 c 0.604,-0.9896 1.67,-1.3089 2.615,-1.0889 0.944,0.2201 1.763,0.9792 1.864,2.1329 l 0.287,3.2246 3.184,0.7412 c 2.28,0.5312 2.557,3.6375 0.404,4.5322 l -3.005,1.2481 0.283,3.2236 c 0.158,1.7615 -1.488,2.8776 -2.958,2.5351 -0.46,-0.107 -0.908,-0.3577 -1.269,-0.7744 l -2.148,-2.455 -3.007,1.2539 c -0.514,0.2131 -1.021,0.2418 -1.481,0.1347 -1.474,-0.3434 -2.453,-2.0716 -1.536,-3.583 l 1.683,-2.7656 -2.144,-2.4473 c -1.541,-1.7552 0.081,-4.4188 2.361,-3.8877 l 3.184,0.7412 z m 187.715,0 c 0.604,-0.9896 1.67,-1.3089 2.615,-1.0889 0.944,0.2201 1.763,0.9792 1.864,2.1329 l 0.287,3.2246 3.184,0.7412 c 2.28,0.5312 2.557,3.6375 0.404,4.5322 l -3.005,1.2481 0.282,3.2236 c 0.158,1.7615 -1.488,2.8776 -2.958,2.5351 -0.459,-0.107 -0.908,-0.3577 -1.268,-0.7744 l -2.149,-2.455 -3.006,1.2539 c -0.514,0.213 -1.021,0.2418 -1.481,0.1347 -1.474,-0.3435 -2.453,-2.0717 -1.536,-3.583 l 1.683,-2.7656 -2.144,-2.4473 c -1.541,-1.7552 0.081,-4.4188 2.361,-3.8877 l 3.184,0.7412 z m 187.751,0 c 0.605,-0.9896 1.671,-1.3089 2.616,-1.0889 0.944,0.2201 1.763,0.9792 1.864,2.1329 l 0.287,3.2246 3.184,0.7412 c 2.28,0.5312 2.557,3.6375 0.404,4.5322 l -3.005,1.2481 0.282,3.2236 c 0.158,1.7616 -1.488,2.8776 -2.958,2.5351 -0.459,-0.107 -0.908,-0.3577 -1.268,-0.7744 l -2.149,-2.455 -3.007,1.2539 c -0.513,0.213 -1.021,0.2418 -1.48,0.1347 -1.474,-0.3435 -2.453,-2.0717 -1.536,-3.583 l 1.682,-2.7656 -2.143,-2.4473 c -1.541,-1.7552 0.081,-4.4188 2.361,-3.8877 l 3.184,0.7412 z m 195.373,0 c 0.604,-0.9894 1.669,-1.3087 2.614,-1.0889 0.944,0.22 1.763,0.9791 1.864,2.1329 l 0.288,3.2246 3.184,0.7412 c 2.28,0.5311 2.556,3.6374 0.404,4.5322 l -3.005,1.2481 0.281,3.2236 c 0.158,1.7615 -1.487,2.8774 -2.957,2.5351 -0.459,-0.107 -0.908,-0.3575 -1.269,-0.7744 l -2.149,-2.455 -3.005,1.2539 c -0.514,0.2131 -1.021,0.2417 -1.481,0.1347 -1.474,-0.3434 -2.454,-2.0716 -1.537,-3.583 l 1.684,-2.7656 -2.145,-2.4473 c -1.541,-1.7551 0.081,-4.4185 2.361,-3.8877 l 3.185,0.7412 z m 187.731,0 c 0.61,-0.9896 1.68,-1.3089 2.62,-1.0889 0.94,0.2201 1.76,0.9791 1.86,2.1329 l 0.29,3.2246 3.19,0.7412 c 2.28,0.5315 2.55,3.6375 0.4,4.5322 l -3.01,1.2481 0.29,3.2236 c 0.15,1.7616 -1.49,2.8776 -2.96,2.5351 -0.46,-0.107 -0.91,-0.3577 -1.27,-0.7744 l -2.15,-2.455 -3,1.2539 c -0.52,0.2131 -1.03,0.2418 -1.49,0.1347 -1.47,-0.3435 -2.45,-2.0717 -1.53,-3.583 l 1.68,-2.7656 -2.14,-2.4473 c -1.54,-1.7552 0.08,-4.4188 2.36,-3.8877 l 3.18,0.7412 z m 375.47,0 c 0.61,-0.9893 1.67,-1.3088 2.62,-1.0889 0.94,0.2201 1.76,0.9791 1.86,2.1329 l 0.29,3.2246 3.18,0.7412 c 2.28,0.5314 2.56,3.6375 0.41,4.5322 l -3.01,1.2481 0.28,3.2236 c 0.16,1.7616 -1.48,2.8776 -2.95,2.5351 -0.46,-0.107 -0.91,-0.3577 -1.27,-0.7744 l -2.15,-2.455 -3.01,1.2539 c -0.51,0.2131 -1.02,0.2418 -1.48,0.1347 -1.47,-0.3436 -2.45,-2.0717 -1.53,-3.583 l 1.68,-2.7656 -2.15,-2.4473 c -1.54,-1.7552 0.09,-4.4188 2.37,-3.8877 l 3.18,0.7412 z"
       fill="#b9f5ff"
       id="path1" />
  </g>
  <defs
     id="defs3">
    <filter
       id="filter0_d_2123_675"
       x="-33.5996"
       y="15.3281"
       width="1511.56"
       height="57.1135"
       filterUnits="userSpaceOnUse"
       color-interpolation-filters="sRGB">
      <feFlood
         flood-opacity="0"
         result="BackgroundImageFix"
         id="feFlood1" />
      <feColorMatrix
         in="SourceAlpha"
         type="matrix"
         values="0 0 0 0 0 0 0 0 0 0 0 0 0 0 0 0 0 0 127 0"
         result="hardAlpha"
         id="feColorMatrix1" />
      <feOffset
         dx="2"
         dy="2"
         id="feOffset1" />
      <feGaussianBlur
         stdDeviation="1"
         id="feGaussianBlur1" />
      <feComposite
         in2="hardAlpha"
         operator="out"
         id="feComposite1" />
      <feColorMatrix
         type="matrix"
         values="0 0 0 0 0 0 0 0 0 0 0 0 0 0 0 0 0 0 0.25 0"
         id="feColorMatrix2" />
      <feBlend
         mode="normal"
         in2="BackgroundImageFix"
         result="effect1_dropShadow_2123_675"
         id="feBlend2" />
      <feBlend
         mode="normal"
         in="SourceGraphic"
         in2="effect1_dropShadow_2123_675"
         result="shape"
         id="feBlend3" />
    </filter>
  </defs>
</svg>
