<svg width="238" height="227" viewBox="0 0 238 227" fill="none" xmlns="http://www.w3.org/2000/svg">
<g clip-path="url(#clip0_104_290)">
<path d="M31.4868 32.436C14.4282 46.459 10.7146 70.6675 22.6162 87.5532C20.8053 90.7561 19.4925 94.2147 18.6648 97.815C16.0134 109.575 19.0338 121.924 26.9638 131.686C35.1809 141.751 47.4292 147.388 59.8053 146.736C63.1931 146.54 66.4665 145.902 69.648 144.843C83.3813 160.075 106.756 161.745 123.765 148.423C132.456 141.611 138.738 130.818 138.81 118.267C145.046 115.386 150.364 110.818 154.368 104.68C164.133 89.6975 163.107 68.8425 151.948 55.1056C147.872 50.0876 142.067 45.7326 134.818 43.4579C133.862 36.6467 131.07 30.2157 126.449 24.5271C115.573 11.138 96.8179 5.71469 80.8557 11.3422C73.6079 13.8905 67.617 18.3438 63.1991 24.3247C51.3703 21.8932 39.8373 25.6132 31.4854 32.439L31.4868 32.436ZM73.7596 52.8533C73.9354 24.1364 100.769 23.3667 111.545 36.6318C116.791 43.09 118.234 52.8862 110.947 64.3713C123.222 58.3162 132.04 61.0501 137.044 67.2104C147.679 80.3017 140.959 108.931 113.128 101.318C134.27 129.374 97.9009 149.269 83.231 131.21C80.1639 127.434 78.0596 122.052 77.5902 114.723C65.9731 132.653 49.9043 129.419 41.8681 119.577C34.1607 110.089 33.9382 94.4355 52.4108 85.6556C46.23 83.8319 41.8891 80.9267 39.0833 77.4726C24.3738 59.3644 51.45 25.9487 73.7575 52.8531L73.7596 52.8533Z" fill="#EA94FF"/>
<path d="M39.0843 77.4739C41.8892 80.9269 46.2289 83.8331 52.4118 85.657C33.9392 94.4368 34.1608 110.089 41.8691 119.578C49.9053 129.42 65.9732 132.653 77.5912 114.724C78.0606 122.053 80.1649 127.436 83.232 131.211C97.9019 149.271 134.271 129.376 113.129 101.319C140.961 108.934 147.68 80.303 137.045 67.2117C132.041 61.0514 123.223 58.3175 110.948 64.3726C118.235 52.8875 116.792 43.0913 111.546 36.6332C100.77 23.368 73.9344 24.1375 73.7606 52.8546C51.4531 25.9503 24.3768 59.3659 39.0864 77.4742L39.0843 77.4739ZM96.6121 75.1497C101.697 81.41 100.725 90.5688 94.4658 95.6532C88.2066 100.738 79.0669 99.7912 73.9825 93.5319C68.8981 87.2727 69.8684 78.1137 76.1038 73.0487C82.3392 67.9836 91.5479 68.9154 96.6121 75.1497Z" fill="#D1FF61"/>
<path d="M76.1034 73.0496C82.3626 67.9652 91.5475 68.9164 96.6117 75.1506C101.676 81.3849 100.725 90.5698 94.4654 95.6542C88.2062 100.739 79.0665 99.7921 73.9821 93.5329C68.8977 87.2737 69.868 78.1147 76.1034 73.0496Z" fill="#EA94FF"/>
</g>
<g clip-path="url(#clip1_104_290)">
<path d="M152.059 16.369C150.901 19.453 152.227 22.8576 155.024 24.1513C155.029 24.7002 155.118 25.2449 155.279 25.7718C155.814 27.4889 157.125 28.859 158.878 29.5287C160.69 30.216 162.693 30.0308 164.243 29.0234C164.667 28.7454 165.042 28.4187 165.374 28.0447C168.284 28.9882 171.429 27.4605 172.632 24.4706C173.247 22.9423 173.254 21.0793 172.327 19.4525C172.917 18.6152 173.264 17.6283 173.323 16.5367C173.467 13.8727 171.779 11.2549 169.313 10.3126C168.412 9.9683 167.337 9.83868 166.231 10.0855C165.6 9.27685 164.759 8.65429 163.738 8.26403C161.334 7.34551 158.507 8.04376 156.864 9.9614C156.118 10.8312 155.676 11.8534 155.551 12.9556C153.842 13.5238 152.629 14.8646 152.059 16.3694L152.059 16.369ZM159.044 15.8536C156.924 12.1305 160.334 10.0295 162.715 10.9396C163.875 11.3826 164.792 12.5405 164.707 14.5679C165.841 12.87 167.184 12.5655 168.29 12.9881C170.641 13.8862 171.908 18.0861 167.745 19.1784C172.569 21.2262 169.354 26.5092 166.112 25.2702C165.434 25.0112 164.761 24.4728 164.153 23.561C163.99 26.7439 161.673 27.5247 159.9 26.8526C158.197 26.2017 157.001 24.196 158.732 21.6838C157.798 21.9092 157.02 21.8577 156.4 21.6207C153.149 20.3785 154.155 14.0418 159.043 15.8537L159.044 15.8536Z" fill="#EA94FF"/>
<path d="M156.401 21.6205C157.021 21.8574 157.798 21.9092 158.733 21.6836C157.001 24.1958 158.197 26.2014 159.901 26.8524C161.673 27.5245 163.99 26.7436 164.154 23.5608C164.761 24.4726 165.435 25.011 166.113 25.27C169.355 26.509 172.569 21.2259 167.745 19.1782C171.909 18.086 170.641 13.886 168.291 12.9879C167.185 12.5652 165.842 12.8698 164.708 14.5677C164.793 12.5403 163.875 11.3824 162.716 10.9393C160.334 10.0293 156.925 12.1304 159.044 15.8534C154.156 14.0415 153.15 20.3781 156.401 21.6204L156.401 21.6205ZM163.66 17.0293C164.783 17.4588 165.341 18.7145 164.912 19.8383C164.482 20.962 163.231 21.5215 162.107 21.0921C160.983 20.6627 160.426 19.407 160.853 18.2875C161.281 17.1681 162.54 16.6016 163.66 17.0293Z" fill="#D1FF61"/>
<path d="M160.853 18.2878C161.282 17.1641 162.54 16.6018 163.659 17.0295C164.778 17.4572 165.341 18.7148 164.911 19.8385C164.482 20.9623 163.23 21.5217 162.107 21.0923C160.983 20.6629 160.425 19.4073 160.853 18.2878Z" fill="#EA94FF"/>
</g>
<g clip-path="url(#clip2_104_290)">
<path d="M20.3616 163.427C19.858 165.843 21.23 168.212 23.4491 168.849C23.5157 169.254 23.6436 169.648 23.8236 170.019C24.4163 171.229 25.5442 172.093 26.9185 172.388C28.339 172.689 29.8005 172.322 30.8326 171.398C31.114 171.144 31.3543 170.859 31.5573 170.544C33.8201 170.909 35.9728 169.417 36.5211 167.066C36.8009 165.864 36.5921 164.484 35.7193 163.386C36.0607 162.698 36.204 161.928 36.1227 161.113C35.9239 159.125 34.374 157.38 32.4402 156.965C31.7338 156.814 30.9232 156.841 30.1326 157.151C29.5723 156.624 28.8788 156.26 28.0779 156.088C26.193 155.684 24.1799 156.525 23.1839 158.133C22.7311 158.862 22.5212 159.67 22.5553 160.5C21.3549 161.117 20.611 162.248 20.3617 163.428L20.3616 163.427ZM25.473 162.245C23.4772 159.732 25.7602 157.785 27.6277 158.186C28.5368 158.381 29.3486 159.133 29.5183 160.644C30.1633 159.257 31.1227 158.877 31.99 159.063C33.8329 159.459 35.2527 162.422 32.2957 163.709C36.1019 164.671 34.3278 168.951 31.7855 168.406C31.2539 168.292 30.6937 167.97 30.1396 167.365C30.3835 169.74 28.7576 170.584 27.3685 170.289C26.0328 170.003 24.9171 168.655 25.911 166.597C25.245 166.871 24.6635 166.922 24.1772 166.817C21.628 166.271 21.6459 161.464 25.4728 162.245L25.473 162.245Z" fill="#EA94FF"/>
<path d="M24.1769 166.818C24.663 166.922 25.2445 166.871 25.9107 166.597C24.9168 168.655 26.0322 170.003 27.3681 170.289C28.7573 170.584 30.383 169.74 30.1392 167.365C30.6934 167.97 31.2536 168.292 31.7851 168.406C34.3275 168.951 36.1015 164.672 32.2954 163.709C35.2525 162.423 33.8326 159.459 31.9896 159.063C31.1224 158.877 30.1629 159.257 29.5179 160.644C29.3482 159.133 28.5365 158.381 27.6273 158.186C25.7599 157.785 23.4766 159.732 25.4727 162.245C21.6457 161.464 21.6279 166.271 24.1771 166.817L24.1769 166.818ZM29.0242 162.586C29.9055 162.775 30.4622 163.641 30.2732 164.522C30.0842 165.403 29.2219 165.961 28.3408 165.772C27.4596 165.583 26.9027 164.717 27.091 163.84C27.2793 162.962 28.1466 162.398 29.0242 162.586Z" fill="#D1FF61"/>
<path d="M27.0908 163.838C27.2798 162.957 28.1463 162.396 29.024 162.585C29.9016 162.773 30.462 163.639 30.273 164.52C30.0839 165.402 29.2217 165.959 28.3405 165.77C27.4594 165.581 26.9025 164.716 27.0908 163.838Z" fill="#EA94FF"/>
</g>
<g clip-path="url(#clip3_104_290)">
<path d="M70.5656 180.146C66.9091 182.387 65.5476 186.945 67.3858 190.512C66.9518 191.08 66.6069 191.71 66.3514 192.38C65.527 194.572 65.778 197.028 67.0426 199.118C68.3544 201.274 70.56 202.686 72.9583 202.891C73.6153 202.944 74.2621 202.909 74.9025 202.79C77.1373 206.088 81.5895 207.034 85.2178 204.926C87.0718 203.847 88.5688 201.939 88.918 199.526C90.1947 199.139 91.34 198.402 92.2742 197.328C94.5533 194.707 94.9134 190.668 93.1339 187.727C92.4838 186.652 91.4834 185.659 90.1497 185.028C90.1478 183.692 89.7826 182.38 89.0456 181.162C87.3112 178.296 83.8481 176.751 80.6269 177.407C79.1645 177.704 77.8929 178.4 76.8832 179.433C74.6726 178.649 72.3544 179.056 70.5652 180.146L70.5656 180.146ZM78.1522 185.203C78.9536 179.684 84.1365 180.253 85.8549 183.093C86.6915 184.475 86.7073 186.399 84.9984 188.413C87.5218 187.576 89.1451 188.338 89.9431 189.657C91.639 192.46 89.581 197.788 84.4304 195.579C87.7478 201.542 80.2194 204.397 77.8799 200.531C77.3908 199.722 77.1298 198.631 77.2355 197.208C74.5213 200.347 71.5165 199.295 70.2335 197.187C69.0044 195.156 69.38 192.139 73.1684 190.943C72.0281 190.427 71.2707 189.752 70.8232 189.013C68.4774 185.136 74.5795 179.431 78.1518 185.203L78.1522 185.203Z" fill="#EA94FF"/>
<path d="M70.8237 189.012C71.271 189.752 72.0282 190.427 73.1689 190.943C69.3805 192.138 69.0048 195.155 70.2341 197.187C71.517 199.295 74.5217 200.346 77.236 197.208C77.1304 198.63 77.3913 199.722 77.8805 200.53C80.2199 204.397 87.7483 201.541 84.4309 195.579C89.5817 197.788 91.6395 192.459 89.9437 189.656C89.1456 188.338 87.5223 187.576 84.9989 188.413C86.7078 186.398 86.692 184.475 85.8554 183.092C84.137 180.252 78.9538 179.683 78.1528 185.203C74.5804 179.431 68.4783 185.136 70.8241 189.012L70.8237 189.012ZM81.953 190.103C82.764 191.443 82.3321 193.179 80.992 193.99C79.652 194.801 77.919 194.374 77.1082 193.034C76.2973 191.694 76.7288 189.958 78.0638 189.15C79.3987 188.343 81.1454 188.768 81.953 190.103Z" fill="#D1FF61"/>
<path d="M78.0637 189.151C79.4038 188.34 81.1453 188.769 81.9529 190.103C82.7605 191.438 82.332 193.18 80.992 193.99C79.6519 194.801 77.919 194.375 77.1081 193.035C76.2973 191.695 76.7288 189.959 78.0637 189.151Z" fill="#EA94FF"/>
</g>
<defs>
<clipPath id="clip0_104_290">
<rect width="158.148" height="158.148" fill="white" transform="translate(71.7832 197.054) rotate(-129.087)"/>
</clipPath>
<clipPath id="clip1_104_290">
<rect width="23.5923" height="23.5923" fill="white" transform="translate(169.544 34.6299) rotate(-159.087)"/>
</clipPath>
<clipPath id="clip2_104_290">
<rect width="17.6739" height="17.6739" fill="white" transform="translate(35.3994 174.941) rotate(-167.892)"/>
</clipPath>
<clipPath id="clip3_104_290">
<rect width="30.7166" height="30.7166" fill="white" transform="translate(73.918 212.892) rotate(-121.177)"/>
</clipPath>
</defs>
</svg>
