<?xml version="1.0" encoding="UTF-8" standalone="no"?>
<!-- Created with Inkscape (http://www.inkscape.org/) -->

<svg
   width="173.82129mm"
   height="60.291004mm"
   viewBox="0 0 173.82129 60.291004"
   version="1.1"
   id="svg1"
   xml:space="preserve"
   inkscape:version="1.4.2 (f4327f4, 2025-05-13)"
   sodipodi:docname="flores.svg"
   xmlns:inkscape="http://www.inkscape.org/namespaces/inkscape"
   xmlns:sodipodi="http://sodipodi.sourceforge.net/DTD/sodipodi-0.dtd"
   xmlns="http://www.w3.org/2000/svg"
   xmlns:svg="http://www.w3.org/2000/svg"><sodipodi:namedview
     id="namedview1"
     pagecolor="#ffffff"
     bordercolor="#000000"
     borderopacity="0.25"
     inkscape:showpageshadow="2"
     inkscape:pageopacity="0.0"
     inkscape:pagecheckerboard="0"
     inkscape:deskcolor="#d1d1d1"
     inkscape:document-units="mm"
     inkscape:zoom="0.71891835"
     inkscape:cx="258.72201"
     inkscape:cy="17.387232"
     inkscape:window-width="1920"
     inkscape:window-height="1009"
     inkscape:window-x="-8"
     inkscape:window-y="-8"
     inkscape:window-maximized="1"
     inkscape:current-layer="layer1" /><defs
     id="defs1" /><g
     inkscape:label="Camada 1"
     inkscape:groupmode="layer"
     id="layer1"
     transform="translate(-36.407674,-143.73357)"><g
       style="fill:none"
       id="g1"
       transform="matrix(0.26458333,0,0,0.26458333,118.65719,157.04541)"><path
         d="m 16.964,32.13 c 4.7296,0.0064 8.6417,-3.5177 8.9756,-7.9664 0.7356,-0.285 1.4238,-0.6811 2.0511,-1.1673 2.0405,-1.5956 3.2238,-4.0683 3.2434,-6.7844 C 31.2475,13.406 29.9915,10.7841 27.8574,9.19286 27.2709,8.76011 26.6429,8.41688 25.973,8.1562 25.7788,3.73151 22.1435,0.242392 17.5175,0.126127 15.1531,0.0676235 12.6444,1.0033 10.9226,3.08502 9.49949,2.70853 7.99818,2.73912 6.50027,3.21215 2.84523,4.36756 0.173244,7.98379 0.145642,11.8057 c -0.010083,1.3961 0.35591,2.9193 1.243938,4.2941 -0.770041,1.2664 -1.184833,2.7216 -1.196263,4.3043 -0.026904,3.7251 2.333513,7.205 5.738113,8.4598 1.54494,0.5709 3.14173,0.6517 4.68667,0.2619 1.6235,2.03 4.0363,2.9942 6.3465,3.0039 z M 12.76,22.921 C 8.81824,27.6824 4.2789,24.1248 4.30555,20.4341 4.31853,18.6373 5.41475,16.8066 8.18389,15.8936 5.33026,15.2165 4.2455,13.5497 4.25788,11.8357 4.28418,8.19342 9.2954,4.34552 12.8573,9.43714 c 0.3289,-7.57955 9.0498,-5.8993 9.0135,-0.87478 -0.0076,1.05051 -0.3932,2.23644 -1.3142,3.52234 4.3627,-1.3922 6.5776,1.3539 6.5647,4.0978 -0.0191,2.6399 -2.1151,5.279 -6.364,4.2047 0.7729,1.1529 1.0944,2.2333 1.0875,3.1943 -0.0364,5.0381 -9.0638,6.8875 -9.0845,-0.6601 z"
         fill="#6e44fe"
         id="path1" /><path
         d="m 21.845,23.5812 c 0.007,-0.9607 -0.3143,-2.0411 -1.0875,-3.1943 4.249,1.0743 6.3449,-1.5645 6.364,-4.2047 0.0129,-2.7439 -2.2019,-5.4897 -6.5647,-4.0978 C 21.4779,10.7985 21.8634,9.61255 21.871,8.56204 21.9073,3.53752 13.1864,1.85727 12.8576,9.43682 9.29562,4.34488 4.2844,8.1931 4.2581,11.8354 c -0.01238,1.714 1.07238,3.3808 3.92601,4.0579 -2.76914,0.9129 -3.86536,2.7437 -3.87834,4.5405 -0.02665,3.6906 4.513,7.2486 8.45443,2.4869 0.0207,7.5476 9.0481,5.6983 9.0845,0.6602 z m -9.8235,-7.5147 c 0.0126,-1.7418 1.4212,-3.1344 3.1483,-3.122 1.7271,0.0125 3.1085,1.4256 3.096,3.1671 -0.0126,1.7415 -1.4209,3.1345 -3.1414,3.122 -1.7206,-0.0124 -3.1154,-1.4326 -3.1029,-3.1671 z"
         fill="#d1ff61"
         id="path2" /><path
         d="m 15.124,19.2336 c -1.7271,-0.0124 -3.1154,-1.4326 -3.1029,-3.1671 0.0126,-1.7345 1.4212,-3.1345 3.1483,-3.122 1.7271,0.0125 3.1086,1.4256 3.096,3.1671 -0.0126,1.7415 -1.4209,3.1345 -3.1414,3.122 z"
         fill="#6e44fe"
         id="path3" /></g><g
       style="fill:none"
       id="g2"
       transform="matrix(0.26458333,0,0,0.26458333,173.60256,139.28274)"><path
         d="M 156.661,62.1853 C 151.179,41.4388 131.168,28.3901 111.272,32.1088 109.166,29.215 106.627,26.6588 103.764,24.4744 94.3907,17.386 82.1695,15.0777 70.2369,18.1558 57.9176,21.366 47.8841,29.9279 43.3928,41.1396 c -1.2143,3.076 -1.9878,6.2293 -2.3504,9.4706 -19.1757,6.0061 -30.2402,26.0112 -25.3609,46.4312 2.498,10.4356 9.5233,20.3466 20.6574,25.4716 0.007,6.678 1.8901,13.226 5.7093,19.243 9.3243,14.681 28.294,22.185 45.0849,17.853 6.1337,-1.582 12.3862,-4.961 17.3799,-10.457 6.45,1.902 13.314,2.025 20.268,0.232 16.365,-4.222 28.875,-18.626 30.411,-35.017 0.703,-7.44 -0.803,-14.5354 -4.312,-20.8559 7.01,-9.4837 8.427,-21.1868 5.779,-31.3282 z m -35.483,29.1624 c 25.47,11.7373 15.158,35.7863 -1.056,39.9693 -7.894,2.036 -17.199,-0.638 -24.4279,-11.717 0.3552,13.302 -5.69,20 -13.22,21.943 C 66.4723,145.67 43.7617,128.179 61.9385,106.629 28.3197,114.017 25.5279,73.8192 47.6023,68.1249 52.2175,66.9344 57.8671,67.2434 64.5783,69.7841 53.3911,52.2757 62.8524,39.3646 74.8994,36.2246 86.4972,33.2329 100.511,39.3492 100.75,59.232 c 4.155,-4.7324 8.518,-7.4008 12.74,-8.49 22.134,-5.7096 40.76,31.7202 7.689,40.604 z"
         fill="#6e44fe"
         id="path1-0" /><path
         d="m 113.489,50.7425 c -4.22,1.0887 -8.583,3.7558 -12.739,8.49 C 100.51,39.3496 86.4977,33.233 74.8986,36.2251 62.8516,39.365 53.3917,52.2757 64.5775,69.7845 57.8662,67.2438 52.2167,66.9348 47.6015,68.1253 25.5271,73.8196 28.3188,114.017 61.9376,106.629 c -18.1782,21.551 4.5339,39.042 20.5357,34.914 7.5299,-1.942 13.5752,-8.641 13.22,-21.943 7.2287,11.079 16.5337,13.754 24.4277,11.717 16.214,-4.182 26.527,-28.233 1.056,-39.9689 33.071,-8.8837 14.446,-46.3136 -7.689,-40.6039 z M 91.9823,102.572 c -7.6522,1.974 -15.4,-2.58 -17.3573,-10.1679 -1.9574,-7.5878 2.6299,-15.2915 10.2807,-17.2651 7.6508,-1.9736 15.3993,2.5788 17.3493,10.1377 1.95,7.5589 -2.6525,15.3293 -10.2727,17.2953 z"
         fill="#d1ff61"
         id="path2-9" /><path
         d="m 102.255,85.2766 c 1.957,7.5876 -2.6529,15.3294 -10.273,17.2954 -7.6201,1.965 -15.3996,-2.5805 -17.3569,-10.1682 -1.9573,-7.5876 2.6299,-15.2911 10.2805,-17.2647 7.6506,-1.9735 15.3994,2.5787 17.3494,10.1375 z"
         fill="#6e44fe"
         id="path3-4" /></g><g
       style="fill:none"
       id="g3"
       transform="matrix(0.26458333,0,0,0.26458333,152.62043,156.9744)"><path
         d="M 50.9027,50.2413 C 56.2271,45.525 57.1064,37.6555 53.039,32.32 c 0.5425,-1.0552 0.9208,-2.1877 1.1406,-3.361 0.7008,-3.8319 -0.4381,-7.794 -3.1285,-10.8676 -2.7872,-3.1683 -6.8179,-4.862 -10.8067,-4.5199 -1.0916,0.0991 -2.1405,0.3403 -3.1541,0.7163 C 32.4531,9.50651 24.8811,9.21381 19.5634,13.703 c -2.717,2.2955 -4.6033,5.8529 -4.4604,9.9132 -1.9761,0.9979 -3.6337,2.5316 -4.8455,4.5595 -2.9559,4.9493 -2.34884,11.6839 1.437,16.0089 1.383,1.5799 3.3156,2.927 5.6871,3.586 0.3989,2.1929 1.3858,4.2434 2.9535,6.0344 3.69,4.2155 9.8194,5.771 14.9007,3.7818 2.3073,-0.901 4.1834,-2.4048 5.5313,-4.3861 3.8528,0.6612 7.5287,-0.6642 10.136,-2.9604 z M 36.9788,44.0851 c 0.323,9.2902 -8.334,9.8233 -11.9899,5.6469 -1.7798,-2.0333 -2.3755,-5.1866 -0.1736,-8.9786 -3.8849,2.0885 -6.7692,1.2977 -8.467,-0.6419 -3.6079,-4.1217 -1.8161,-13.4529 7.2739,-11.2851 -7.1998,-8.8509 4.2841,-15.671 9.2612,-9.9852 1.0406,1.1888 1.7915,2.9074 2.04,5.273 3.5151,-5.9224 8.748,-5.0466 11.4738,-1.9484 2.615,2.9874 2.8938,8.048 -2.9566,11.0834 2.0205,0.5245 3.461,1.4182 4.4129,2.5057 4.9906,5.7012 -3.313,16.7961 -10.874,8.3302 z"
         fill="#6e44fe"
         id="path1-8" /><path
         d="m 47.8531,35.7545 c -0.9516,-1.0872 -2.3917,-1.9812 -4.4129,-2.5057 5.8504,-3.0354 5.5719,-8.0957 2.9566,-11.0833 -2.7258,-3.0983 -7.9584,-3.9737 -11.4738,1.9483 -0.2485,-2.3656 -0.9994,-4.0842 -2.04,-5.273 -4.9771,-5.6858 -16.461,1.1343 -9.2612,9.9852 -9.0903,-2.1682 -10.8818,7.1634 -7.2739,11.2851 1.6978,1.9396 4.5822,2.7304 8.467,0.642 -2.2019,3.7919 -1.6062,6.9452 0.1737,8.9785 3.6558,4.1764 12.3135,3.6434 11.9899,-5.6469 7.561,8.4659 15.8645,-2.629 10.874,-8.3303 z m -18.5504,1.361 c -1.7253,-1.9711 -1.5324,-4.9437 0.4221,-6.6546 1.9545,-1.7108 4.919,-1.5014 6.644,0.4692 1.7251,1.9707 1.5328,4.9434 -0.4143,6.6477 -1.947,1.7043 -4.9337,1.5005 -6.6518,-0.4623 z"
         fill="#d1ff61"
         id="path2-8" /><path
         d="M 35.9545,37.5778 C 34,39.2887 31.0208,39.0783 29.3026,37.1155 c -1.7181,-1.9628 -1.5323,-4.9437 0.4221,-6.6546 1.9545,-1.7108 4.9191,-1.5014 6.6441,0.4693 1.725,1.9706 1.5327,4.9433 -0.4143,6.6476 z"
         fill="#6e44fe"
         id="path3-2" /></g><g
       style="fill:none"
       id="g4"
       transform="matrix(0.26458333,0,0,0.26458333,59.507531,144.94669)"><path
         d="m 184.24,120.168 c 7.33,-23.3098 -4.007,-48.0369 -25.426,-56.5487 -0.27,-4.067 -1.16,-8.0711 -2.59,-11.9147 -4.717,-12.5228 -15.083,-22.1734 -28.444,-26.4619 -13.814,-4.3964 -28.679,-2.2501 -39.8182,5.8162 -3.0388,2.2239 -5.7002,4.7902 -8.0194,7.691 -22.1153,-5.8714 -44.9286,6.6674 -52.6412,29.296 -3.9375,11.5673 -3.1959,25.3802 4.4105,37.0821 -4.0526,6.436 -6.2188,13.885 -6.1983,22 0.0557,19.805 13.7616,38.56 32.5626,44.594 6.8681,2.205 14.9426,2.751 23.0915,0.494 5.0553,5.751 11.5899,10.042 19.3755,12.541 18.325,5.882 39.126,-0.385 50.567,-15.235 5.199,-6.736 8.061,-14.484 8.524,-22.703 12.514,-4.872 20.992,-15.28 24.605,-26.655 z m -51.893,6.515 c 17.393,26.782 -7.154,43.673 -25.309,37.845 C 98.1988,161.691 90.8644,153.461 90.637,138.399 82.8943,151.424 73.0019,154.2 64.5706,151.493 46.6531,145.742 35.4152,115.096 66.0163,105.393 29.1534,92.0734 50.8969,51.669 75.6139,59.6024 80.7817,61.261 86.034,64.9924 90.9522,71.5179 90.8211,47.8591 107.779,41.177 121.288,45.4755 c 12.986,4.1682 22.763,18.5753 10.909,37.8665 6.877,-2.0316 12.7,-1.9495 17.428,-0.4321 24.784,7.9549 19.969,55.3181 -17.276,43.7721 z"
         fill="#6e44fe"
         id="path1-4" /><path
         d="M 149.622,82.9094 C 144.896,81.3925 139.074,81.3088 132.194,83.3415 144.049,64.0503 134.273,49.6437 121.285,45.475 107.777,41.1765 90.8203,47.8591 90.9498,71.5174 86.0316,64.9919 80.7793,61.2605 75.6115,59.6019 50.8945,51.6685 29.151,92.0729 66.0139,105.392 c -30.6027,9.703 -19.3632,40.35 -1.4457,46.101 8.4314,2.706 18.3237,-0.07 26.0664,-13.094 0.2274,15.062 7.5618,23.292 16.4004,26.129 18.156,5.827 42.704,-11.064 25.31,-37.846 37.245,11.546 42.059,-35.8167 17.275,-43.7716 z M 97.4108,119.746 c -8.5683,-2.75 -13.2609,-11.844 -10.5339,-20.3407 2.727,-8.4962 11.8264,-13.1262 20.3931,-10.3766 8.567,2.7497 13.261,11.8433 10.545,20.3063 -2.717,8.464 -11.872,13.15 -20.4042,10.411 z"
         fill="#d1ff61"
         id="path2-5" /><path
         d="m 117.816,109.335 c -2.728,8.497 -11.872,13.15 -20.4045,10.411 -8.5325,-2.739 -13.2609,-11.844 -10.5339,-20.3406 2.727,-8.4963 11.8264,-13.1263 20.3934,-10.3766 8.566,2.7496 13.261,11.8432 10.545,20.3062 z"
         fill="#6e44fe"
         id="path3-5" /></g><g
       style="fill:none"
       id="g5"
       transform="matrix(0.26458333,0,0,0.26458333,41.193712,152.73888)"><path
         d="m 16.0369,32.2214 c 4.4741,0.5211 8.5592,-2.3872 9.3596,-6.5599 0.7271,-0.1895 1.4213,-0.4892 2.0678,-0.881 2.1043,-1.2874 3.4932,-3.498 3.8075,-6.0656 0.3182,-2.6534 -0.5846,-5.2708 -2.4305,-7.0087 -0.5078,-0.4733 -1.0645,-0.8664 -1.67,-1.186 C 27.4695,6.31269 24.41,2.61565 20.0459,2.00187 17.8152,1.68903 15.3398,2.3011 13.484,4.08317 12.1785,3.57198 10.7548,3.43743 9.28606,3.72185 5.7021,4.41697 2.78024,7.54741 2.33791,11.1604 c -0.16158,1.3199 0.01883,2.8008 0.70929,4.1982 -0.86646,1.1143 -1.41738,2.446 -1.60055,3.9422 -0.43113,3.5215 1.42316,7.071 4.5077,8.629 1.39954,0.7084 2.90151,0.9587 4.40575,0.7581 1.3149,2.0974 3.4927,3.2725 5.6774,3.5333 z M 13.0622,23.0507 C 8.81431,27.1263 4.90694,23.266 5.33408,19.777 5.54203,18.0784 6.77857,16.4657 9.49795,15.9035 6.87179,14.9521 6.02699,13.2569 6.22535,11.6367 6.64689,8.19344 11.8072,5.09855 14.6228,10.3038 c 1.1365,-7.13543 9.2046,-4.59598 8.6231,0.1539 -0.1216,0.9931 -0.6155,2.0732 -1.627,3.1895 4.2794,-0.8422 6.0758,1.9972 5.7648,4.592 -0.3055,2.4955 -2.576,4.7642 -6.4791,3.2851 0.6058,1.1749 0.7923,2.2321 0.6811,3.1406 -0.5831,4.7628 -9.3255,5.5294 -8.5232,-1.6139 z"
         fill="#6e44fe"
         id="path1-1" /><path
         d="m 21.5853,24.6646 c 0.1112,-0.9082 -0.0751,-1.9654 -0.6811,-3.1407 3.9031,1.4792 6.1735,-0.7892 6.4791,-3.2851 0.311,-2.5947 -1.4855,-5.4338 -5.7648,-4.592 1.0115,-1.1162 1.5054,-2.1963 1.627,-3.1894 C 23.827,5.70749 15.7589,3.16804 14.6224,10.3035 11.8068,5.09793 6.6465,8.19312 6.22496,11.6363 c -0.19837,1.6203 0.64643,3.3155 3.27259,4.2669 -2.71938,0.5622 -3.95591,2.1749 -4.16386,3.8735 -0.42714,3.4889 3.48049,7.3496 7.72811,3.2737 -0.8023,7.1432 7.9402,6.3766 8.5232,1.6139 z M 13.1094,16.485 c 0.2015,-1.6466 1.6859,-2.8109 3.3186,-2.611 1.6328,0.1999 2.7859,1.6874 2.5843,3.3336 -0.2015,1.6463 -1.6856,2.8109 -3.3121,2.6118 -1.6265,-0.1991 -2.7916,-1.6947 -2.5908,-3.3344 z"
         fill="#d1ff61"
         id="path2-7" /><path
         d="m 15.6999,19.8194 c -1.6327,-0.1999 -2.7916,-1.6947 -2.5908,-3.3344 0.2007,-1.6397 1.6859,-2.8108 3.3187,-2.611 1.6327,0.1999 2.7858,1.6874 2.5842,3.3337 -0.2015,1.6462 -1.6856,2.8108 -3.3121,2.6117 z"
         fill="#6e44fe"
         id="path3-1" /></g><g
       style="fill:none"
       id="g6"
       transform="matrix(0.26458333,0,0,0.26458333,122.46826,176.92105)"><path
         d="m 84.0645,93.9174 c 10.912,-6.6818 14.9408,-20.3446 9.4118,-31.0727 1.2924,-1.6985 2.3181,-3.5858 3.0758,-5.595 C 98.9968,50.6826 98.2238,43.307 94.4236,37.018 90.4817,30.5307 83.8741,26.2649 76.7015,25.6182 74.7367,25.451 72.8032,25.5488 70.8898,25.8964 64.1776,15.9713 50.8573,13.0749 40.0286,19.3565 c -5.5334,3.2127 -9.9918,8.9215 -11.0137,16.1583 -3.8137,1.1469 -7.2312,3.343 -10.0146,6.5543 -6.7899,7.8384 -7.8296,19.9578 -2.482,28.8073 1.9534,3.2328 4.9536,6.2258 8.9472,8.1378 0.0178,4.0095 1.122,7.9514 3.3365,11.6161 5.2121,8.6255 15.5804,13.3057 25.2054,11.3777 4.3698,-0.871 8.1652,-2.9456 11.1748,-6.0317 6.6167,2.3811 13.5439,1.1879 18.8833,-2.0606 z M 61.3348,78.6404 C 58.9894,95.1973 43.4881,93.423 38.3242,84.8773 35.8101,80.7169 35.7452,74.9445 40.8363,68.9194 33.2992,71.3987 28.4386,69.092 26.0405,65.1234 20.9443,56.6898 27.0485,40.7243 42.4685,47.4187 32.4953,29.4803 54.978,21.0065 62.0082,32.6407 c 1.4698,2.4324 2.2602,5.7123 1.9574,9.9805 8.0862,-9.3863 17.08,-6.1917 20.9352,0.1521 3.6936,6.1126 2.5983,15.1639 -8.7176,18.7032 3.4141,1.5634 5.685,3.5987 7.0296,5.8239 C 90.262,78.9661 72.07,96.0105 61.336,78.6407 Z"
         fill="#6e44fe"
         id="path1-15" /><path
         d="M 83.212,67.2997 C 81.8678,65.0753 79.5977,63.0394 76.1824,61.4758 87.4983,57.9365 88.594,48.8859 84.9,42.7726 81.0448,36.4288 72.0514,33.2349 63.9649,42.6205 64.2676,38.3523 63.4772,35.0724 62.0074,32.64 54.9772,21.0058 32.4945,29.4796 42.4677,47.418 27.0472,40.7229 20.9435,56.6891 26.0397,65.1227 c 2.3981,3.9686 7.2587,6.2753 14.7958,3.796 -5.0911,6.0251 -5.0261,11.7975 -2.5121,15.9579 5.1639,8.5457 20.6664,10.3203 23.0106,-6.2369 10.734,17.3698 28.926,0.3254 21.8768,-11.3403 z M 49.9268,63.8849 c -2.437,-4.0331 -1.1617,-9.2379 2.8375,-11.6544 3.9991,-2.4166 9.1844,-1.1147 11.621,2.9176 2.4366,4.0323 1.1624,9.2374 -2.8215,11.6447 -3.9838,2.4073 -9.2101,1.1083 -11.637,-2.9079 z"
         fill="#d1ff61"
         id="path2-2" /><path
         d="m 61.5637,66.7928 c -3.9991,2.4166 -9.2101,1.1083 -11.637,-2.9079 -2.4269,-4.0162 -1.1617,-9.2378 2.8374,-11.6544 3.9991,-2.4165 9.1844,-1.1147 11.621,2.9176 2.4367,4.0323 1.1625,9.2374 -2.8214,11.6447 z"
         fill="#6e44fe"
         id="path3-7" /></g></g></svg>
