<svg width="141" height="80" viewBox="0 0 141 80" fill="none" xmlns="http://www.w3.org/2000/svg">
<path d="M65.329 25.0395C62.7121 29.5162 59.0376 34.0722 54.7021 38.2203C51.6462 41.1367 48.4767 43.6223 45.288 45.6062C43.4062 46.7586 41.5711 47.6954 39.8407 48.3829C39.5099 48.5148 38.3082 48.9176 38.3082 48.9176C38.3082 48.9176 39.1954 49.8264 39.4327 50.0865C39.9534 50.6573 40.6343 51.4161 41.3071 52.2629C43.5857 55.183 45.3117 58.4432 46.1558 61.4397C47.824 67.3332 45.693 70.1474 44.2777 71.2997C43.8268 71.6622 43.3988 71.9346 42.9708 72.1306C42.4924 72.3425 41.9947 72.4895 41.4584 72.5839C41.0809 72.648 40.6922 72.6819 40.3035 72.6819C35.529 72.6819 30.7655 67.8838 27.8957 63.3956C27.3632 62.5798 26.8573 61.692 26.3403 60.6679C26.1771 60.3357 25.474 59.0025 25.474 59.0025C25.474 59.0025 24.6952 60.2146 24.4852 60.4719C23.9912 61.0837 23.4513 61.6732 22.8868 62.2288C20.5073 64.6092 17.9409 66.1614 15.6504 66.6111C15.2032 66.6983 14.7596 66.7394 14.3324 66.7394C12.2095 66.7394 10.4597 65.6664 9.53406 63.7927C8.83831 62.3722 8.32874 59.9011 9.87229 56.2366C10.7631 54.1056 12.2325 51.8766 14.006 49.9619C14.3672 49.5763 14.7566 49.1836 15.2032 48.7605C15.4479 48.5299 16.1355 47.9001 16.1355 47.9001C16.1355 47.9001 15.3003 47.2529 15.0081 47.0793C14.9384 47.0375 14.8679 46.9848 14.7982 46.9358C14.7477 46.902 14.6973 46.8638 14.6424 46.8263C12.3445 45.1335 10.2053 42.697 8.46744 39.7769C6.58566 36.6334 5.31432 33.1577 4.88634 29.9882C4.39234 26.3309 4.9798 23.2487 6.59307 21.0608C7.58849 19.7009 8.92213 18.7338 10.4464 18.2574C11.154 18.0384 11.8965 17.9252 12.659 17.9252C16.1044 17.9252 19.8294 20.1355 23.1575 24.1473C24.7827 26.119 26.1979 28.4129 27.2519 30.7773C27.4196 31.1514 28.0945 32.6374 28.0945 32.6374C28.0945 32.6374 29.0254 31.2155 29.2235 30.879C31.0548 27.7283 33.481 24.4529 36.2381 21.4038C39.2747 18.0412 42.6815 14.9475 46.0913 12.4612C49.6687 9.86974 53.1801 8.00325 56.236 7.07C57.8693 6.57131 59.4166 6.31836 60.8363 6.31836C62.7262 6.31836 64.3862 6.75652 65.7703 7.62563C67.1002 8.46447 68.7447 10.1004 69.0287 13.1112C69.4219 17.3386 66.8785 22.3976 65.3267 25.0381L65.329 25.0395Z" fill="#EA94FF"/>
<path d="M41.319 67.5973C39.2339 69.3031 34.5996 66.1726 31.1757 61.0091C28.0085 56.2449 26.9389 51.3105 28.5982 49.6257C30.3034 47.9119 34.406 50.0429 37.9648 54.7668C41.8426 59.8863 43.4537 65.8396 41.3182 67.5966L41.319 67.5973Z" fill="#D1FF61"/>
<path d="M20.3198 59.2233C16.9916 62.5506 13.5878 63.5876 12.6206 61.7002C11.686 59.8683 13.3327 55.8564 16.4064 52.5472C19.6159 49.0909 23.289 47.5682 24.4906 49.3583C25.7352 51.2197 23.8193 55.7181 20.3206 59.2226L20.3198 59.2233Z" fill="#D1FF61"/>
<path d="M24.141 44.2946C21.2022 47.4691 15.2565 44.0849 11.2451 37.6249C7.68926 31.9037 6.74503 25.4279 8.86046 22.5388C11.0515 19.5509 16.0264 20.9994 20.3655 26.4173C25.2847 32.5724 27.2029 40.9925 24.1417 44.2953L24.141 44.2946Z" fill="#D1FF61"/>
<path d="M51.5211 35.4638C42.0907 44.5044 32.7908 48.0335 30.0456 44.3942C27.4777 41.0035 31.2769 32.0061 39.0399 23.4318C47.6121 13.9494 58.5453 7.61632 62.8793 10.4535C67.5686 13.5041 62.1079 25.3372 51.5211 35.4638Z" fill="#D1FF61"/>
<path d="M106.346 26.2129L105.803 28.3576C105.42 29.8717 104.295 31.633 102.736 31.9212L91.439 33.9974C91.4427 34.0082 91.4479 34.0176 91.4516 34.0284C91.5881 34.4723 91.6192 34.9883 91.5376 35.554C91.5065 35.7897 91.4597 36.0326 91.3893 36.2826L90.8738 38.1498C91.5873 37.4321 92.3773 36.9067 93.2095 36.684C93.2125 36.6646 93.2169 36.6437 93.2192 36.6242C93.3015 36.0585 93.2696 35.5425 93.1331 35.0986C93.1301 35.0878 93.1242 35.0784 93.1205 35.0676L104.417 32.9914C105.976 32.7031 107.101 30.9419 107.484 29.4278L107.891 27.8193L106.623 24.6304C106.576 25.1392 106.487 25.6667 106.346 26.2129Z" fill="#4930C4"/>
<path d="M109.621 35.0602C109.925 35.4321 110.152 35.8876 110.32 36.3999C110.463 36.1383 110.615 35.8825 110.773 35.6339C110.682 35.564 110.592 35.4905 110.495 35.4314L110.498 35.4285L108.81 34.354L108.814 34.3605C109.113 34.5421 109.386 34.7756 109.621 35.0602Z" fill="#4930C4"/>
<path d="M81.6986 39.7985C81.9308 39.957 82.1422 40.1516 82.3254 40.3858C82.4233 40.5112 82.5049 40.6518 82.5835 40.7959L82.6889 40.4255L81.6949 39.7935L81.6979 39.7992L81.6986 39.7985Z" fill="#4930C4"/>
<path d="M114.908 7.00439C114.908 7.00439 114.914 7.00942 114.917 7.01144L114.907 7.00439H114.908Z" fill="#4930C4"/>
<path d="M89.6423 19.3C89.5608 19.2308 89.474 19.1688 89.3842 19.114L89.3857 19.1126L87.6975 18.0381L88.6959 19.8138L88.7152 19.7943C88.7396 20.0177 88.7478 20.2498 88.7241 20.4977L89.6423 19.3Z" fill="#4930C4"/>
<path d="M130.78 12.8869L129.921 17.1113C129.671 18.3372 128.734 19.3504 127.64 19.5709L122.913 20.5308C123.058 20.5078 123.199 20.4926 123.339 20.4926C124.027 20.4926 124.652 20.7852 125.09 21.3084C125.687 22.0183 125.874 23.0812 125.621 24.2991L125.593 24.4281C125.257 26.0143 124.136 27.8592 122.464 28.1669L110.839 30.3036C110.69 30.3303 110.542 30.3454 110.397 30.3454C110.326 30.3454 110.257 30.3361 110.188 30.3296C110.601 31.0149 111.282 31.4156 112.079 31.4156C112.223 31.4156 112.372 31.4005 112.52 31.3738L124.145 29.2371C125.817 28.9293 126.939 27.0852 127.275 25.4983L127.302 25.3693C127.557 24.1507 127.368 23.0884 126.771 22.3786C126.595 22.1682 126.388 21.9966 126.159 21.8648L125.466 21.4237L129.322 20.6404C130.416 20.4206 131.354 19.4066 131.604 18.1808L132.462 13.9563C132.752 12.5482 132.514 11.2993 131.79 10.4453C131.371 9.94948 130.818 9.62158 130.191 9.48682C130.845 10.3365 131.058 11.5356 130.781 12.8854L130.78 12.8869Z" fill="#4930C4"/>
<path d="M115.459 7.48654C116.022 8.17332 116.178 9.17935 115.901 10.3216L115.745 10.9709L117.71 10.5313C117.749 9.74795 117.557 9.06549 117.141 8.55743C116.985 8.36574 116.8 8.20647 116.596 8.08108L114.93 7.021C115.128 7.14495 115.307 7.30133 115.459 7.48726L115.459 7.48654Z" fill="#4930C4"/>
<path d="M72.5593 40.2824L72.3835 40.8438L74.4537 40.4258C74.4656 40.3408 74.476 40.255 74.4827 40.1686C74.5257 39.6598 74.4708 39.1323 74.2364 38.6696C74.232 38.6602 74.226 38.6516 74.2208 38.6422L74.3833 38.6119L79.071 37.75C79.4657 37.678 79.8365 37.5108 80.1881 37.2456C80.4069 37.3364 80.645 37.3825 80.8913 37.3825C81.0047 37.3825 81.1219 37.3746 81.2347 37.3522L83.6928 36.9011L83.7774 36.6049L83.8241 36.4377C84.0466 35.6623 84.3826 35.129 84.8855 34.6253C84.709 34.5121 84.5488 34.3738 84.413 34.2095C84.1942 34.5208 83.948 34.8091 83.6787 35.0483C83.2685 35.4202 82.8072 35.6825 82.3035 35.7769L79.5532 36.2814C79.4397 36.3044 79.3225 36.3116 79.2098 36.3116C78.9635 36.3116 78.7254 36.2662 78.5066 36.1747C78.155 36.4406 77.7841 36.6071 77.3895 36.6792L72.7017 37.5411L72.5393 37.5713C72.5438 37.5807 72.5497 37.5893 72.5549 37.5987C72.7893 38.0621 72.8434 38.5896 72.8011 39.0977C72.77 39.5192 72.6721 39.9286 72.5586 40.2817L72.5593 40.2824Z" fill="#4930C4"/>
<path d="M89.8844 35.8617C89.894 35.8271 89.897 35.7968 89.9051 35.7637C89.8948 35.8062 89.8881 35.8451 89.8762 35.8883C89.8799 35.8804 89.8799 35.8696 89.8836 35.8617H89.8844Z" fill="#4930C4"/>
<path d="M71.1808 39.3979C71.1859 39.3743 71.1881 39.3536 71.1918 39.3301C71.1874 39.3543 71.1844 39.3779 71.1793 39.4029C71.1793 39.4015 71.18 39.3993 71.1808 39.3979Z" fill="#4930C4"/>
<path d="M69.0869 38.7393C68.8414 38.941 68.5929 39.1904 68.3474 39.47H68.3489C68.5937 39.1897 68.8414 38.941 69.0869 38.7393Z" fill="#4930C4"/>
<path d="M68.7543 52.4052C68.7231 52.4657 68.692 52.5378 68.6682 52.6214L67.3012 56.9482C66.848 58.383 65.7896 60.1436 64.2935 60.3792L62.2507 60.6977C62.141 60.7129 62.0319 60.7208 61.9266 60.7208C61.2976 60.7208 60.7235 60.4361 60.3482 59.9389C60.3282 59.9158 60.3126 59.8899 60.2978 59.8632C59.7741 60.5651 59.1058 61.1157 58.3247 61.2375L45.0588 63.3058C44.9534 63.3209 44.8481 63.3288 44.7465 63.3288C44.3541 63.3288 43.9855 63.2143 43.6769 63.0045H43.6643L45.3525 64.0783V64.0718C45.6633 64.2837 46.0327 64.3997 46.4273 64.3997C46.5289 64.3997 46.6342 64.3918 46.7395 64.3767L60.0055 62.3084C60.7383 62.1945 61.3703 61.7009 61.8784 61.0609L62.5081 61.4616C62.8271 61.6749 63.2061 61.7924 63.6081 61.7924C63.7134 61.7924 63.8232 61.7845 63.9323 61.7693L65.975 61.4508C67.4711 61.2152 68.5295 59.4546 68.9827 58.0198L70.3498 53.693C70.3728 53.6094 70.4047 53.5373 70.4358 53.4768L73.8337 52.8729L74.2632 51.4272L68.755 52.4066L68.7543 52.4052Z" fill="#4930C4"/>
<path d="M74.0615 58.3071L74.0987 58.3306C74.0879 58.3238 74.0778 58.3147 74.067 58.3071H74.0623H74.0615Z" fill="#4930C4"/>
<path d="M51.8999 25.9487C51.8999 25.9487 51.9075 25.9542 51.9119 25.9564L51.8999 25.9487Z" fill="#4930C4"/>
<path d="M134.751 31.5577C134.491 31.2572 134.193 31.0078 133.869 30.8132L133.87 30.8118L132.182 29.7373L132.183 29.7402C132.51 29.9348 132.809 30.1856 133.07 30.4868C134.179 31.7659 134.566 33.9063 134.129 36.358L133.691 38.8024C133.375 40.5709 132.16 42.5145 130.445 42.8143L126.515 43.5011C126.581 43.5616 126.648 43.6265 126.706 43.6985C127.351 44.4502 127.565 45.596 127.315 46.9285L127.288 47.0726C126.956 48.8144 125.792 50.8186 124.018 51.096L111.53 53.0396C111.346 53.0699 111.159 53.085 110.979 53.085C110.376 53.085 109.809 52.9236 109.312 52.6224L110.909 53.6385C111.425 53.9743 112.022 54.1552 112.659 54.1552C112.839 54.1552 113.027 54.1401 113.21 54.1098L125.699 52.1662C127.473 51.8895 128.637 49.8853 128.969 48.1428L128.996 47.9987C129.246 46.6662 129.031 45.5203 128.387 44.7687C128.329 44.6966 128.262 44.6318 128.196 44.5712L132.125 43.8845C133.84 43.5847 135.055 41.6411 135.372 39.8726L135.81 37.4281C136.247 34.9765 135.86 32.8354 134.75 31.557L134.751 31.5577Z" fill="#4930C4"/>
<path d="M69.1095 23.0591C69.3046 23.3207 69.4455 23.6097 69.5464 23.9131C69.6651 23.7286 69.7882 23.5484 69.915 23.3726L68.439 22.4336L68.4412 22.4372C68.6941 22.5979 68.9196 22.8055 69.1102 23.0598L69.1095 23.0591Z" fill="#4930C4"/>
<path d="M86.4005 34.9253C86.3879 34.9376 86.3745 34.9491 86.3618 34.9628C86.3559 34.9693 86.35 34.978 86.3433 34.9844C86.3626 34.9635 86.3819 34.9448 86.402 34.9253C86.402 34.9253 86.4012 34.9253 86.4005 34.9253Z" fill="#4930C4"/>
<path d="M46.4675 34.5286C46.5431 34.5286 46.5936 34.5761 46.6173 34.6604C46.5943 34.5754 46.5446 34.5278 46.4682 34.5278C46.4527 34.5278 46.4408 34.5314 46.4252 34.5314L43.3403 35.1598L46.4245 34.5329C46.44 34.53 46.4541 34.5286 46.4675 34.5286Z" fill="#4930C4"/>
<path d="M80.5649 27.9061C80.5234 27.8614 80.4707 27.8369 80.4069 27.8369C80.3966 27.8369 80.3839 27.8398 80.3713 27.842C80.3832 27.8405 80.3958 27.8384 80.4077 27.8384C80.4707 27.8384 80.5234 27.8621 80.5642 27.9061H80.5649Z" fill="#4930C4"/>
<path d="M39.3215 37.5589C39.1628 37.5589 39.1213 37.3384 39.1999 37.0257C39.1205 37.3384 39.1621 37.5604 39.323 37.5604C39.3341 37.5604 39.346 37.5568 39.3616 37.5568L42.9308 36.8477L39.3608 37.5546C39.3468 37.5575 39.3334 37.5589 39.3215 37.5589Z" fill="#4930C4"/>
<path d="M72.6099 29.4177L77.6812 28.3872L72.6099 29.4163C72.3629 29.4689 72.044 29.8458 71.8459 30.307C72.0447 29.8444 72.3644 29.4675 72.6099 29.417V29.4177Z" fill="#4930C4"/>
<path d="M116.285 40.1757C116.28 40.1764 116.277 40.1757 116.273 40.1771C116.278 40.1771 116.28 40.1771 116.285 40.1771L126.743 38.253C126.832 38.2364 126.923 38.1903 127.012 38.1211C126.924 38.1896 126.833 38.2357 126.744 38.2523L116.285 40.1771V40.1757Z" fill="#4930C4"/>
<path d="M63.9421 43.9147C64.0363 44.0401 64.1141 44.1727 64.1883 44.3096L64.304 43.9536L63.385 43.3691L63.3895 43.3778C63.5949 43.5248 63.7818 43.7028 63.9421 43.9154V43.9147Z" fill="#4930C4"/>
<path d="M67.1552 38.4932C66.7858 38.4702 66.4379 38.3527 66.1442 38.1423C65.9803 38.0284 65.8319 37.8879 65.7073 37.7207C65.2111 38.3924 64.5546 38.9732 63.7543 39.1209L62.4103 39.3674C62.2849 39.3905 62.1559 39.4013 62.0275 39.4013C61.6589 39.4013 61.311 39.3011 61.0106 39.1188L62.5927 40.1255C62.9139 40.3489 63.2981 40.4722 63.7083 40.4722C63.8374 40.4722 63.9664 40.4606 64.0911 40.4383L65.4351 40.1918C65.6621 40.15 65.8757 40.0708 66.0782 39.967C66.1338 39.8783 66.1857 39.7854 66.2428 39.6989C66.5277 39.2651 66.8325 38.8608 67.1552 38.4932Z" fill="#4930C4"/>
<path d="M107.632 50.2393C106.479 52.3537 104.819 54.0876 102.951 54.3801L89.517 56.4715C89.3486 56.4981 89.181 56.5097 89.0171 56.5097C88.1151 56.5097 87.3022 56.1147 86.7318 55.3977C86.5523 55.17 86.3958 54.9084 86.2704 54.6237C85.7119 55.967 84.7195 57.2008 83.4659 57.3982L81.1725 57.755C81.059 57.7701 80.9455 57.7816 80.8328 57.7816C80.1919 57.7816 79.5948 57.489 79.2002 56.9846C79.1809 56.9579 79.1653 56.9312 79.1453 56.9046C78.5905 57.675 77.8754 58.263 77.0514 58.3927L75.536 58.6284C75.4262 58.6471 75.3135 58.6551 75.2037 58.6551C74.8062 58.6551 74.4286 58.5434 74.1067 58.3387L75.7489 59.3836V59.3822C76.0797 59.6034 76.4706 59.7252 76.8845 59.7252C76.9943 59.7252 77.107 59.7173 77.2168 59.6986L78.7322 59.4629C79.5102 59.3411 80.1889 58.8078 80.7289 58.1009L81.3616 58.5037V58.5008C81.6984 58.7264 82.0959 58.8525 82.5128 58.8525C82.6263 58.8525 82.7398 58.841 82.8525 58.8258L85.146 58.4691C86.2341 58.2976 87.1242 57.3463 87.7057 56.2207L89.1476 57.1381V57.1366C89.6045 57.4271 90.1334 57.5813 90.6971 57.5813C90.861 57.5813 91.0287 57.5697 91.197 57.5431L104.631 55.4517C106.225 55.2024 107.667 53.9016 108.771 52.2117C108.663 52.1108 108.559 52.0041 108.462 51.8874C108.091 51.4399 107.813 50.8814 107.629 50.24L107.632 50.2393Z" fill="#4930C4"/>
<path d="M60.3935 20.5463C61.0225 21.4082 60.8037 22.5692 60.507 23.3929L60.484 23.4614L62.4778 23.0153C62.4845 22.5274 62.3814 22.0367 62.075 21.6172C61.9519 21.4472 61.8021 21.3045 61.6352 21.1877L61.6381 21.1848L61.5981 21.1589C61.5981 21.1589 61.5951 21.1575 61.5944 21.1567L59.9507 20.1104L59.9536 20.1154C60.1213 20.2321 60.2711 20.3756 60.395 20.5463H60.3935Z" fill="#4930C4"/>
<path d="M46.3687 35.6515C46.4228 35.5513 46.4725 35.4454 46.514 35.3373C46.5489 35.2436 46.5734 35.1571 46.5927 35.0757C46.5734 35.1578 46.5474 35.2443 46.5125 35.338C46.4718 35.4461 46.4228 35.552 46.3687 35.6522V35.6515Z" fill="#4930C4"/>
<path d="M71.3876 31.8574C71.3794 32.0282 71.4077 32.1651 71.4747 32.2408C71.4092 32.1651 71.3794 32.0282 71.3876 31.8574Z" fill="#4930C4"/>
<path d="M127.596 37.0631C127.544 37.3333 127.433 37.5913 127.294 37.7996C127.433 37.5913 127.544 37.334 127.597 37.0645C127.707 36.4873 127.538 36.0815 127.23 36.0815H127.229C127.538 36.0815 127.705 36.488 127.596 37.0631Z" fill="#4930C4"/>
<path d="M56.6672 34.1339C56.6442 34.1793 56.6204 34.2327 56.5967 34.2896L55.2334 38.0961C54.7728 39.3753 53.7566 40.9578 52.4014 41.2086L50.5731 41.5423C50.4477 41.5653 50.3231 41.5761 50.2022 41.5761C49.6941 41.5761 49.2335 41.3866 48.8819 41.0522L48.804 41.2612C47.8591 43.8267 45.8823 46.7497 43.7884 47.1064L36.4326 48.351C36.3228 48.3697 36.2101 48.3813 36.0966 48.3813C35.7361 48.3813 35.3979 48.2804 35.1071 48.0995H35.1019L36.7293 49.1343C36.733 49.1372 36.7375 49.1394 36.7412 49.1423L36.7901 49.1733V49.1711C37.0809 49.3513 37.4184 49.4522 37.7781 49.4522C37.8916 49.4522 38.0051 49.4406 38.1141 49.4219L45.4699 48.1773C47.5638 47.8206 49.5406 44.8983 50.4855 42.3321L50.5634 42.1231C50.915 42.4568 51.3756 42.647 51.8837 42.647C52.0046 42.647 52.13 42.6355 52.2546 42.6131L54.083 42.2795C55.4381 42.0287 56.4543 40.4461 56.9149 39.167L58.2782 35.3605C58.3012 35.3036 58.325 35.2502 58.3487 35.2048L60.591 34.7487L61.1094 33.231L56.6679 34.1339H56.6672Z" fill="#4930C4"/>
<path d="M52.5149 26.5281C52.5579 26.5886 52.5927 26.6535 52.6283 26.714L52.7181 26.469L51.9437 25.9761C52.1618 26.1231 52.3554 26.3083 52.5156 26.5274L52.5149 26.5281Z" fill="#4930C4"/>
<path d="M80.3181 29.631L80.5866 28.7598C80.6185 28.6531 80.6378 28.5544 80.6512 28.4614C80.6378 28.5544 80.6178 28.6524 80.5851 28.7583L80.3181 29.631Z" fill="#4930C4"/>
<path d="M79.448 30.786L71.6761 32.3037C71.6709 32.3044 71.6664 32.3044 71.6613 32.3051C71.6664 32.3051 71.6702 32.3051 71.6761 32.3037L79.4502 30.7853C79.5852 30.7593 79.7388 30.6368 79.8827 30.4624C79.7388 30.6361 79.5837 30.7593 79.448 30.7853V30.786Z" fill="#4930C4"/>
<path d="M67.0937 23.5715C66.9995 23.5715 66.9024 23.583 66.8007 23.6053L58.5578 25.4502C58.5385 25.4538 58.523 25.4581 58.5029 25.4581C58.2804 25.4581 58.2374 25.1129 58.3976 24.6575L59.0348 22.8926C59.3626 21.9738 59.2847 21.2949 58.8627 21.2949C58.8278 21.2949 58.7885 21.2985 58.7492 21.3101L58.3427 21.4052C57.0655 21.7086 55.3031 23.9404 54.4011 26.4072L50.0412 38.3023C49.674 39.3005 49.7519 40.0593 50.2014 40.0593C50.2244 40.0593 50.2519 40.0593 50.2838 40.0514L52.1121 39.7177C52.6395 39.619 53.3738 38.6627 53.7566 37.5997L55.1236 33.7889C55.315 33.2535 55.6866 32.7829 55.9558 32.7259L62.9526 31.3062C62.9726 31.3026 62.9875 31.2983 63.0075 31.2983C63.2419 31.2983 63.2886 31.6781 63.1128 32.1862L61.7807 36.0763C61.4291 37.101 61.5426 37.8829 62.0269 37.8829C62.0581 37.8829 62.0892 37.8793 62.1211 37.875L63.4614 37.6285C64.0274 37.5226 64.7973 36.5317 65.1645 35.4349L67.7346 27.7642C68.5468 25.3392 68.2464 23.57 67.0937 23.57V23.5715Z" fill="#6E44FF"/>
<path d="M109.767 28.3268C109.9 28.6605 110.115 28.8277 110.396 28.8277C110.447 28.8277 110.494 28.8241 110.544 28.8125L122.174 26.6758C122.955 26.5317 123.795 25.3815 124.061 24.1254L124.089 23.9964C124.331 22.8426 123.999 22.0117 123.339 22.0117C123.284 22.0117 123.225 22.0197 123.167 22.0305L112.472 24.1182C112.444 24.1261 112.413 24.1297 112.385 24.1297C112.256 24.1297 112.143 24.0577 112.077 23.902L111.526 22.5738C111.448 22.3843 111.46 22.122 111.522 21.8453L111.663 21.268L127.32 18.0878C127.781 17.9927 128.262 17.4428 128.387 16.8165L129.25 12.5921C129.579 10.9792 128.966 9.86728 127.848 9.86728C127.715 9.86728 127.574 9.88241 127.43 9.91628L114.292 12.858C114.265 12.8616 114.238 12.8659 114.21 12.8659C113.917 12.8659 113.777 12.4861 113.898 11.9781L114.382 9.97826C114.628 8.95349 114.351 8.21338 113.784 8.21338C113.73 8.21338 113.671 8.22131 113.613 8.23644L111.949 8.62703C111.257 8.7899 110.461 9.83413 110.183 10.9461L108.773 16.5859C108.758 16.6811 108.738 16.7755 108.715 16.8742L108.683 16.9881C108.66 17.0868 108.629 17.1891 108.597 17.2915L107.575 21.3869C107.43 21.9562 107.43 22.4456 107.578 22.8174L109.769 28.3283L109.767 28.3268Z" fill="#6E44FF"/>
<path d="M87.2586 27.4318C87.2779 27.4318 87.2972 27.4282 87.3172 27.4239L100.622 24.7596C100.645 24.756 100.665 24.756 100.685 24.756C100.939 24.756 101.048 25.1092 100.923 25.5833C100.782 26.1224 100.423 26.5966 100.126 26.6535L87.3721 29.1434C86.7349 29.2688 85.9457 30.2784 85.6097 31.4242L85.5749 31.5417C85.5244 31.7204 85.4851 31.8912 85.4614 32.0541C85.3323 32.8699 85.5437 33.4392 86.0088 33.4392C86.0474 33.4392 86.083 33.4356 86.126 33.4313L86.2625 33.4046L89.802 32.7553L91.353 32.4706L102.443 30.429C103.151 30.3 103.979 29.1996 104.287 27.9961L104.83 25.8478C105.518 23.1338 104.881 21.1607 103.412 21.1607C103.291 21.1607 103.166 21.1722 103.033 21.2025L94.3644 23.0092L95.4266 21.6428C95.7471 21.2176 96.1142 20.9258 96.4191 20.8609L105.384 18.9483C106.076 18.8006 106.877 17.7679 107.166 16.622L107.194 16.5082C107.459 15.4646 107.202 14.7051 106.628 14.7051C106.576 14.7051 106.522 14.7087 106.467 14.7238L93.2244 17.6879C92.9314 17.7527 92.5798 18.0143 92.2401 18.4582L88.185 23.7341C87.8416 24.1781 87.5798 24.7171 87.4277 25.2331L87.0487 26.5274C86.8959 27.0362 86.9938 27.4304 87.2593 27.4304L87.2586 27.4318Z" fill="#6E44FF"/>
<path d="M71.625 32.3084C71.6362 32.3084 71.6488 32.3069 71.6614 32.3055C71.6666 32.3055 71.671 32.3055 71.6762 32.304L79.4481 30.7863C79.5839 30.7597 79.7381 30.6372 79.8828 30.4635C80.046 30.2667 80.1936 30.003 80.287 29.7255C80.293 29.7082 80.2996 29.6917 80.3056 29.6744L80.3189 29.6311L80.5859 28.7584C80.6186 28.6525 80.6386 28.5545 80.652 28.4615C80.6876 28.2042 80.6564 28.0046 80.5659 27.9066C80.5244 27.8626 80.4717 27.8389 80.4094 27.8389C80.3975 27.8389 80.3849 27.841 80.3731 27.8425C80.3664 27.8439 80.3605 27.8439 80.3538 27.8454L77.6828 28.3873L72.6115 29.4178C72.366 29.4675 72.0463 29.8452 71.8475 30.3078C71.8453 30.3129 71.8431 30.3172 71.8409 30.3222C71.8357 30.3352 71.8312 30.3489 71.826 30.3626C71.8038 30.4174 71.7823 30.4721 71.7645 30.5291L71.4752 31.4248C71.4225 31.5841 71.3966 31.7297 71.3899 31.8572C71.3817 32.0287 71.4107 32.1649 71.4767 32.2406C71.5152 32.2846 71.5657 32.3091 71.6273 32.3091L71.625 32.3084Z" fill="#EA94FF"/>
<path d="M67.3822 36.9769L72.4564 36.0429L77.1011 35.1889C77.3978 35.132 77.7301 34.8776 78.0736 34.4301L79.359 32.7603L79.023 33.8687C78.8628 34.3926 78.9488 34.7947 79.2107 34.7947C79.2262 34.7947 79.2455 34.7947 79.2611 34.7911L82.0152 34.2867C82.6441 34.1692 83.4445 33.1293 83.7842 31.9791L87.0382 21.0029C87.3349 20.0012 87.1517 19.2646 86.6354 19.2646C86.5924 19.2646 86.5457 19.2683 86.499 19.2798L73.6899 22.1451C72.2754 22.4636 70.4285 24.8324 69.5569 27.4585L67.0024 35.1594C66.7131 36.0249 66.7561 36.7196 67.0684 36.9207C67.1307 36.9625 67.2012 36.9855 67.2835 36.9855C67.3147 36.9855 67.3458 36.9819 67.3814 36.9776L67.3822 36.9769ZM71.4728 31.4242L71.7621 30.5285C71.7807 30.4723 71.8014 30.4168 71.8237 30.362C71.8289 30.349 71.8333 30.3346 71.8385 30.3216C71.8408 30.3166 71.843 30.3123 71.8452 30.3072C72.0432 29.8453 72.3622 29.4684 72.6092 29.4165L77.6805 28.3874L80.3514 27.8455C80.3581 27.844 80.364 27.844 80.3707 27.8426C80.3826 27.8404 80.3959 27.8375 80.4063 27.8375C80.4701 27.8375 80.5228 27.8621 80.5643 27.9067C80.6548 28.0055 80.6867 28.2051 80.6504 28.4616C80.6377 28.5546 80.6177 28.6533 80.5858 28.76L80.3173 29.6313L80.304 29.6745C80.2988 29.6918 80.2914 29.7084 80.2854 29.7257C80.192 30.0031 80.0436 30.2669 79.8812 30.4636C79.7373 30.638 79.5837 30.7605 79.4487 30.7865L71.6746 32.3049C71.6687 32.3063 71.665 32.3049 71.6598 32.3063C71.6472 32.3078 71.6346 32.3092 71.6234 32.3092C71.5619 32.3092 71.5114 32.2847 71.4728 32.2407C71.4068 32.1651 71.3779 32.0281 71.3861 31.8574C71.3927 31.7298 71.4187 31.5842 71.4714 31.425L71.4728 31.4242Z" fill="#6E44FF"/>
<path d="M46.4673 34.5293C46.4533 34.5293 46.4392 34.5307 46.4243 34.5336L43.3402 35.1606L40.0335 35.8344C39.7991 35.8798 39.4668 36.3014 39.2762 36.7907C39.2428 36.8736 39.2191 36.9521 39.2006 37.0264C39.1219 37.3391 39.1635 37.5596 39.3222 37.5596C39.3348 37.5596 39.3474 37.5582 39.3615 37.5553L42.9315 36.8484L45.7642 36.2855C45.9511 36.2502 46.187 35.9857 46.3687 35.6514C46.4228 35.5512 46.4718 35.446 46.5126 35.3371C46.5475 35.2435 46.5734 35.157 46.5927 35.0748C46.6342 34.9019 46.6431 34.757 46.6164 34.6612C46.5927 34.5769 46.543 34.5293 46.4666 34.5293H46.4673Z" fill="#EA94FF"/>
<path d="M50.6553 27.105C50.5811 27.105 50.5069 27.1129 50.4246 27.1316L41.1158 29.2151C39.9513 29.4767 38.2327 31.6364 37.2721 34.0542L35.9088 37.4889C34.9638 39.8613 35.0417 41.6564 36.0534 41.6564C36.1083 41.6564 36.1706 41.6528 36.2329 41.6377L44.3149 40.1308C44.3305 40.1272 44.3424 40.1272 44.3542 40.1272C44.5649 40.1272 44.5812 40.4803 44.4091 40.9358C44.2296 41.4179 43.8973 41.8582 43.6511 41.9L37.6704 42.9853C37.1861 43.0725 36.471 43.9647 36.069 45.001L36.026 45.1069C35.6388 46.1014 35.6744 46.8639 36.0965 46.8639C36.1202 46.8639 36.1432 46.8639 36.1669 46.8559L43.5183 45.6114C44.7103 45.4067 46.417 43.2318 47.3353 40.7491L50.9802 30.8776C51.7887 28.6875 51.6129 27.105 50.656 27.105H50.6553ZM46.5928 35.0754C46.5735 35.1568 46.549 35.244 46.5142 35.337C46.4726 35.4458 46.4229 35.551 46.3688 35.6512C46.1871 35.9856 45.9504 36.2508 45.7643 36.2854L42.9316 36.8482L39.3623 37.5573C39.3468 37.5573 39.3349 37.5609 39.3238 37.5609C39.1628 37.5609 39.1213 37.339 39.2006 37.0262C39.2199 36.952 39.2437 36.8734 39.2763 36.7906C39.4677 36.3012 39.8 35.8797 40.0336 35.8343L43.3403 35.1604L46.4252 34.532C46.4407 34.532 46.4526 34.5284 46.4682 34.5284C46.5446 34.5284 46.5943 34.5767 46.6173 34.661C46.644 34.7569 46.6343 34.9017 46.5935 35.0747L46.5928 35.0754Z" fill="#6E44FF"/>
<path d="M107.214 35.436C107.092 35.436 106.968 35.4476 106.838 35.4742L93.7483 38.1161C92.0957 38.4498 90.0915 41.1566 89.2675 44.1891L87.7677 49.6999C86.9555 52.6906 87.5095 54.991 89.0175 54.991C89.0998 54.991 89.1814 54.9874 89.2675 54.9722L102.706 52.8809C104.573 52.5883 106.721 49.6207 107.483 46.3186L108.811 40.5383C109.492 37.5893 108.773 35.4375 107.214 35.4375V35.436ZM102.53 46.0174L102.272 47.084C102.117 47.7181 101.691 48.3062 101.338 48.3631L92.1699 49.9118C92.1543 49.9154 92.135 49.9197 92.1194 49.9197C91.822 49.9197 91.7011 49.4607 91.8576 48.8762L92.1313 47.8363C92.3034 47.187 92.7173 46.622 93.0496 46.5608L102.171 44.94C102.19 44.9364 102.209 44.9321 102.229 44.9321C102.538 44.9321 102.678 45.3911 102.53 46.0174H102.53Z" fill="#6E44FF"/>
<path d="M102.229 44.9326C102.209 44.9326 102.19 44.9362 102.171 44.9405L93.0495 46.5613C92.7172 46.6218 92.3033 47.1875 92.1312 47.8369L91.8575 48.8768C91.7018 49.4612 91.8227 49.9203 92.1193 49.9203C92.1349 49.9203 92.1542 49.9167 92.1698 49.9123L101.338 48.3636C101.69 48.3067 102.116 47.7187 102.272 47.0845L102.53 46.0179C102.679 45.3917 102.539 44.9326 102.23 44.9326H102.229Z" fill="#EA94FF"/>
<path d="M111.284 51.5404L123.773 49.5968C124.602 49.4678 125.484 48.2038 125.75 46.7992L125.777 46.6551C126.027 45.3457 125.648 44.393 124.922 44.393C124.875 44.393 124.824 44.3966 124.774 44.4045L115.031 46.0519C115.008 46.0555 114.988 46.0555 114.969 46.0555C114.668 46.0555 114.504 45.6383 114.629 45.0574C114.754 44.473 115.156 43.9419 115.492 43.8806L130.169 41.3187C131.013 41.1745 131.908 39.9184 132.153 38.5442L132.591 36.0961C133.142 33.0066 132.169 30.7676 130.399 30.7676C130.251 30.7676 130.099 30.7827 129.942 30.8166L115.176 33.7922C113.316 34.1676 111.23 37.0337 110.507 40.2218L109.19 46.0209C108.48 49.1594 109.268 51.5664 110.98 51.5664C111.077 51.5664 111.179 51.5584 111.284 51.5397V51.5404ZM115.877 39.2511C116.007 38.6479 116.402 38.1262 116.737 38.0628L127.158 36.0889C127.182 36.0838 127.206 36.0817 127.229 36.0817C127.229 36.0817 127.229 36.0817 127.23 36.0817C127.23 36.0817 127.23 36.0817 127.231 36.0817C127.54 36.0817 127.707 36.4881 127.598 37.0647C127.546 37.3342 127.434 37.5914 127.295 37.7997C127.284 37.817 127.273 37.8365 127.261 37.853C127.249 37.8711 127.235 37.8855 127.221 37.9021C127.195 37.9366 127.169 37.972 127.14 38.0022C127.115 38.0289 127.089 38.0498 127.064 38.0721C127.046 38.088 127.029 38.1067 127.011 38.1211C126.923 38.1903 126.832 38.2364 126.742 38.253L116.284 40.1772C116.28 40.1772 116.277 40.1772 116.273 40.1772C116.255 40.18 116.237 40.1822 116.221 40.1822C115.925 40.1822 115.762 39.7837 115.877 39.2511Z" fill="#6E44FF"/>
<path d="M111.53 53.0391L124.019 51.0955C125.792 50.8188 126.957 48.8146 127.288 47.0721L127.316 46.9279C127.566 45.5955 127.351 44.4496 126.707 43.698C126.648 43.6259 126.582 43.561 126.516 43.5005L130.445 42.8137C132.16 42.5139 133.375 40.5703 133.692 38.8018L134.129 36.3574C134.566 33.9057 134.18 31.7647 133.07 30.4862C132.808 30.1843 132.509 29.9342 132.184 29.7396C131.648 29.4197 131.039 29.2489 130.399 29.2489C130.145 29.2489 129.883 29.2755 129.621 29.3289L114.858 32.308C113.269 32.6251 111.846 33.954 110.772 35.6331C110.613 35.8818 110.461 36.1376 110.319 36.3992C110.151 35.8868 109.924 35.4314 109.62 35.0595C109.384 34.7748 109.111 34.5413 108.812 34.3597C108.337 34.0715 107.793 33.9173 107.213 33.9173C106.986 33.9173 106.753 33.9403 106.522 33.9893L93.4318 36.6269C93.3569 36.6421 93.2828 36.663 93.2086 36.6831C92.3771 36.9058 91.5871 37.4312 90.8729 38.1489L91.3884 36.2817C91.4588 36.0309 91.5056 35.7881 91.5367 35.5531C91.619 34.9874 91.5871 34.4714 91.4507 34.0275C91.4477 34.0167 91.4418 34.0073 91.4381 33.9965L102.735 31.9203C104.294 31.6321 105.418 29.8708 105.802 28.3567L106.345 26.212C106.486 25.6658 106.575 25.1383 106.622 24.6295L107.891 27.8184L108.31 28.8727C108.649 29.7245 109.344 30.2535 110.186 30.3298C110.256 30.3363 110.324 30.3457 110.395 30.3457C110.54 30.3457 110.688 30.3306 110.837 30.3039L122.462 28.1672C124.134 27.8594 125.255 26.0153 125.591 24.4284L125.619 24.2994C125.873 23.0808 125.685 22.0185 125.088 21.3087C124.65 20.7848 124.025 20.4929 123.337 20.4929C123.197 20.4929 123.056 20.5081 122.911 20.5311L127.638 19.5712C128.732 19.3514 129.669 18.3374 129.919 17.1116L130.778 12.8871C131.056 11.5374 130.843 10.3375 130.189 9.48854C130.16 9.45179 130.137 9.41215 130.106 9.37684C129.544 8.7124 128.743 8.34847 127.845 8.34847C127.595 8.34847 127.333 8.37874 127.076 8.43567L117.707 10.5313L115.743 10.9709L115.898 10.3216C116.176 9.17938 116.02 8.17335 115.457 7.48657C115.306 7.29992 115.126 7.14426 114.928 7.0203C114.923 7.01742 114.918 7.01382 114.913 7.01094C114.91 7.00949 114.908 7.00877 114.906 7.00733C114.571 6.80411 114.184 6.69385 113.781 6.69385C113.602 6.69385 113.418 6.71691 113.238 6.75871L111.575 7.1493C110.074 7.50602 109.012 9.1801 108.66 10.5883L107.906 13.6092C107.539 13.3397 107.098 13.1877 106.625 13.1877C106.457 13.1877 106.285 13.2064 106.113 13.2446L92.8703 16.2086C92.1946 16.3607 91.5426 16.8234 90.9841 17.5483L89.6408 19.2995L88.7226 20.4972C88.7834 19.8515 88.6795 19.2844 88.4273 18.8224C88.3725 18.7223 88.3191 18.6207 88.2501 18.5313C87.8629 18.0305 87.2769 17.7458 86.6361 17.7458C86.4766 17.7458 86.3119 17.7645 86.148 17.7991L73.3389 20.6688C72.0936 20.9448 70.8942 22.0099 69.9143 23.3734C69.7882 23.5492 69.6651 23.7294 69.5457 23.9139C69.4441 23.6105 69.3039 23.3215 69.1088 23.0599C68.9189 22.8055 68.6927 22.598 68.4398 22.4372C68.0474 22.1879 67.589 22.0539 67.0928 22.0539C66.8821 22.0539 66.667 22.0805 66.4519 22.1259L62.4769 23.0159L60.4832 23.462L60.5062 23.3936C60.8028 22.5698 61.0217 21.4089 60.3927 20.547C60.2688 20.3762 60.119 20.2328 59.9513 20.116C59.6383 19.8977 59.2615 19.7766 58.8617 19.7766C58.7015 19.7766 58.5413 19.7953 58.3811 19.8335L57.9709 19.9323C55.9163 20.418 53.881 23.2984 52.9278 25.8949L52.7172 26.47L52.6274 26.715C52.5926 26.6545 52.557 26.5897 52.5139 26.5291C52.3537 26.3093 52.1601 26.1241 51.9421 25.9778C51.9309 25.9699 51.9191 25.9634 51.9079 25.9562C51.9057 25.9548 51.9027 25.9533 51.8998 25.9512C51.5356 25.7177 51.1076 25.5879 50.6544 25.5879C50.463 25.5879 50.2672 25.611 50.0759 25.6528L40.7671 27.7362C38.7629 28.1837 36.7943 31.0419 35.8137 33.5094L34.4504 36.944C33.9149 38.2873 33.1694 40.7656 34.1968 42.2235C34.4853 42.63 34.8843 42.9218 35.3413 43.066C34.9311 43.6691 34.6848 44.2579 34.6069 44.4626L34.5639 44.5685C34.216 45.4564 33.9394 46.7053 34.5758 47.6046C34.7204 47.8079 34.9014 47.9736 35.1054 48.1004C35.3961 48.2821 35.7351 48.3822 36.0949 48.3822C36.2083 48.3822 36.3218 48.3707 36.4309 48.352L43.7867 47.1074C45.8806 46.7507 47.8573 43.8284 48.8023 41.2622L48.8802 41.0532C49.2318 41.3868 49.6924 41.5771 50.2005 41.5771C50.3214 41.5771 50.4467 41.5656 50.5713 41.5432L52.3997 41.2096C53.7549 40.9588 54.771 39.3762 55.2317 38.0971L56.595 34.2906C56.618 34.2336 56.6417 34.1803 56.6654 34.1349L61.107 33.2319L60.5885 34.7496L60.2977 35.6C59.872 36.841 59.9269 37.9111 60.4542 38.6174C60.6078 38.8242 60.7962 38.9921 61.0076 39.1204C61.308 39.3027 61.6551 39.4029 62.0245 39.4029C62.1535 39.4029 62.2826 39.3913 62.4072 39.369L63.7512 39.1225C64.5523 38.9748 65.208 38.394 65.7042 37.7223C65.8289 37.8895 65.9772 38.03 66.1411 38.1439C66.4349 38.3543 66.7835 38.4711 67.1521 38.4949C66.8287 38.8624 66.5246 39.2667 66.2398 39.7005C66.1819 39.787 66.1307 39.8807 66.0751 39.9686C65.4254 40.997 64.8846 42.1414 64.5286 43.2526L64.3001 43.956L64.1844 44.312C64.1102 44.175 64.0316 44.0424 63.9382 43.9171C63.778 43.7045 63.591 43.5272 63.3856 43.3794C62.9702 43.0818 62.4755 42.9182 61.934 42.9182C61.7508 42.9182 61.5587 42.937 61.368 42.9752L49.84 45.3014C48.0865 45.6545 47.1445 48.1631 47.0392 48.4478L43.1287 59.3708C42.789 60.3155 42.5309 61.6329 43.2066 62.5553C43.3372 62.7348 43.4952 62.8854 43.6724 63.0057C43.981 63.2154 44.3496 63.33 44.742 63.33C44.8436 63.33 44.949 63.3221 45.0543 63.307L58.3203 61.2387C59.1013 61.1169 59.7696 60.567 60.2933 59.8644C60.3089 59.8911 60.3244 59.9177 60.3437 59.9401C60.719 60.4373 61.2931 60.722 61.9221 60.722C62.0275 60.722 62.1372 60.7141 62.2463 60.6989L64.289 60.3804C65.7851 60.1447 66.8435 58.3842 67.2967 56.9494L68.6638 52.6225C68.6868 52.539 68.7187 52.4669 68.7498 52.4064L74.2579 51.427L73.8285 52.8726L73.3085 54.6224C73.0778 55.4007 72.8049 56.8578 73.5822 57.8639C73.7194 58.0397 73.8819 58.1882 74.0614 58.3078C74.0718 58.315 74.0814 58.3229 74.0918 58.3301C74.0955 58.3323 74.0992 58.3344 74.1022 58.3366C74.4241 58.5413 74.8009 58.653 75.1992 58.653C75.309 58.653 75.4217 58.6451 75.5315 58.6263L77.0469 58.3907C77.8709 58.2617 78.586 57.6736 79.1408 56.9025C79.1601 56.9292 79.1757 56.9558 79.1957 56.9825C79.5903 57.487 80.1881 57.7795 80.8283 57.7795C80.9417 57.7795 81.0552 57.768 81.168 57.7529L83.4614 57.3962C84.7157 57.1987 85.7074 55.9657 86.2659 54.6216C86.3913 54.9063 86.5478 55.1679 86.7273 55.3956C87.2977 56.1127 88.1099 56.5076 89.0126 56.5076C89.1765 56.5076 89.3441 56.4961 89.5125 56.4694L102.947 54.3781C104.815 54.0855 106.475 52.3516 107.627 50.2372C107.81 50.8786 108.088 51.4364 108.459 51.8846C108.557 52.0021 108.66 52.108 108.769 52.2089C108.937 52.3667 109.117 52.5051 109.309 52.6211C109.806 52.9223 110.372 53.0838 110.975 53.0838C111.155 53.0838 111.343 53.0686 111.527 53.0384L111.53 53.0391ZM72.5557 37.5998C72.5512 37.5904 72.5453 37.5818 72.5401 37.5724L72.7025 37.5421L77.3903 36.6802C77.7849 36.6082 78.1558 36.441 78.5074 36.1758C78.7262 36.2666 78.9643 36.3127 79.2105 36.3127C79.324 36.3127 79.4412 36.3048 79.554 36.2824L82.3043 35.778C82.8079 35.6829 83.2693 35.4213 83.6795 35.0494C83.9487 34.8102 84.195 34.5219 84.4138 34.2106C84.5495 34.3749 84.7098 34.5132 84.8863 34.6264C84.3841 35.1301 84.0474 35.6634 83.8249 36.4388L83.7781 36.606L83.6936 36.9022L82.6885 40.4255L82.5832 40.7959C82.5053 40.6518 82.423 40.5112 82.3251 40.3858C82.1419 40.1516 81.9305 39.9571 81.6983 39.7985C81.2562 39.4973 80.7378 39.3344 80.177 39.3344C79.9738 39.3344 79.7705 39.3575 79.5636 39.395L74.4538 40.4269L72.3836 40.8449L72.5594 40.2835C72.6729 39.9304 72.77 39.5203 72.8019 39.0995C72.8449 38.5907 72.7901 38.0632 72.5557 37.6005V37.5998ZM107.572 21.3851L108.595 17.2896C108.626 17.1873 108.657 17.085 108.681 16.9862L108.712 16.8724C108.735 16.7736 108.755 16.6785 108.771 16.5841L110.181 10.9443C110.458 9.83229 111.255 8.78879 111.946 8.6252L113.611 8.23461C113.669 8.21947 113.728 8.21154 113.782 8.21154C114.349 8.21154 114.626 8.95166 114.38 9.97643L113.896 11.9762C113.775 12.485 113.915 12.8641 114.208 12.8641C114.235 12.8641 114.263 12.8605 114.29 12.8562L127.428 9.91445C127.572 9.88058 127.713 9.86544 127.845 9.86544C128.963 9.86544 129.576 10.9774 129.248 12.5902L128.385 16.8147C128.26 17.441 127.779 17.9915 127.318 18.0859L111.661 21.2662L111.52 21.8434C111.458 22.1202 111.446 22.3825 111.524 22.572L112.075 23.9002C112.141 24.0558 112.254 24.1279 112.383 24.1279C112.411 24.1279 112.442 24.1243 112.469 24.1164L123.165 22.0286C123.224 22.0171 123.282 22.0099 123.336 22.0099C123.997 22.0099 124.329 22.8408 124.086 23.9946L124.059 24.1236C123.793 25.3797 122.954 26.5298 122.172 26.674L110.542 28.8107C110.492 28.8222 110.444 28.8258 110.394 28.8258C110.113 28.8258 109.898 28.6587 109.765 28.325L107.574 22.8141C107.425 22.4423 107.425 21.9522 107.57 21.3837L107.572 21.3851ZM88.1841 23.7344L92.2391 18.4585C92.5788 18.0146 92.9304 17.7523 93.2234 17.6881L106.466 14.7241C106.521 14.709 106.575 14.7054 106.627 14.7054C107.201 14.7054 107.459 15.4642 107.193 16.5084L107.165 16.6223C106.876 17.7681 106.075 18.8008 105.383 18.9486L96.4181 20.8612C96.114 20.926 95.7461 21.2179 95.4256 21.6431L94.3635 23.0094L103.032 21.2028C103.165 21.1725 103.29 21.161 103.411 21.161C104.88 21.161 105.517 23.1348 104.829 25.8481L104.286 27.9964C103.978 29.1999 103.149 30.3003 102.442 30.4293L91.352 32.4709L89.801 32.7556L86.2615 33.4049L86.125 33.4315C86.082 33.4351 86.0471 33.4395 86.0078 33.4395C85.5427 33.4395 85.3321 32.8702 85.4604 32.0544C85.4841 31.8915 85.5227 31.7207 85.5739 31.542L85.6087 31.4245C85.9447 30.278 86.734 29.269 87.3711 29.1437L100.125 26.6538C100.422 26.5969 100.782 26.1227 100.922 25.5836C101.047 25.1094 100.937 24.7563 100.684 24.7563C100.665 24.7563 100.645 24.7563 100.621 24.7599L87.3162 27.4242C87.2969 27.4278 87.2777 27.4321 87.2576 27.4321C86.9921 27.4321 86.8942 27.0372 87.047 26.5291L87.426 25.2348C87.5781 24.7188 87.8399 24.1798 88.1833 23.7359L88.1841 23.7344ZM47.3344 40.7491C46.4161 43.231 44.7094 45.4059 43.5174 45.6113L36.1661 46.8559C36.1423 46.8638 36.1193 46.8638 36.0956 46.8638C35.6735 46.8638 35.6387 46.1006 36.0251 45.1069L36.0682 45.0009C36.4702 43.9646 37.1852 43.0732 37.6696 42.9852L43.6502 41.8999C43.8964 41.8581 44.2287 41.4178 44.4082 40.9357C44.5803 40.4803 44.5647 40.1271 44.3534 40.1271C44.3415 40.1271 44.3296 40.1271 44.314 40.1307L36.2321 41.6376C36.1698 41.6528 36.1067 41.6564 36.0526 41.6564C35.0408 41.6564 34.963 39.8612 35.9079 37.4888L37.2713 34.0542C38.2325 31.6364 39.9511 29.4766 41.1149 29.215L50.4237 27.1316C50.5061 27.1129 50.5795 27.1049 50.6544 27.1049C51.6112 27.1049 51.787 28.6875 50.9785 30.8775L47.3336 40.7491H47.3344ZM65.1635 35.4357C64.7964 36.5325 64.0264 37.5234 63.4605 37.6294L62.1202 37.8758C62.089 37.8794 62.0579 37.8837 62.026 37.8837C61.5416 37.8837 61.4289 37.1018 61.7797 36.0771L63.1119 32.187C63.2877 31.6782 63.2409 31.2991 63.0065 31.2991C62.9865 31.2991 62.9717 31.3027 62.9517 31.3071L55.9549 32.7267C55.6856 32.7837 55.314 33.2543 55.1226 33.7897L53.7556 37.6005C53.3729 38.6635 52.6386 39.6198 52.1112 39.7185L50.2828 40.0522C50.2516 40.0601 50.2242 40.0601 50.2005 40.0601C49.751 40.0601 49.6731 39.3013 50.0402 38.3032L54.4002 26.4081C55.3021 23.9413 57.0645 21.7094 58.3418 21.406L58.7482 21.3109C58.7868 21.2993 58.8261 21.2957 58.8617 21.2957C59.2838 21.2957 59.3617 21.9753 59.0338 22.8934L58.3967 24.6583C58.2372 25.1138 58.2795 25.459 58.502 25.459C58.5213 25.459 58.5368 25.4553 58.5569 25.451L66.7998 23.6061C66.9014 23.5831 66.9986 23.5723 67.0928 23.5723C68.2454 23.5723 68.5458 25.3408 67.7336 27.7665L65.1635 35.4371V35.4357ZM67.0698 36.9195C66.7575 36.7184 66.7145 36.0237 67.0038 35.1582L69.5583 27.4573C70.4298 24.8305 72.2775 22.4625 73.6913 22.1439L86.5003 19.2786C86.547 19.2671 86.5945 19.2635 86.6368 19.2635C87.1523 19.2635 87.3363 20 87.0396 21.0017L83.7856 31.978C83.4458 33.1281 82.6448 34.168 82.0165 34.2855L79.2624 34.79C79.2469 34.7936 79.2276 34.7936 79.212 34.7936C78.9502 34.7936 78.8641 34.3915 79.0244 33.8675L79.3604 32.7592L78.0749 34.4289C77.7315 34.8764 77.3992 35.1308 77.1025 35.1878L72.4578 36.0417L67.3835 36.9757C67.3487 36.9793 67.3175 36.9836 67.2856 36.9836C67.2033 36.9836 67.1336 36.9606 67.0705 36.9188L67.0698 36.9195ZM60.5432 52.2464L50.6403 54.0076C50.3666 54.0566 49.9883 54.5582 49.7851 55.1383L49.4609 56.068C49.277 56.5955 49.3163 57.0092 49.5552 57.0092C49.5663 57.0092 49.5781 57.0092 49.5937 57.0056L59.5278 55.3279C59.5552 55.3243 59.5864 55.32 59.6101 55.32C60.1101 55.32 60.2391 56.1509 59.8683 57.2787L59.8297 57.4005C59.4388 58.5924 58.6496 59.6511 58.0755 59.7383L44.8132 61.8066C44.7902 61.8102 44.7665 61.8102 44.7472 61.8102C44.2829 61.8102 44.2161 60.9641 44.6063 59.8709L48.5204 48.9436C48.9113 47.8583 49.6494 46.8905 50.1611 46.7838L61.6929 44.4611C61.779 44.4424 61.8613 44.4345 61.9392 44.4345C63.1349 44.4345 63.4241 46.4084 62.5563 49.069L62.2559 49.9835C61.8769 51.1373 61.1114 52.1433 60.5447 52.2456L60.5432 52.2464ZM78.6297 54.4206C78.2663 55.6767 77.4422 56.793 76.8058 56.8917L75.2904 57.1274C75.2593 57.131 75.2319 57.1353 75.2044 57.1353C74.6422 57.1353 74.4664 56.2244 74.818 55.0403L76.1338 50.6112C76.3059 50.0231 76.2354 49.5864 75.9625 49.5864C75.9432 49.5864 75.9276 49.5864 75.9076 49.59L68.0637 50.9867C67.7589 51.04 67.3643 51.5675 67.1729 52.1743L65.8096 56.5047C65.4268 57.7154 64.6376 58.7856 64.0479 58.8807L62.0007 59.1992C61.9778 59.2028 61.9503 59.2028 61.9266 59.2028C61.4066 59.2028 61.282 58.3186 61.6529 57.1764L66.0202 43.7066C66.0766 43.5329 66.1367 43.3607 66.2005 43.1899C66.2175 43.1431 66.2376 43.0977 66.2554 43.0515C66.3028 42.9283 66.3503 42.8044 66.4007 42.6833C66.4289 42.6177 66.4586 42.5536 66.4868 42.4887C66.5313 42.3885 66.5736 42.2869 66.6195 42.1889C66.6448 42.1342 66.673 42.0808 66.6989 42.0268C66.7508 41.9194 66.802 41.812 66.8562 41.7075C66.868 41.6845 66.8806 41.6621 66.8925 41.6391C66.9949 41.4438 67.1017 41.255 67.21 41.0697C67.2255 41.0431 67.2411 41.0171 67.2574 40.9905C67.4681 40.6374 67.6876 40.303 67.9146 39.9996C68.0563 39.8108 68.2009 39.6371 68.3463 39.4713C68.5918 39.1917 68.8403 38.9431 69.0858 38.7406C69.476 38.4192 69.8602 38.2052 70.2147 38.1288L70.6717 38.03C70.7102 38.0221 70.7495 38.0185 70.7851 38.0185C70.8423 38.0185 70.8927 38.0315 70.9394 38.0517C70.9535 38.0581 70.9654 38.0689 70.9787 38.0769C71.0099 38.0956 71.0388 38.1165 71.064 38.1446C71.0766 38.1583 71.087 38.1742 71.0982 38.19C71.1204 38.221 71.1404 38.2549 71.1575 38.2938C71.1664 38.3132 71.1745 38.3334 71.1812 38.3543C71.1968 38.3976 71.2087 38.4444 71.2183 38.4949C71.2228 38.5186 71.228 38.541 71.2309 38.5669C71.2383 38.6224 71.2421 38.6829 71.2435 38.7449C71.245 38.7716 71.2472 38.7961 71.2472 38.8242C71.2458 38.8948 71.2406 38.9705 71.2324 39.0483C71.2235 39.1384 71.2087 39.2335 71.1901 39.3323C71.1857 39.3553 71.1835 39.3769 71.179 39.4007C71.179 39.4022 71.1775 39.4043 71.1775 39.4058C71.1486 39.5448 71.113 39.689 71.0655 39.8403L70.4365 41.8365C70.2719 42.3525 70.3423 42.751 70.596 42.751C70.616 42.751 70.6316 42.7474 70.6509 42.7431L79.8781 40.8831C79.9834 40.8644 80.0813 40.8528 80.1748 40.8528C81.5069 40.8528 81.9601 42.9024 81.1554 45.6805L78.6283 54.4213L78.6297 54.4206ZM85.0562 53.385C84.7046 54.6562 83.8842 55.7913 83.2204 55.8979L80.9269 56.2546C80.8957 56.2582 80.8646 56.2626 80.8327 56.2626C80.2504 56.2626 80.0554 55.3365 80.3951 54.141L85.3328 36.8453C85.4159 36.5541 85.5279 36.2695 85.6584 36.0043C85.6636 35.9949 85.6681 35.9855 85.6733 35.9762C85.7356 35.8515 85.8016 35.7311 85.8713 35.6173C85.878 35.6065 85.8847 35.5964 85.8913 35.5856C85.9596 35.4753 86.0301 35.3701 86.1035 35.2728C86.1139 35.2591 86.1243 35.2469 86.1339 35.2339C86.2021 35.1445 86.2719 35.0609 86.3423 34.9846C86.3483 34.9781 86.3542 34.9694 86.3609 34.9629C86.3735 34.9492 86.3868 34.9377 86.3994 34.9255C86.3994 34.9255 86.4002 34.9255 86.4009 34.9255C86.4069 34.9197 86.4128 34.9132 86.4195 34.9074C86.4454 34.8815 86.4721 34.8556 86.4981 34.8318C86.5226 34.8094 86.547 34.7871 86.5715 34.7669C86.6197 34.7266 86.6679 34.6891 86.7162 34.6567C86.731 34.6466 86.7451 34.6394 86.7592 34.6307C86.8 34.6055 86.84 34.5824 86.8801 34.563C86.8964 34.555 86.9127 34.5471 86.929 34.5399C86.981 34.5176 87.0329 34.4988 87.0833 34.488L89.31 34.0095C89.353 33.998 89.3998 33.9944 89.4428 33.9944C89.5043 33.9944 89.5592 34.0081 89.6112 34.0275C89.6282 34.034 89.6431 34.0434 89.6586 34.0513C89.692 34.0693 89.7232 34.0909 89.7528 34.1169C89.7684 34.1306 89.784 34.1443 89.7981 34.1601C89.8285 34.1954 89.8559 34.2358 89.8804 34.2805C89.9264 34.3648 89.9613 34.4664 89.9835 34.5824C89.988 34.6062 89.9902 34.6321 89.9939 34.6567C90.0058 34.7359 90.0132 34.8202 90.0147 34.911C90.0154 34.9492 90.0147 34.9889 90.0132 35.0292C90.0109 35.1135 90.0035 35.2015 89.9924 35.293C89.9865 35.342 89.982 35.3888 89.9739 35.44C89.9568 35.5438 89.9323 35.6526 89.9056 35.7636C89.8975 35.7974 89.8945 35.8277 89.8849 35.8616C89.8811 35.8695 89.8811 35.8803 89.8774 35.8882L85.0569 53.385H85.0562ZM107.483 46.3176C106.721 49.6196 104.573 52.5872 102.705 52.8798L89.267 54.9712C89.181 54.9863 89.0994 54.9899 89.017 54.9899C87.5091 54.9899 86.9543 52.6896 87.7672 49.6989L89.267 44.188C90.0911 41.1555 92.0952 38.4495 93.7478 38.1151L106.838 35.4732C106.967 35.4465 107.092 35.435 107.213 35.435C108.772 35.435 109.49 37.5868 108.811 40.5357L107.483 46.3161V46.3176ZM109.19 46.0214L110.507 40.2223C111.23 37.0341 113.316 34.1688 115.175 33.7926L129.942 30.817C130.098 30.7831 130.25 30.768 130.399 30.768C132.168 30.768 133.141 33.0071 132.59 36.0965L132.153 38.5446C131.906 39.9189 131.012 41.175 130.169 41.3191L115.492 43.881C115.156 43.9416 114.754 44.4734 114.628 45.0578C114.504 45.6387 114.668 46.056 114.968 46.056C114.988 46.056 115.007 46.056 115.03 46.0523L124.773 44.4049C124.824 44.397 124.875 44.3934 124.922 44.3934C125.648 44.3934 126.027 45.3461 125.777 46.6555L125.749 46.7997C125.484 48.2042 124.6 49.4675 123.773 49.5972L111.284 51.5408C111.179 51.5596 111.077 51.5675 110.979 51.5675C109.268 51.5675 108.479 49.1612 109.19 46.0221V46.0214Z" fill="#EA94FF"/>
<path d="M116.22 40.1825C116.237 40.1825 116.254 40.1804 116.272 40.1775C116.276 40.1775 116.28 40.1775 116.284 40.176L126.743 38.2512C126.832 38.2346 126.923 38.1892 127.011 38.12C127.029 38.1063 127.046 38.0869 127.064 38.071C127.089 38.048 127.115 38.0271 127.139 38.0011C127.167 37.9708 127.194 37.9355 127.221 37.9009C127.234 37.8844 127.248 37.8699 127.261 37.8519C127.273 37.8354 127.283 37.8159 127.295 37.7986C127.434 37.5903 127.545 37.3323 127.596 37.0621C127.705 36.487 127.538 36.0813 127.23 36.0806C127.23 36.0806 127.23 36.0806 127.229 36.0806C127.206 36.0806 127.181 36.0827 127.157 36.0878L116.736 38.0616C116.402 38.1251 116.006 38.6475 115.877 39.25C115.762 39.7826 115.924 40.1811 116.22 40.1811V40.1825Z" fill="#EA94FF"/>
<path d="M80.1773 40.8524C80.0831 40.8524 79.986 40.8639 79.8806 40.8827L70.6534 42.7427C70.6341 42.7463 70.6186 42.7506 70.5985 42.7506C70.3449 42.7506 70.2744 42.3521 70.4391 41.8361L71.0681 39.8399C71.1155 39.6878 71.1511 39.5437 71.1801 39.4053C71.1853 39.3801 71.1882 39.3563 71.1927 39.3318C71.2112 39.2331 71.2261 39.138 71.235 39.0479C71.2431 38.9701 71.249 38.8944 71.2498 38.8238C71.2498 38.7957 71.2476 38.7712 71.2461 38.7445C71.2446 38.6818 71.2409 38.622 71.2335 38.5665C71.2298 38.5413 71.2253 38.5182 71.2209 38.4944C71.2112 38.444 71.1993 38.3971 71.1838 38.3539C71.1764 38.333 71.1682 38.3128 71.16 38.2934C71.143 38.2544 71.1229 38.2206 71.1007 38.1896C71.0896 38.1737 71.0792 38.1579 71.0666 38.1442C71.0414 38.1161 71.0117 38.0952 70.9813 38.0764C70.9679 38.0685 70.9561 38.0577 70.942 38.0512C70.8952 38.031 70.8441 38.0181 70.7877 38.0181C70.7528 38.0181 70.7135 38.0217 70.6742 38.0296L70.2173 38.1283C69.862 38.2054 69.4785 38.4195 69.0884 38.7402C68.8428 38.9427 68.5951 39.1913 68.3503 39.4709C67.972 39.9033 67.6019 40.4186 67.26 40.99C67.2444 41.0167 67.2288 41.0427 67.2125 41.0693C67.1035 41.2538 66.9967 41.4433 66.895 41.6386C66.8832 41.6617 66.8706 41.684 66.8587 41.7071C66.8046 41.8116 66.7534 41.919 66.7015 42.0263C66.6755 42.0811 66.6473 42.1337 66.6221 42.1885C66.5761 42.2872 66.5331 42.3881 66.4893 42.4883C66.4611 42.5531 66.4307 42.6173 66.4033 42.6829C66.3528 42.8047 66.3054 42.9279 66.2579 43.0511C66.2401 43.0972 66.2208 43.1426 66.203 43.1895C66.1392 43.3603 66.0791 43.5325 66.0228 43.7062L61.6554 57.1759C61.2846 58.3182 61.4092 59.2024 61.9291 59.2024C61.9521 59.2024 61.9796 59.2024 62.0033 59.1988L64.0505 58.8803C64.6402 58.7851 65.4294 57.715 65.8121 56.5043L67.1754 52.1739C67.3668 51.5664 67.7614 51.0388 68.0662 50.9862L75.9101 49.5896C75.9294 49.586 75.945 49.586 75.965 49.586C76.2387 49.586 76.3084 50.0227 76.1363 50.6108L74.8205 55.0399C74.4689 56.2239 74.6447 57.1348 75.2069 57.1348C75.2344 57.1348 75.2618 57.1312 75.293 57.1269L76.8084 56.8913C77.4448 56.7925 78.2696 55.677 78.6323 54.4201L81.1594 45.6793C81.9642 42.9012 81.511 40.8517 80.1788 40.8517L80.1773 40.8524Z" fill="#6E44FF"/>
<path d="M89.9057 35.7624C89.9332 35.6514 89.9569 35.5426 89.974 35.4388C89.9821 35.3883 89.9866 35.3408 89.9925 35.2918C90.0029 35.2003 90.0111 35.1123 90.0133 35.028C90.0148 34.9877 90.0155 34.9488 90.0148 34.9098C90.0133 34.819 90.0059 34.7347 89.994 34.6554C89.9903 34.6309 89.9881 34.605 89.9836 34.5812C89.9606 34.4645 89.9265 34.3636 89.8805 34.2793C89.856 34.2346 89.8293 34.1942 89.7982 34.1589C89.7841 34.1431 89.7685 34.1294 89.7529 34.1157C89.724 34.0897 89.6929 34.0674 89.6587 34.0501C89.6424 34.0422 89.6276 34.0328 89.6113 34.0263C89.5593 34.0061 89.5045 33.9932 89.4429 33.9932C89.3999 33.9932 89.3531 33.9968 89.3101 34.0083L87.0834 34.4868C87.033 34.4976 86.9818 34.5164 86.9291 34.5387C86.9128 34.5459 86.8965 34.5531 86.8802 34.5618C86.8401 34.5812 86.8001 34.6036 86.7593 34.6295C86.7445 34.6389 86.7304 34.6461 86.7163 34.6554C86.6681 34.6879 86.6198 34.7253 86.5716 34.7657C86.5472 34.7859 86.5227 34.8082 86.4982 34.8306C86.4722 34.8543 86.4455 34.8803 86.4196 34.9062C86.4136 34.912 86.4077 34.9185 86.401 34.9242C86.3817 34.9437 86.3625 34.9624 86.3424 34.9833C86.272 35.059 86.2022 35.1433 86.134 35.2327C86.1244 35.2464 86.114 35.2579 86.1036 35.2716C86.0302 35.3696 85.9597 35.4741 85.8915 35.5844C85.8848 35.5952 85.8781 35.6053 85.8714 35.6161C85.8017 35.7307 85.7357 35.851 85.6734 35.975C85.6689 35.9843 85.6637 35.9937 85.6586 36.0031C85.528 36.2683 85.416 36.5529 85.3329 36.8441L80.3952 54.1398C80.0555 55.3353 80.2506 56.2614 80.8328 56.2614C80.864 56.2614 80.8951 56.2578 80.927 56.2534L83.2205 55.8967C83.8843 55.7908 84.7047 54.6557 85.0563 53.3838L89.8768 35.887C89.8887 35.8438 89.8946 35.8042 89.9057 35.7624Z" fill="#6E44FF"/>
<path d="M62.555 49.0691C63.4228 46.4084 63.1335 44.4346 61.9379 44.4346C61.86 44.4346 61.7776 44.4425 61.6916 44.4612L50.1598 46.7839C49.648 46.8898 48.91 47.8577 48.5191 48.9437L44.605 59.871C44.2141 60.9642 44.2808 61.8102 44.7459 61.8102C44.7652 61.8102 44.7889 61.8103 44.8119 61.8066L58.0742 59.7384C58.6483 59.6512 59.4375 58.5918 59.8284 57.4006L59.8669 57.2788C60.2378 56.1517 60.1095 55.32 59.6088 55.32C59.5858 55.32 59.5539 55.3236 59.5265 55.328L49.5924 57.0057C49.5768 57.0093 49.565 57.0093 49.5538 57.0093C49.3157 57.0093 49.2764 56.5956 49.4596 56.0681L49.7838 55.1384C49.987 54.5576 50.3653 54.0567 50.639 54.0077L60.5419 52.2465C61.1079 52.1441 61.8733 51.1381 62.2531 49.9843L62.5535 49.0698L62.555 49.0691Z" fill="#6E44FF"/>
</svg>
