<svg width="750" height="126" viewBox="0 0 750 126" fill="none" xmlns="http://www.w3.org/2000/svg">
<g clip-path="url(#clip0_34_1633)">
<path d="M732.115 27.0459C729.965 31.6312 728.159 37.0645 726.802 43.118C725.904 47.0477 725.202 51.2443 724.703 55.6372C721.594 50.4317 717.806 47.3421 713.694 47.3421C710.429 47.3421 707.359 49.2853 704.671 52.7125C700.154 41.0452 693.627 33.704 686.367 33.704C677.317 33.704 669.409 45.0769 665.122 62.0401C662.306 58.1379 659.029 55.8963 655.522 55.8963C652.015 55.8963 648.738 58.1379 645.937 62.0401C641.638 45.0769 633.727 33.704 624.692 33.704C617.424 33.704 610.894 41.0452 606.376 52.7125C603.7 49.2853 600.63 47.3421 597.353 47.3421C593.246 47.3421 589.442 50.4317 586.345 55.6608C583.505 30.3239 573.635 11.6099 561.897 11.6099C550.159 11.6099 540.293 30.3239 537.449 55.6608C534.351 50.4317 530.552 47.3421 526.44 47.3421C523.175 47.3421 520.105 49.2853 517.417 52.7125C512.9 41.0452 506.373 33.704 499.113 33.704C490.063 33.704 482.156 45.0769 477.868 62.0401C475.052 58.1379 471.775 55.8963 468.268 55.8963C464.761 55.8963 461.484 58.1379 458.683 62.0401C454.384 45.0769 446.473 33.704 437.438 33.704C430.166 33.704 423.64 41.0452 419.123 52.7125C416.446 49.2853 413.376 47.3421 410.099 47.3421C405.992 47.3421 402.188 50.4317 399.091 55.6608V55.6372C398.591 51.2443 397.889 47.0477 396.992 43.118C395.634 37.0645 393.832 31.6273 391.679 27.0459C387.173 17.4632 381.208 11.6138 374.643 11.6138C368.077 11.6138 362.113 17.4592 357.607 27.0459C355.458 31.6312 353.651 37.0645 352.294 43.118C351.397 47.0477 350.694 51.2443 350.195 55.6372C347.086 50.4317 343.298 47.3421 339.186 47.3421C335.921 47.3421 332.851 49.2853 330.163 52.7125C325.646 41.0452 319.119 33.704 311.859 33.704C302.809 33.704 294.902 45.0769 290.614 62.0401C287.798 58.1379 284.521 55.8963 281.014 55.8963C277.507 55.8963 274.23 58.1379 271.429 62.0401C267.13 45.0769 259.219 33.704 250.184 33.704C242.912 33.704 236.386 41.0452 231.869 52.7125C229.192 49.2853 226.122 47.3421 222.846 47.3421C218.738 47.3421 214.934 50.4317 211.837 55.6608C208.997 30.3239 199.127 11.6099 187.389 11.6099C175.651 11.6099 165.785 30.3239 162.941 55.6608C159.844 50.4317 156.044 47.3421 151.932 47.3421C148.667 47.3421 145.597 49.2853 142.909 52.7125C138.392 41.0452 131.865 33.704 124.606 33.704C115.555 33.704 107.648 45.0769 103.36 62.0401C100.544 58.1379 97.2671 55.8963 93.76 55.8963C90.253 55.8963 86.9761 58.1379 84.1752 62.0401C79.8762 45.0769 71.9649 33.704 62.9301 33.704C55.6586 33.704 49.1321 41.0452 44.6147 52.7125C41.9386 49.2853 38.8685 47.3421 35.5916 47.3421C31.4838 47.3421 27.6803 50.4317 24.5829 55.6608V55.6372C24.0835 51.2443 23.3813 47.0477 22.4841 43.118C21.1265 37.0645 19.3243 31.6273 17.1709 27.0459C12.6808 17.4632 6.71609 11.6138 0.150635 11.6138V63.8303C4.41447 63.8303 8.43255 66.3035 11.9513 70.6572C14.0617 73.2717 16.0084 76.5693 17.7092 80.4205C19.9484 85.4847 21.7936 91.4833 23.0966 98.1806C23.7129 101.274 24.2084 104.505 24.5946 107.854C27.7037 102.648 31.4916 99.5586 35.6033 99.5586C38.8802 99.5586 41.9503 101.502 44.6264 104.917C46.8149 99.2759 49.4637 94.6514 52.4597 91.3812C55.6352 87.8794 59.1929 85.9205 62.9418 85.9205C66.6907 85.9205 70.2485 87.8794 73.4239 91.3812C77.9179 96.3159 81.6668 104.324 84.1869 114.245C86.9878 110.354 90.2647 108.113 93.7717 108.113C97.2788 108.113 100.556 110.354 103.372 114.245C105.881 104.328 109.629 96.3159 114.123 91.3812C117.311 87.8794 120.868 85.9205 124.617 85.9205C128.366 85.9205 131.924 87.8794 135.088 91.3812C138.084 94.6514 140.732 99.2759 142.921 104.917C145.609 101.506 148.679 99.5586 151.944 99.5586C156.052 99.5586 159.855 102.648 162.953 107.881C164.759 91.7306 169.429 78.281 175.6 70.6454C179.134 66.2917 183.152 63.8303 187.401 63.8303C191.649 63.8303 195.667 66.2917 199.201 70.6454C205.369 78.2849 210.042 91.7306 211.848 107.881C214.946 102.652 218.746 99.5586 222.857 99.5586C226.134 99.5586 229.204 101.502 231.88 104.917C234.069 99.2759 236.718 94.6514 239.714 91.3812C242.889 87.8794 246.447 85.9205 250.196 85.9205C253.945 85.9205 257.502 87.8794 260.678 91.3812C265.172 96.3159 268.921 104.324 271.441 114.245C274.242 110.354 277.519 108.113 281.026 108.113C284.533 108.113 287.81 110.354 290.626 114.245C293.134 104.328 296.883 96.3159 301.377 91.3812C304.565 87.8794 308.122 85.9205 311.871 85.9205C315.62 85.9205 319.178 87.8794 322.342 91.3812C325.338 94.6514 327.986 99.2759 330.175 104.917C332.863 101.506 335.933 99.5586 339.198 99.5586C343.306 99.5586 347.094 102.648 350.207 107.854C350.589 104.505 351.088 101.27 351.705 98.1806C353.012 91.4833 354.853 85.4808 357.092 80.4205C358.793 76.5693 360.74 73.2717 362.85 70.6572C366.369 66.3035 370.387 63.8303 374.651 63.8303C378.914 63.8303 382.933 66.3035 386.451 70.6572C388.562 73.2717 390.508 76.5693 392.209 80.4205C394.448 85.4847 396.294 91.4833 397.597 98.1806C398.213 101.274 398.708 104.505 399.095 107.854C402.204 102.648 405.992 99.5586 410.103 99.5586C413.38 99.5586 416.45 101.502 419.126 104.917C421.315 99.2759 423.964 94.6514 426.96 91.3812C430.135 87.8794 433.693 85.9205 437.442 85.9205C441.191 85.9205 444.748 87.8794 447.924 91.3812C452.418 96.3159 456.167 104.324 458.687 114.245C461.488 110.354 464.765 108.113 468.272 108.113C471.779 108.113 475.056 110.354 477.872 114.245C480.381 104.328 484.129 96.3159 488.624 91.3812C491.811 87.8794 495.368 85.9205 499.117 85.9205C502.866 85.9205 506.424 87.8794 509.588 91.3812C512.584 94.6514 515.232 99.2759 517.421 104.917C520.109 101.506 523.179 99.5586 526.444 99.5586C530.552 99.5586 534.355 102.648 537.453 107.881C539.259 91.7306 543.929 78.281 550.1 70.6454C553.634 66.2917 557.652 63.8303 561.901 63.8303C566.149 63.8303 570.171 66.2917 573.701 70.6454C579.869 78.2849 584.542 91.7306 586.349 107.881C589.446 102.652 593.246 99.5586 597.357 99.5586C600.634 99.5586 603.704 101.502 606.38 104.917C608.569 99.2759 611.218 94.6514 614.214 91.3812C617.389 87.8794 620.947 85.9205 624.696 85.9205C628.445 85.9205 632.002 87.8794 635.178 91.3812C639.672 96.3159 643.421 104.324 645.941 114.245C648.746 110.354 652.019 108.113 655.526 108.113C659.033 108.113 662.31 110.354 665.126 114.245C667.634 104.328 671.383 96.3159 675.877 91.3812C679.065 87.8794 682.622 85.9205 686.371 85.9205C690.12 85.9205 693.678 87.8794 696.842 91.3812C699.838 94.6514 702.486 99.2759 704.675 104.917C707.363 101.506 710.433 99.5586 713.698 99.5586C717.806 99.5586 721.594 102.648 724.707 107.854C725.089 104.505 725.588 101.27 726.205 98.1806C727.512 91.4833 729.353 85.4808 731.592 80.4205C733.293 76.5693 735.24 73.2717 737.35 70.6572C740.869 66.3035 744.891 63.8303 749.151 63.8303V11.6138C742.585 11.6138 736.62 17.4592 732.115 27.0459Z" fill="#FBC5FF"/>
</g>
<defs>
<clipPath id="clip0_34_1633">
<rect width="749" height="125" fill="white" transform="translate(0.150635 0.429199)"/>
</clipPath>
</defs>
</svg>
