<?xml version="1.0" encoding="UTF-8" standalone="no"?>
<svg
   width="1441"
   height="71"
   viewBox="0 0 1441 71"
   fill="none"
   version="1.1"
   id="svg14"
   sodipodi:docname="rapport_roxo.svg"
   inkscape:version="1.4.2 (f4327f4, 2025-05-13)"
   xmlns:inkscape="http://www.inkscape.org/namespaces/inkscape"
   xmlns:sodipodi="http://sodipodi.sourceforge.net/DTD/sodipodi-0.dtd"
   xmlns="http://www.w3.org/2000/svg"
   xmlns:svg="http://www.w3.org/2000/svg">
  <defs
     id="defs14" />
  <sodipodi:namedview
     id="namedview14"
     pagecolor="#ffffff"
     bordercolor="#000000"
     borderopacity="0.25"
     inkscape:showpageshadow="2"
     inkscape:pageopacity="0.0"
     inkscape:pagecheckerboard="0"
     inkscape:deskcolor="#d1d1d1"
     inkscape:zoom="0.90509668"
     inkscape:cx="681.69513"
     inkscape:cy="98.884464"
     inkscape:window-width="1920"
     inkscape:window-height="1009"
     inkscape:window-x="-8"
     inkscape:window-y="-8"
     inkscape:window-maximized="1"
     inkscape:current-layer="svg14"
     showgrid="false" />
  <path
     d="M109.035 18.1873C118.042 18.3248 118.042 4.61374 109.035 4.75127C100.029 4.61374 100.029 18.3195 109.035 18.1873Z"
     fill="#FBC5FF"
     id="path1"
     style="fill:#432db6;fill-opacity:1" />
  <path
     d="M387.231 18.1873C396.237 18.3248 396.237 4.61374 387.231 4.75127C378.224 4.61374 378.224 18.3195 387.231 18.1873Z"
     fill="#FBC5FF"
     id="path2"
     style="fill:#432db6;fill-opacity:1" />
  <path
     d="M398.828 6.21109C402.81 6.26927 402.793 0.238952 398.828 0.29185C394.893 0.244242 394.875 6.26927 398.828 6.21109Z"
     fill="#FBC5FF"
     id="path3"
     style="fill:#432db6;fill-opacity:1" />
  <path
     d="M229.3 23.1341C233.241 23.187 233.259 17.1514 229.3 17.2149C225.318 17.1567 225.336 23.187 229.3 23.1341Z"
     fill="#FBC5FF"
     id="path4" />
  <path
     d="M665.438 18.1873C674.444 18.3248 674.444 4.61374 665.438 4.75127C656.431 4.61374 656.431 18.3195 665.438 18.1873Z"
     fill="#FBC5FF"
     id="path5"
     style="fill:#432db6;fill-opacity:1" />
  <path
     d="M507.507 23.1341C511.448 23.187 511.465 17.1514 507.507 17.2149C503.531 17.1567 503.543 23.187 507.507 23.1341Z"
     fill="#FBC5FF"
     id="path6"
     style="fill:#432db6;fill-opacity:1" />
  <path
     d="m 1402.2232,34.974352 c -8.8639,-7.164758 -24.4823,-10.265621 -37.4294,-6.873758 -11.7168,-22.8595994 -57.4471,-29.3893989 -79.64,-10.572526 -19.1382,-6.069481 -42.0227,2.402325 -47.8695,16.456744 -19.4011,-21.081629 -67.6992,-17.134076 -80.7213,6.18052 -8.8329,-8.641064 -26.2463,-12.636234 -40.5816,-8.561736 -18.5373,-16.742543 -58.5411,-14.779368 -74.025,3.365454 -8.8639,-7.164757 -24.4824,-10.265621 -37.4295,-6.873757 C 992.81144,5.2357028 947.07995,-1.2940966 924.88693,17.522767 905.74872,11.453286 882.8642,19.92509 877.01745,33.979511 857.63062,12.89788 809.31178,16.845434 796.29744,40.16003 787.46323,31.518967 770.0512,27.523797 755.7147,31.598294 747.02423,24.412329 734.49031,19.914487 720.52287,19.914487 c -16.03158,0 -30.21657,5.937136 -38.81122,15.054563 -8.864,-7.164757 -24.48251,-10.265621 -37.42952,-6.873757 C 632.56664,5.2357028 586.83616,-1.2940966 564.64277,17.522767 545.50403,11.453286 522.62002,19.92509 516.7733,33.979511 497.37182,12.89788 449.07461,16.845434 436.05275,40.16003 427.2188,31.518967 409.80639,27.523797 395.47106,31.598294 376.93253,14.855752 336.92865,16.818925 321.44481,34.963748 312.58082,27.79899 296.9623,24.698128 284.0153,28.08999 272.2998,5.2304109 226.56959,-1.2993884 204.37658,17.517464 185.23707,11.447983 162.35385,19.919789 156.5071,33.974208 137.12027,12.892579 88.800139,16.840133 75.785788,40.154829 66.951574,31.513664 49.539547,27.518494 35.204344,31.592992 26.512574,24.407028 13.978661,19.909185 0.01122585,19.909185 V 53.796407 C 17.04901,53.738291 32.651977,60.74429 40.91641,71.24279 c 10.634209,-5.000615 26.254012,-4.990012 36.88822,0.03701 14.140965,-20.023267 56.46283,-23.515764 76.06723,-5.762476 11.55104,-5.027025 28.16794,-4.153925 38.6157,1.841431 11.25837,-35.580503 82.70907,-35.60171 93.96745,0 10.49952,-6.011261 27.04263,-6.847348 38.63771,-1.841431 3.79035,-3.137977 8.27089,-5.757275 13.37435,-7.762762 1.41927,-0.502673 2.97968,-1.084772 4.48055,-1.508118 21.38366,-6.598563 47.34463,0.619113 58.18991,15.017451 0,0 0.0226,0 0.0226,-0.01581 10.67254,-4.98471 26.26126,-5.000615 36.9114,0.03701 14.12528,-20.012762 56.47074,-23.521065 76.04478,-5.762576 11.58086,-5.021622 28.17525,-4.159126 38.63774,1.841532 11.25814,-35.580502 82.7096,-35.60171 93.96773,0 10.43996,-5.995357 27.03486,-6.857852 38.58461,-1.857337 8.7073,-7.233581 21.26323,-11.689109 35.21641,-11.705014 17.03649,-0.05823 32.64076,6.947883 40.9039,17.446383 10.63548,-5.000615 26.25401,-4.990011 36.88951,0.03701 14.13966,-20.023366 56.46283,-23.515764 76.06723,-5.762576 11.55104,-5.026923 28.16795,-4.153825 38.6144,1.841532 11.25837,-35.580502 82.7026,-35.60171 93.96876,0 10.4996,-6.011262 27.0414,-6.847349 38.6378,-1.841532 3.7902,-3.137876 8.2709,-5.757174 13.3742,-7.762662 1.418,-0.502772 2.9799,-1.084772 4.4808,-1.508117 21.3822,-6.598563 47.3436,0.619112 58.1888,15.01745 0,0 0.023,0 0.023,-0.0159 10.6718,-4.984609 26.2606,-5.000516 36.9116,0.03711 14.1242,-20.012764 56.4707,-23.521067 76.044,-5.762577 11.5808,-5.021622 28.1756,-4.159127 38.6375,1.841532 11.2586,-35.580603 82.7029,-35.60171 93.9675,0 10.44,-5.995356 27.0349,-6.857952 38.586,-1.857337 8.706,-7.233581 21.2632,-11.689109 35.215,-11.705014 V 19.919789 c -16.0315,0 -30.2166,5.937136 -38.8099,15.054563 z"
     fill="#fbc5ff"
     id="path7"
     style="stroke-width:1.13816;fill:#432db6;fill-opacity:1" />
  <path
     d="m 848.3205,16.6248 c 9.007,0.1375 9.007,-13.57356 0,-13.43603 -9.007,-0.13753 -9.007,13.56823 0,13.43603 z"
     fill="#fbc5ff"
     id="path8"
     style="fill:#432db6;fill-opacity:1" />
  <path
     d="m 1001.3247,11.67984 c 3.981,0.05818 3.964,-5.972138 0,-5.91924 -3.93595,-0.047608 -3.95295,5.97742 0,5.91924 z"
     fill="#fbc5ff"
     id="path9"
     style="fill:#432db6;fill-opacity:1" />
  <path
     d="M785.702 23.1341C789.644 23.187 789.661 17.1514 785.702 17.2149C781.721 17.1567 781.738 23.187 785.702 23.1341Z"
     fill="#FBC5FF"
     id="path10"
     style="fill:#432db6;fill-opacity:1" />
  <path
     d="M1221.84 18.1873C1230.85 18.3248 1230.85 4.61374 1221.84 4.75127C1212.83 4.61374 1212.83 18.3195 1221.84 18.1873Z"
     fill="#FBC5FF"
     id="path11"
     style="fill:#432db6;fill-opacity:1" />
  <path
     d="m 1102.5799,8.7709935 c 3.94,0.0529 3.96,-5.9827 0,-5.9192 -3.98,-0.0582 -3.97,5.9721 0,5.9192 z"
     fill="#fbc5ff"
     id="path12"
     style="fill:#432db6;fill-opacity:1" />
  <path
     d="M1342.1 23.1341C1346.05 23.187 1346.06 17.1514 1342.1 17.2149C1338.12 17.1567 1338.14 23.187 1342.1 23.1341Z"
     fill="#FBC5FF"
     id="path13"
     style="fill:#432db6;fill-opacity:1" />
  <path
     d="m 1564.1161,258.52959 c -6.84,-7.1623 -18.91,-10.2621 -28.9,-6.8714 -9.05,-22.85176 -44.36,-29.37932 -61.5,-10.5689 -14.78,-6.0674 -32.45,2.4015 -36.97,16.4511 -14.98,-21.0744 -52.28,-17.1282 -62.33,6.1784 -6.83,-8.6381 -20.27,-12.6319 -31.34,-8.5588 -14.32,-16.7368 -45.21,-14.7743 -57.17,3.3643 -6.84,-7.1623 -18.9,-10.2621 -28.9,-6.8714 -9.05,-22.85175 -44.36,-29.37931 -61.5,-10.5689 -14.78,-6.0674 -32.45,2.4015 -36.97,16.4511 -14.97,-21.0744 -52.28,-17.1282 -62.33,6.1784 -6.82,-8.6381 -20.27,-12.6319 -31.34,-8.5588 -6.71,-7.1835 -16.39,-11.6798 -27.18,-11.6798 -12.38,0 -23.33,5.9351 -29.97,15.0494 -6.84,-7.1623 -18.89999,-10.2621 -28.89999,-6.8714 -9.05,-22.85175 -44.36,-29.37931 -61.5,-10.5689 -14.78,-6.0674 -32.44998,2.4015 -36.96998,16.4511 -14.98,-21.0744 -52.27,-17.1282 -62.33,6.1784 -6.82,-8.6381 -20.27,-12.6319 -31.34,-8.5588 -14.31,-16.7368 -45.206,-14.7743 -57.163,3.3643 -6.845,-7.1623 -18.906,-10.2621 -28.904,-6.8714 -9.047,-22.85174 -44.361,-29.3793 -61.5,-10.5689 -14.779,-6.0674 -32.451,2.4015 -36.966,16.4511 -14.97,-21.0744 -52.28404,-17.1282 -62.33404,6.1785 -6.822,-8.6382 -20.268,-12.632 -31.338,-8.5589 -6.712,-7.1835 -16.391,-11.6798 -27.177,-11.6798 v 33.8756 c 13.156,-0.0581 25.206,6.9455 31.587,17.4404 8.213,-4.9989 20.274,-4.9883 28.487,0.037 10.919,-20.0164 43.602,-23.5077 58.74104,-5.7605 8.92,-5.0253 21.752,-4.1525 29.82,1.8408 8.693,-35.5683 63.87,-35.5895 72.564,0 8.108,-6.0092 20.882,-6.8449 29.837,-1.8408 2.927,-3.1369 6.387,-5.7553 10.328,-7.7601 1.095,-0.5025 2.301,-1.0844 3.46,-1.5076 16.508,-6.5963 36.558,0.6189 44.938,15.0123 0,0 0.01,0 0.01,-0.0158 8.25,-4.983 20.28,-4.9989 28.51,0.037 10.91,-20.0059 43.61,-23.513 58.72,-5.7606 8.95,-5.0199 21.75998,-4.1577 29.83998,1.8409 8.69,-35.5683 63.87,-35.5895 72.56,0 8.07,-5.9933 20.87999,-6.8555 29.79999,-1.8567 6.72,-7.2311 16.42,-11.6851 27.19,-11.701 13.16,-0.0582 25.21,6.9455 31.59,17.4404 8.21,-4.9989 20.28,-4.9883 28.49,0.037 10.92,-20.0164 43.6,-23.5077 58.74,-5.7606 8.92,-5.0252 21.75,-4.1524 29.82,1.8409 8.69,-35.5683 63.86,-35.5895 72.56,0 8.11,-6.0092 20.89,-6.845 29.84,-1.8409 2.93,-3.1368 6.39,-5.7552 10.33,-7.76 1.09,-0.5026 2.3,-1.0844 3.46,-1.5076 16.51,-6.5963 36.56,0.6189 44.93,15.0123 0,0 0.02,0 0.02,-0.0158 8.24,-4.983 20.28,-4.9989 28.51,0.037 10.9,-20.0059 43.6,-23.513 58.72,-5.7606 8.94,-5.0199 21.76,-4.1577 29.84,1.8409 8.69,-35.5683 63.86,-35.5895 72.56,0 8.06,-5.9933 20.88,-6.8556 29.8,-1.8567 6.72,-7.2311 16.42,-11.6851 27.19,-11.701 v -33.8756 c -12.38,0 -23.33,5.9351 -29.97,15.0494 z"
     fill="#fbc5ff"
     id="path14" />
</svg>
