<svg width="1441" height="44" viewBox="0 0 1441 44" fill="none" xmlns="http://www.w3.org/2000/svg">
<path d="M1465.17 43.408C1476.4 43.408 1486.83 43.1618 1486.83 43.1618L1434.73 0.169434L1404.92 24.4175L1375.11 0.169434L1345.3 24.4175L1315.5 0.169434L1285.69 24.4175L1255.88 0.169434L1226.07 24.4175L1196.27 0.169434L1166.45 24.4175L1136.64 0.169434L1106.83 24.4175L1077.02 0.169434L1047.22 24.4175L1017.41 0.169434L987.6 24.4175L957.79 0.169434L927.988 24.4175L898.177 0.169434L868.367 24.4175L838.556 0.169434L808.746 24.4175L778.943 0.169434L749.133 24.4175L719.323 0.169434L689.512 24.4175L659.71 0.169434L629.899 24.4175L600.089 0.169434L570.279 24.4175L540.468 0.169434L510.666 24.4175L480.855 0.169434L451.045 24.4175L421.234 0.169434L391.432 24.4175L361.621 0.169434L331.811 24.4175L302 0.169434L272.19 24.4175L242.387 0.169434L212.577 24.4175L182.767 0.169434L152.956 24.4175L123.154 0.169434L93.3435 24.4175L63.5331 0.169434L33.7227 24.4175L3.91228 0.169434L-48.4893 43.047" fill="#6E44FE"/>
</svg>
