<svg width="159" height="317" viewBox="0 0 159 317" fill="none" xmlns="http://www.w3.org/2000/svg">
<g filter="url(#filter0_d_2035_809)">
<path d="M134.184 141.297C142.317 138.442 148.019 131.306 149.029 122.685L151.57 101.175L170.372 91.1493C177.938 87.138 182.487 79.2585 182.277 70.6379C182.067 62.0174 177.141 54.399 169.387 50.7599L150.119 41.6621L146.532 20.3003C145.103 11.7396 139.06 4.88914 130.797 2.40571C122.562 -0.0496458 113.823 2.39107 108.018 8.75955L93.6422 24.5323L72.7316 21.4153C66.2073 20.4311 59.6132 22.3923 54.6967 26.7963C49.6952 31.2298 46.9278 37.6104 47.0907 44.288C47.1784 47.884 48.146 51.4599 49.8973 54.6443L60.2947 73.611L50.8348 93.0907C49.2394 96.3567 48.4485 99.9741 48.5362 103.57C48.6991 110.249 51.7754 116.486 56.9858 120.672C62.1111 124.831 68.7929 126.467 75.2615 125.167L95.9954 121.035L111.122 136.059C117.231 142.165 126.079 144.148 134.184 141.295L134.184 141.297ZM123.086 123.889L103.537 104.459C102.257 103.205 100.485 102.677 98.7617 103.005L71.9549 108.372C68.5085 109.055 65.632 106.327 65.5547 103.158C65.5345 102.331 65.7122 101.47 66.1177 100.632L78.2265 75.7176C78.6327 74.9082 78.8103 74.0481 78.7888 73.1628C78.7672 72.2775 78.5484 71.4545 78.1033 70.6657L64.7946 46.3714C64.3487 45.5539 64.1293 44.7022 64.1091 43.8743C64.0319 40.7066 66.772 37.8413 70.2477 38.3562L97.2841 42.4096C99.0209 42.6534 100.767 42.0399 101.983 40.7246L120.561 20.3654C123.575 17.0648 129.008 18.7026 129.741 23.14L134.354 50.5599C134.653 52.3229 135.767 53.8101 137.376 54.5704L162.158 66.2762C164.168 67.2267 165.208 69.1442 165.254 71.0558C165.301 72.9673 164.356 74.962 162.395 76.0093L138.213 88.909C136.644 89.7469 135.603 91.2865 135.39 93.0621L132.118 120.646C131.603 125.142 126.257 127.043 123.086 123.893L123.086 123.889Z" fill="#FBC5FF"/>
<path d="M103.537 104.46C102.258 103.206 100.485 102.678 98.7624 103.006L71.9557 108.373C68.5093 109.056 65.6328 106.328 65.5555 103.159C65.5353 102.332 65.713 101.471 66.1185 100.633L78.2273 75.7186C78.6334 74.9091 78.8111 74.0491 78.7895 73.1637C78.768 72.2784 78.5492 71.4554 78.1041 70.6667L64.7954 46.3724C64.3495 45.5549 64.1301 44.7032 64.1099 43.8753C64.0327 40.7076 66.7728 37.8422 70.2485 38.3572L97.2849 42.4105C99.0217 42.6543 100.768 42.0408 101.983 40.7255L120.562 20.3663C123.576 17.0657 129.008 18.7036 129.741 23.141L134.355 50.5609C134.654 52.3239 135.768 53.811 137.377 54.5714L162.159 66.2772C164.169 67.2277 165.209 69.1451 165.255 71.0567C165.302 72.9683 164.357 74.9629 162.396 76.0102L138.214 88.91C136.645 89.7478 135.604 91.2875 135.391 93.063L132.119 120.646C131.604 125.143 126.258 127.044 123.086 123.894L103.538 104.464L103.537 104.46Z" fill="#432CB5"/>
<path d="M45.7939 195.164C47.3193 193.127 47.5446 190.44 46.3755 188.159L43.4632 182.466L46.4264 176.917C47.6227 174.69 47.4431 172.01 45.9746 169.93C44.5061 167.85 42.046 166.792 39.5462 167.174L33.3253 168.109L28.9345 163.46C27.1768 161.595 24.5689 160.909 22.1341 161.658C19.7109 162.409 17.9688 164.444 17.5919 166.96L16.6588 173.191L11.0182 175.864C9.25637 176.695 7.96156 178.26 7.47965 180.148C6.98175 182.057 7.35184 184.077 8.48934 185.688C9.10191 186.555 9.92697 187.273 10.8799 187.766L16.5474 190.709L17.4291 197.041C17.5747 198.105 17.9753 199.122 18.5879 199.989C19.7256 201.6 21.5052 202.624 23.4711 202.794C25.4117 202.972 27.3193 202.275 28.6921 200.893L33.0978 196.472L39.2771 197.67C41.7788 198.163 44.2749 197.195 45.7936 195.164L45.7939 195.164ZM40.2107 192.719L32.2228 191.167C31.7028 191.07 31.1814 191.232 30.8128 191.595L25.1205 197.317C24.3877 198.052 23.2337 197.855 22.6939 197.091C22.5531 196.891 22.4551 196.651 22.4168 196.379L21.2914 188.278C21.2579 188.013 21.1601 187.773 21.0093 187.559C20.8585 187.346 20.6696 187.18 20.4308 187.06L13.1736 183.289C12.9299 183.162 12.7361 182.989 12.5951 182.789C12.0555 182.025 12.2565 180.872 13.1936 180.427L20.4904 176.977C20.9565 176.751 21.2838 176.314 21.3658 175.792L22.5758 167.745C22.7724 166.44 24.374 165.949 25.283 166.917L30.9214 172.883C31.2845 173.266 31.8021 173.448 32.3218 173.37L40.3235 172.167C40.9727 172.07 41.5429 172.369 41.8686 172.83C42.1942 173.292 42.2904 173.936 41.9815 174.515L38.1713 181.654C37.9242 182.117 37.9218 182.666 38.1616 183.136L41.8929 190.439C42.5056 191.626 41.5069 192.971 40.2114 192.72L40.2107 192.719Z" fill="#FBC5FF"/>
<path d="M32.2232 191.167C31.7031 191.07 31.1817 191.232 30.8131 191.595L25.1209 197.317C24.388 198.052 23.2341 197.855 22.6943 197.091C22.5535 196.891 22.4555 196.651 22.4171 196.379L21.2917 188.278C21.2583 188.013 21.1605 187.773 21.0097 187.559C20.8589 187.346 20.67 187.18 20.4311 187.06L13.174 183.289C12.9303 183.162 12.7365 182.989 12.5955 182.789C12.0559 182.025 12.2569 180.872 13.1939 180.427L20.4908 176.977C20.9568 176.751 21.2842 176.314 21.3661 175.792L22.5761 167.745C22.7728 166.44 24.3743 165.949 25.2834 166.916L30.9218 172.883C31.2849 173.266 31.8025 173.448 32.3221 173.37L40.3239 172.167C40.973 172.07 41.5433 172.369 41.8689 172.83C42.1946 173.292 42.2907 173.936 41.9819 174.515L38.1716 181.654C37.9246 182.117 37.9222 182.666 38.1619 183.136L41.8932 190.439C42.506 191.626 41.5072 192.971 40.2118 192.72L32.2239 191.168L32.2232 191.167Z" fill="#432CB5"/>
<path d="M131.218 276.649C132.034 272.3 130.322 267.936 126.748 265.276L117.835 258.632L118.197 247.702C118.352 243.309 116.015 239.267 112.128 237.15C108.241 235.034 103.591 235.271 99.9847 237.786L90.9998 244.021L80.5817 240.14C76.4087 238.581 71.8135 239.512 68.591 242.55C65.388 245.582 64.233 250.094 65.5767 254.307L68.905 264.743L62.1585 273.242C60.0484 275.891 59.2301 279.325 59.928 282.641C60.6172 286.001 62.745 288.867 65.7559 290.507C67.3774 291.39 69.2155 291.876 71.0804 291.914L82.1795 292.152L88.4162 301.352C89.4595 302.899 90.8652 304.178 92.4867 305.061C95.4983 306.701 99.0601 306.932 102.257 305.688C105.42 304.475 107.861 301.923 108.941 298.714L112.419 288.435L122.977 285.561C127.258 284.409 130.408 280.983 131.217 276.648L131.218 276.649ZM120.632 277.121L106.982 280.833C106.096 281.08 105.407 281.733 105.111 282.583L100.625 295.879C100.046 297.586 98.0951 298.166 96.6661 297.388C96.2935 297.185 95.956 296.885 95.6872 296.49L87.7131 284.719C87.4572 284.331 87.1204 284.031 86.7212 283.814C86.322 283.597 85.8999 283.483 85.4351 283.479L71.2208 283.169C70.743 283.157 70.308 283.037 69.9347 282.833C68.5064 282.056 67.9347 280.103 69.0547 278.689L77.7878 267.706C78.3415 266.997 78.5162 266.063 78.2431 265.185L73.9529 251.705C73.2578 249.519 75.3788 247.523 77.5397 248.335L90.9149 253.312C91.7754 253.631 92.7222 253.517 93.4729 252.997L105.031 244.978C105.969 244.328 107.088 244.357 107.95 244.826C108.812 245.296 109.457 246.227 109.419 247.368L108.956 261.427C108.927 262.339 109.344 263.197 110.079 263.747L121.506 272.273C123.373 273.655 122.848 276.519 120.634 277.122L120.632 277.121Z" fill="#FBC5FF"/>
<path d="M106.981 280.832C106.095 281.08 105.406 281.733 105.11 282.583L100.625 295.878C100.045 297.586 98.0946 298.166 96.6656 297.388C96.2929 297.185 95.9554 296.885 95.6867 296.49L87.7126 284.719C87.4567 284.331 87.1199 284.031 86.7207 283.814C86.3215 283.596 85.8994 283.483 85.4346 283.478L71.2203 283.168C70.7425 283.157 70.3075 283.036 69.9342 282.833C68.5059 282.055 67.9342 280.102 69.0542 278.689L77.7873 267.706C78.341 266.996 78.5157 266.063 78.2425 265.185L73.9524 251.705C73.2573 249.518 75.3783 247.523 77.5392 248.334L90.9143 253.312C91.7749 253.631 92.7217 253.517 93.4724 252.996L105.03 244.978C105.968 244.328 107.087 244.357 107.949 244.826C108.811 245.295 109.456 246.227 109.419 247.367L108.956 261.427C108.926 262.339 109.344 263.197 110.079 263.747L121.505 272.273C123.373 273.654 122.847 276.519 120.634 277.122L106.983 280.833L106.981 280.832Z" fill="#432CB5"/>
</g>
<defs>
<filter id="filter0_d_2035_809" x="7.2627" y="1.46634" width="179.021" height="311.013" filterUnits="userSpaceOnUse" color-interpolation-filters="sRGB">
<feFlood flood-opacity="0" result="BackgroundImageFix"/>
<feColorMatrix in="SourceAlpha" type="matrix" values="0 0 0 0 0 0 0 0 0 0 0 0 0 0 0 0 0 0 127 0" result="hardAlpha"/>
<feOffset dx="2" dy="4"/>
<feGaussianBlur stdDeviation="1"/>
<feColorMatrix type="matrix" values="0 0 0 0 0 0 0 0 0 0 0 0 0 0 0 0 0 0 0.25 0"/>
<feBlend mode="normal" in2="BackgroundImageFix" result="effect1_dropShadow_2035_809"/>
<feBlend mode="normal" in="SourceGraphic" in2="effect1_dropShadow_2035_809" result="shape"/>
</filter>
</defs>
</svg>
