<svg width="332" height="291" viewBox="0 0 332 291" fill="none" xmlns="http://www.w3.org/2000/svg">
<g filter="url(#filter0_d_2035_719)">
<path d="M196.082 126.082C196.917 120.215 197.437 100.256 169.254 90.6716C168.349 90.3639 167.411 90.0451 166.43 89.7484C167.434 67.7938 157.373 54.1218 144.349 49.6927C140.535 48.3957 136.512 47.9429 132.475 48.2901C128.439 48.6388 124.387 49.787 120.494 51.7566C113.908 55.1188 108.036 60.5534 103.072 67.9074C102.501 67.6761 101.92 67.4785 101.37 67.2916C78.4222 59.4874 63.6861 68.6439 57.5503 79.8467C51.9483 89.9859 51.5784 105.383 63.4574 122.237C52.6723 135.849 52.0705 147.616 53.086 154.405C54.7951 165.713 62.3512 174.689 73.3409 178.427C81.7768 181.296 91.5539 180.886 101.928 177.385C108.059 186.537 115.574 192.826 124.041 195.706C134.902 199.399 146.231 196.918 154.315 189.052C159.257 184.252 165.926 174.475 165.486 156.753C182.582 151.109 194.154 139.998 196.082 126.082ZM130.603 175.973C123.944 173.708 116.387 165.061 111.33 149.429C97.8447 158.718 86.5922 160.969 79.9007 158.693C71.3356 155.78 70.1945 145.47 81.2663 133.054C82.0679 132.156 82.9569 131.213 83.9218 130.26C86.2842 127.915 89.0997 125.505 92.3909 123.072C65.4846 100.339 70.3063 78.6952 94.8056 87.0269C99.7828 88.7195 105.597 91.6846 112.148 96.1101C113.055 93.3797 114.037 90.8593 115.052 88.5675C115.531 87.4498 116.065 86.3861 116.577 85.3888C117.056 84.3805 117.59 83.4262 118.144 82.5172C121.339 77.014 124.853 73.2662 128.26 71.13C128.845 70.7801 129.386 70.4509 129.97 70.2104C132.76 68.852 135.425 68.6242 137.786 69.427C140.147 70.2298 142.166 72.0508 143.61 74.8491C144.209 75.9682 144.689 77.2289 145.082 78.6446C145.665 80.7835 145.989 83.273 146.042 86.0374C146.076 87.8799 145.982 89.8977 145.745 92.0133C145.498 94.1626 145.11 96.4101 144.593 98.8343C144.043 101.247 143.352 103.757 142.499 106.432C150.954 107.294 157.617 108.68 162.691 110.406C169.575 112.747 173.511 115.733 175.094 118.87C175.243 119.177 175.382 119.516 175.489 119.846C177.32 125.155 172.732 130.843 164.395 134.817C158.534 137.62 150.843 139.543 142.177 139.965C149.686 166.827 141.268 179.598 130.602 175.971L130.603 175.973Z" fill="#6E44FE"/>
<path d="M164.397 134.821C158.536 137.623 150.845 139.547 142.178 139.968C149.688 166.831 141.269 179.602 130.603 175.974C123.945 173.71 116.388 165.063 111.331 149.431C97.8455 158.72 86.5931 160.97 79.9015 158.695C71.3364 155.782 70.1953 145.472 81.2671 133.056C82.0798 132.124 82.9577 131.215 83.9227 130.262C86.285 127.917 89.1006 125.507 92.3918 123.074C65.4854 100.341 70.3072 78.697 94.8064 87.0287C99.7836 88.7214 105.598 91.6865 112.148 96.112L112.181 96.1231C113.089 93.3926 114.027 90.893 115.053 88.5694C115.565 87.4627 116.055 86.4212 116.578 85.3907C117.09 84.3935 117.623 83.4392 118.144 82.519C121.34 77.0158 124.854 73.2681 128.261 71.1319C128.845 70.7819 129.419 70.4638 129.971 70.2122C132.761 68.8539 135.426 68.6261 137.787 69.4289C140.148 70.2317 142.167 72.0527 143.611 74.851C144.21 75.97 144.69 77.2307 145.083 78.6465C145.666 80.7853 145.99 83.2748 146.043 86.0392C146.077 87.8817 145.983 89.8996 145.746 92.0151C145.499 94.1644 145.111 96.4119 144.594 98.8361C144.043 101.249 143.353 103.759 142.5 106.434C150.954 107.296 157.618 108.682 162.691 110.408C169.576 112.749 173.511 115.735 175.095 118.872C175.244 119.178 175.382 119.518 175.489 119.848C177.321 125.157 172.733 130.845 164.396 134.819L164.397 134.821Z" fill="#D1FF61"/>
<path d="M42.0149 264.601C44.4999 262.406 51.9639 254.082 43.4131 239.531C43.1385 239.064 42.8541 238.58 42.543 238.089C50.9376 229.092 51.6044 219.523 47.653 212.799C46.496 210.83 44.9431 209.144 43.0944 207.794C41.2451 206.444 39.0994 205.431 36.7233 204.827C32.6922 203.817 28.2143 203.957 23.4275 205.254C23.2676 204.943 23.0913 204.643 22.9246 204.359C15.9622 192.512 6.3506 190.951 -0.332999 193.455C-6.40278 195.703 -12.1473 202.137 -13.1931 213.739C-22.735 215.546 -27.2615 220.345 -29.2914 223.619C-32.665 229.079 -32.6971 235.715 -29.3629 241.388C-26.8035 245.743 -22.4822 249.197 -16.7844 251.553C-17.488 257.734 -16.563 263.208 -13.9941 267.579C-10.6991 273.186 -4.96352 276.332 1.34098 275.975C5.19164 275.76 11.5851 274.063 17.8277 266.336C27.1721 270.271 36.1427 269.824 42.0149 264.601ZM-4.0337 261.592C-6.05396 258.154 -6.14168 251.66 -2.628 243.111C-11.7539 242.071 -17.3728 238.855 -19.4029 235.401C-22.0015 230.979 -18.7476 226.155 -9.51736 224.965C-8.84916 224.879 -8.1276 224.807 -7.37016 224.758C-5.51097 224.634 -3.4349 224.65 -1.1474 224.833C-4.38236 205.146 5.529 197.698 12.9619 210.346C14.472 212.915 15.8775 216.339 17.0675 220.659C18.4457 219.83 19.7792 219.119 21.0439 218.517C21.654 218.218 22.2678 217.962 22.8481 217.727C23.4185 217.474 23.9926 217.265 24.5587 217.083C27.9194 215.92 30.7787 215.624 33.0081 215.977C33.3845 216.045 33.7348 216.105 34.0715 216.219C35.7551 216.675 36.9753 217.567 37.6915 218.786C38.4077 220.004 38.6088 221.531 38.2098 223.261C38.0593 223.961 37.8069 224.677 37.4607 225.427C36.9338 226.557 36.1685 227.739 35.1881 228.939C34.5341 229.738 33.7618 230.564 32.8931 231.379C32.008 232.205 31.0267 233.02 29.9266 233.863C28.8161 234.688 27.6106 235.503 26.2759 236.328C29.5713 239.834 31.9122 242.898 33.4515 245.518C35.5403 249.072 36.1365 251.807 35.674 253.733C35.6265 253.92 35.5622 254.116 35.4885 254.296C34.3436 257.242 30.3216 257.967 25.3218 256.569C21.8033 255.59 17.8231 253.556 13.9712 250.52C7.42923 264.771 -0.797455 267.098 -4.03342 261.591L-4.0337 261.592Z" fill="#6E44FE"/>
<path d="M25.3212 256.571C21.8026 255.592 17.8224 253.558 13.9706 250.522C7.42858 264.774 -0.798101 267.1 -4.03406 261.593C-6.05432 258.156 -6.14204 251.661 -2.62837 243.112C-11.7542 242.072 -17.3731 238.856 -19.4033 235.402C-22.0019 230.98 -18.7479 226.156 -9.51772 224.966C-8.83275 224.87 -8.12797 224.808 -7.37052 224.759C-5.51133 224.635 -3.43526 224.651 -1.14777 224.834C-4.38272 205.147 5.52864 197.699 12.9616 210.347C14.4716 212.917 15.8771 216.34 17.0671 220.66L17.077 220.677C18.4552 219.848 19.7628 219.13 21.0436 218.519C21.6635 218.236 22.2507 217.974 22.8477 217.728C23.428 217.492 24.0021 217.283 24.5583 217.084C27.9191 215.921 30.7783 215.625 33.0077 215.978C33.3841 216.046 33.7444 216.123 34.0711 216.22C35.7547 216.676 36.975 217.568 37.6912 218.787C38.4074 220.006 38.6084 221.532 38.2095 223.262C38.0589 223.962 37.8065 224.678 37.4604 225.428C36.9334 226.558 36.1681 227.74 35.1877 228.94C34.5337 229.739 33.7615 230.565 32.8927 231.38C32.0076 232.206 31.0264 233.021 29.9262 233.864C28.8157 234.689 27.6103 235.504 26.2755 236.329C29.571 239.835 31.9118 242.899 33.4512 245.519C35.54 249.073 36.1361 251.808 35.6736 253.734C35.6261 253.921 35.5619 254.117 35.4881 254.297C34.3432 257.243 30.3212 257.968 25.3215 256.57L25.3212 256.571Z" fill="#D1FF61"/>
<path d="M268.116 176.29C267.252 174.213 263.556 167.609 252.518 170.07C252.164 170.149 251.797 170.231 251.42 170.328C247.494 162.978 241.569 160.517 236.469 161.655C234.975 161.988 233.577 162.637 232.329 163.55C231.082 164.463 229.984 165.64 229.098 167.053C227.603 169.453 226.743 172.386 226.55 175.765C226.32 175.803 226.092 175.854 225.877 175.902C216.89 177.906 213.863 183.808 214.034 188.673C214.173 193.085 217.035 198.174 224.169 201.311C223.292 207.882 225.375 211.834 227.021 213.845C229.768 217.19 233.968 218.617 238.271 217.657C241.575 216.92 244.681 214.85 247.382 211.655C251.152 213.421 254.818 213.981 258.134 213.242C262.387 212.293 265.597 209.241 266.707 205.077C267.387 202.534 267.666 198.028 264.09 192.342C268.566 187.117 270.183 181.205 268.116 176.29ZM256.449 205.514C253.841 206.095 249.705 204.776 245.03 200.685C242.436 206.383 239.207 209.345 236.586 209.929C233.232 210.677 230.863 207.545 232.065 201.307C232.152 200.855 232.259 200.372 232.389 199.871C232.704 198.639 233.155 197.296 233.756 195.851C220.588 193.776 217.966 185.771 227.561 183.631C229.51 183.197 231.978 183.011 234.969 183.154C234.736 182.085 234.568 181.07 234.455 180.122C234.394 179.663 234.362 179.211 234.336 178.784C234.296 178.361 234.285 177.944 234.29 177.539C234.265 175.113 234.683 173.196 235.38 171.825C235.502 171.595 235.615 171.381 235.758 171.187C236.404 170.192 237.228 169.589 238.153 169.383C239.077 169.177 240.088 169.37 241.1 169.996C241.512 170.242 241.913 170.557 242.315 170.941C242.919 171.522 243.507 172.269 244.059 173.159C244.427 173.752 244.788 174.428 245.12 175.164C245.456 175.913 245.765 176.722 246.066 177.614C246.354 178.509 246.615 179.464 246.855 180.504C249.777 179.11 252.216 178.241 254.203 177.798C256.899 177.197 258.759 177.39 259.882 178.098C259.99 178.169 260.101 178.252 260.2 178.338C261.825 179.705 261.432 182.467 259.486 185.413C258.119 187.487 255.987 189.637 253.245 191.491C260.894 198.754 260.626 204.582 256.449 205.513L256.449 205.514Z" fill="#6E44FE"/>
<path d="M259.488 185.413C258.121 187.488 255.988 189.638 253.247 191.492C260.896 198.755 260.627 204.583 256.45 205.514C253.843 206.096 249.706 204.776 245.031 200.686C242.437 206.383 239.208 209.345 236.587 209.93C233.233 210.678 230.864 207.545 232.066 201.307C232.15 200.843 232.26 200.373 232.39 199.871C232.705 198.639 233.156 197.296 233.757 195.852C220.589 193.777 217.967 185.771 227.562 183.632C229.511 183.197 231.979 183.011 234.97 183.155L234.983 183.152C234.75 182.083 234.572 181.083 234.456 180.122C234.408 179.661 234.366 179.224 234.337 178.785C234.31 178.359 234.299 177.942 234.291 177.539C234.266 175.113 234.684 173.196 235.381 171.826C235.503 171.596 235.629 171.379 235.76 171.187C236.405 170.192 237.229 169.59 238.154 169.384C239.078 169.178 240.089 169.371 241.101 169.996C241.513 170.242 241.914 170.558 242.316 170.941C242.92 171.522 243.508 172.269 244.06 173.159C244.428 173.752 244.789 174.428 245.121 175.164C245.457 175.913 245.766 176.722 246.067 177.615C246.355 178.51 246.616 179.464 246.856 180.504C249.778 179.11 252.217 178.242 254.204 177.799C256.9 177.198 258.76 177.391 259.883 178.099C259.991 178.169 260.102 178.252 260.201 178.338C261.826 179.705 261.433 182.467 259.487 185.413L259.488 185.413Z" fill="#D1FF61"/>
<path d="M82.35 24.0952C82.5757 22.7727 82.8185 18.2589 76.4998 15.9089C76.2969 15.8335 76.0867 15.7553 75.8665 15.6818C76.2314 10.7193 74.0399 7.56044 71.1199 6.47451C70.2649 6.15651 69.3571 6.02824 68.4414 6.08096C67.5256 6.13399 66.6014 6.3679 65.708 6.78873C64.1962 7.50747 62.8332 8.69985 61.6637 10.3325C61.5358 10.2765 61.4056 10.228 61.2823 10.1822C56.1374 8.26877 52.7448 10.2467 51.2858 12.7429C49.9544 15.0018 49.7742 18.4842 52.3572 22.375C49.8309 25.3867 49.6209 28.0461 49.8082 29.5891C50.1242 32.1593 51.7781 34.2394 54.242 35.1557C56.1333 35.8591 58.3487 35.8291 60.7185 35.1032C62.049 37.2137 63.7104 38.6855 65.6087 39.3915C68.0436 40.297 70.6233 39.8081 72.5023 38.0795C73.6508 37.0248 75.2214 34.8548 75.2329 30.841C79.1376 29.673 81.8264 27.2325 82.35 24.0952ZM67.2174 34.9673C65.7245 34.4121 64.0683 32.4066 63.0217 28.8362C59.9114 30.8522 57.3505 31.2893 55.8503 30.7314C53.93 30.0172 53.7364 27.6764 56.32 24.9374C56.5071 24.7392 56.7142 24.5314 56.9386 24.322C57.488 23.8064 58.1403 23.279 58.9004 22.7494C52.9532 17.4319 54.1801 12.564 59.6728 14.6068C60.7887 15.0218 62.086 15.7301 63.5409 16.7737C63.7635 16.1616 64.0015 15.5975 64.2456 15.0853C64.361 14.8353 64.4885 14.598 64.6106 14.3756C64.7254 14.1505 64.8522 13.9379 64.9832 13.7357C65.741 12.5106 66.5596 11.6849 67.3442 11.2233C67.4787 11.1478 67.6032 11.0768 67.737 11.0261C68.3769 10.7366 68.9816 10.7021 69.5109 10.8989C70.0401 11.0957 70.4857 11.5208 70.7951 12.1634C70.9236 12.4205 71.0244 12.7089 71.1044 13.0319C71.2231 13.5197 71.2806 14.0852 71.2753 14.7113C71.2715 15.1285 71.2376 15.5846 71.1707 16.0619C71.1014 16.5467 70.9994 17.0529 70.8673 17.5983C70.7275 18.1408 70.5555 18.7045 70.3456 19.3044C72.2538 19.5538 73.7532 19.9103 74.8907 20.3333C76.4342 20.9073 77.3062 21.6084 77.6449 22.3285C77.6768 22.3988 77.706 22.4766 77.7281 22.5518C78.1094 23.7653 77.0353 25.0232 75.1236 25.8691C73.7794 26.4659 72.0267 26.8519 70.0625 26.8918C71.5938 33.0198 69.6084 35.8562 67.2172 34.9669L67.2174 34.9673Z" fill="#6E44FE"/>
<path d="M75.1244 25.87C73.7802 26.4668 72.0275 26.8528 70.0634 26.8926C71.5947 33.0206 69.6093 35.857 67.218 34.9677C65.7251 34.4125 64.069 32.407 63.0224 28.8367C59.912 30.8526 57.3512 31.2898 55.8509 30.7318C53.9307 30.0177 53.737 27.6769 56.3207 24.9378C56.5104 24.7321 56.7149 24.5319 56.9392 24.3225C57.4886 23.8068 58.1409 23.2794 58.9011 22.7498C52.9538 17.4323 54.1808 12.5645 59.6735 14.6072C60.7893 15.0222 62.0867 15.7306 63.5415 16.7742L63.5489 16.7769C63.7715 16.1647 63.9996 15.605 64.2462 15.0857C64.369 14.8385 64.4865 14.6059 64.6113 14.376C64.7333 14.1536 64.8601 13.941 64.9838 13.7361C65.7416 12.5111 66.5603 11.6854 67.3449 11.2237C67.4793 11.1483 67.6112 11.0799 67.7376 11.0265C68.3776 10.737 68.9823 10.7025 69.5115 10.8993C70.0408 11.0962 70.4864 11.5213 70.7957 12.1638C70.9242 12.421 71.025 12.7094 71.105 13.0323C71.2237 13.5201 71.2813 14.0857 71.276 14.7117C71.2721 15.1289 71.2382 15.585 71.1713 16.0623C71.1021 16.5472 71.0001 17.0534 70.8679 17.5987C70.7282 18.1412 70.5561 18.7049 70.3463 19.3049C72.2544 19.5543 73.7538 19.9107 74.8913 20.3337C76.4349 20.9078 77.3069 21.6088 77.6455 22.3289C77.6774 22.3992 77.7066 22.4771 77.7288 22.5523C78.11 23.7657 77.0359 25.0236 75.1242 25.8696L75.1244 25.87Z" fill="#D1FF61"/>
<path d="M327.548 170.975C327.861 170.184 328.604 167.413 324.988 165.107C324.872 165.033 324.751 164.956 324.624 164.881C325.501 161.848 324.554 159.593 322.883 158.527C322.394 158.215 321.847 158.013 321.271 157.923C320.696 157.834 320.091 157.855 319.481 157.996C318.448 158.24 317.445 158.798 316.505 159.655C316.433 159.603 316.359 159.556 316.288 159.511C313.344 157.633 310.978 158.406 309.744 159.761C308.622 160.985 308.053 163.123 309.147 165.886C307.184 167.418 306.705 169.041 306.619 170.024C306.478 171.663 307.233 173.176 308.643 174.076C309.725 174.766 311.105 175.044 312.672 174.911C313.221 176.4 314.06 177.537 315.146 178.23C316.54 179.119 318.206 179.161 319.599 178.339C320.451 177.838 321.711 176.701 322.244 174.21C324.822 174.008 326.812 172.853 327.548 170.975ZM316.725 175.698C315.871 175.153 315.105 173.686 314.923 171.328C312.728 172.163 311.08 172.091 310.221 171.544C309.122 170.843 309.309 169.363 311.272 168.009C311.415 167.911 311.57 167.809 311.737 167.709C312.146 167.463 312.62 167.223 313.162 166.996C310.165 162.896 311.565 160.038 314.709 162.043C315.347 162.45 316.06 163.064 316.827 163.907C317.045 163.556 317.267 163.238 317.486 162.953C317.59 162.813 317.7 162.683 317.805 162.561C317.906 162.436 318.013 162.321 318.121 162.213C318.752 161.554 319.368 161.151 319.916 160.97C320.01 160.941 320.096 160.913 320.186 160.9C320.621 160.806 321.001 160.866 321.304 161.059C321.607 161.252 321.828 161.576 321.936 162.016C321.982 162.193 322.007 162.386 322.014 162.597C322.024 162.916 321.986 163.275 321.9 163.663C321.843 163.921 321.762 164.2 321.658 164.488C321.552 164.779 321.422 165.08 321.268 165.401C321.111 165.719 320.93 166.046 320.721 166.391C321.873 166.801 322.758 167.224 323.409 167.639C324.292 168.202 324.742 168.755 324.858 169.247C324.868 169.295 324.876 169.347 324.88 169.397C324.958 170.202 324.126 170.839 322.828 171.108C321.915 171.298 320.776 171.303 319.551 171.065C319.698 175.075 318.094 176.571 316.725 175.698L316.725 175.698Z" fill="#6E44FE"/>
<path d="M322.828 171.109C321.915 171.299 320.776 171.304 319.551 171.065C319.699 175.076 318.094 176.571 316.726 175.698C315.871 175.154 315.106 173.686 314.924 171.329C312.728 172.163 311.08 172.092 310.222 171.544C309.123 170.843 309.309 169.363 311.273 168.009C311.418 167.907 311.571 167.81 311.738 167.71C312.146 167.463 312.621 167.223 313.162 166.996C310.166 162.896 311.566 160.038 314.709 162.043C315.348 162.45 316.06 163.064 316.827 163.907L316.831 163.91C317.05 163.559 317.265 163.242 317.486 162.953C317.595 162.816 317.698 162.687 317.806 162.561C317.911 162.439 318.017 162.324 318.121 162.214C318.752 161.555 319.369 161.152 319.917 160.97C320.01 160.941 320.101 160.916 320.186 160.9C320.622 160.806 321.002 160.866 321.305 161.059C321.607 161.252 321.828 161.576 321.936 162.016C321.982 162.193 322.007 162.386 322.015 162.597C322.024 162.916 321.986 163.275 321.901 163.663C321.844 163.922 321.763 164.2 321.659 164.488C321.552 164.78 321.422 165.08 321.269 165.401C321.111 165.719 320.93 166.046 320.721 166.391C321.874 166.802 322.758 167.224 323.409 167.639C324.292 168.203 324.742 168.755 324.858 169.247C324.868 169.295 324.876 169.348 324.88 169.397C324.958 170.202 324.126 170.839 322.828 171.108L322.828 171.109Z" fill="#D1FF61"/>
</g>
<defs>
<filter id="filter0_d_2035_719" x="-42.7578" y="0.685028" width="378.593" height="295.814" filterUnits="userSpaceOnUse" color-interpolation-filters="sRGB">
<feFlood flood-opacity="0" result="BackgroundImageFix"/>
<feColorMatrix in="SourceAlpha" type="matrix" values="0 0 0 0 0 0 0 0 0 0 0 0 0 0 0 0 0 0 127 0" result="hardAlpha"/>
<feOffset dx="2" dy="4"/>
<feGaussianBlur stdDeviation="1"/>
<feColorMatrix type="matrix" values="0 0 0 0 0 0 0 0 0 0 0 0 0 0 0 0 0 0 0.25 0"/>
<feBlend mode="normal" in2="BackgroundImageFix" result="effect1_dropShadow_2035_719"/>
<feBlend mode="normal" in="SourceGraphic" in2="effect1_dropShadow_2035_719" result="shape"/>
</filter>
</defs>
</svg>
